<?xml version="1.0" encoding="UTF-8" standalone="no"?>
<svg
   xmlns:dc="http://purl.org/dc/elements/1.1/"
   xmlns:cc="http://creativecommons.org/ns#"
   xmlns:rdf="http://www.w3.org/1999/02/22-rdf-syntax-ns#"
   xmlns:svg="http://www.w3.org/2000/svg"
   xmlns="http://www.w3.org/2000/svg"
   viewBox="0 0 313.66666 58.279999"
   height="58.279999"
   width="313.66666"
   xml:space="preserve"
   id="svg2"
   version="1.1"><metadata
     id="metadata8"><rdf:RDF><cc:Work
         rdf:about=""><dc:format>image/svg+xml</dc:format><dc:type
           rdf:resource="http://purl.org/dc/dcmitype/StillImage" /></cc:Work></rdf:RDF></metadata><defs
     id="defs6"><clipPath
       id="clipPath20"
       clipPathUnits="userSpaceOnUse"><path
         id="path18"
         d="M 0,0 H 2352.52 V 437 H 0 Z" /></clipPath></defs><g
     transform="matrix(1.3333333,0,0,-1.3333333,0,58.28)"
     id="g10"><g
       transform="scale(0.1)"
       id="g12"><g
         id="g14"><g
           clip-path="url(#clipPath20)"
           id="g16"><path
             id="path22"
             style="fill:#444142;fill-opacity:1;fill-rule:nonzero;stroke:none"
             d="M 174.23,176.332 H 135.152 L 86.9688,110.836 37.7734,176.332 H 0 V 3.67578 H 40.1328 V 110.836 L 86.9688,50.2695 135.152,110.836 V 3.67578 H 174.23 V 176.332" /><path
             id="path24"
             style="fill:#444142;fill-opacity:1;fill-rule:evenodd;stroke:none"
             d="m 293.559,72.543 h -35.164 l 17.582,56.441 17.582,-56.441 z m 12.183,-35 11.914,-33.86722 h 44.301 L 296.41,176.332 H 255.227 L 191.566,3.67578 h 44.059 L 246.73,37.543 h 59.012 v 0" /><path
             id="path26"
             style="fill:#444142;fill-opacity:1;fill-rule:nonzero;stroke:none"
             d="m 494.781,176.332 h -46.566 l -33.156,-64.441 -33.403,64.441 H 335.289 L 394.867,74.1172 V 3.67578 H 435.98 V 74.1172 l 58.801,102.2148 v 0" /><path
             id="path28"
             style="fill:#444142;fill-opacity:1;fill-rule:evenodd;stroke:none"
             d="m 633.148,90.1797 c 0,-30.0625 -22.793,-53.6602 -51.527,-53.6602 -29.027,0 -52.559,24.0899 -52.559,54.2227 0,29.3988 22.77,52.5118 52.043,52.5118 29.77,0 52.043,-22.77 52.043,-53.0743 z m 40.129,-0.5156 c 0,50.7659 -40.402,90.1059 -92.441,90.1059 -51.774,0 -91.656,-38.852 -91.656,-89.3442 0,-50.9883 40.132,-90.42970625 92.441,-90.42970625 52.016,0 91.656,38.85550625 91.656,89.66800625 v 0" /><path
             id="path30"
             style="fill:#444142;fill-opacity:1;fill-rule:evenodd;stroke:none"
             d="m 740.305,144.016 h 7.73 c 10.883,0 14.27,-0.543 18.961,-3.586 5.699,-3.414 8.77,-9.36 8.77,-16.332 0,-14.27 -9.313,-20.801 -30.012,-20.801 h -5.449 z m 46.316,-66.0199 c 19.18,11.125 28.539,26.1839 28.539,45.8089 0,16.082 -7.293,30.867 -19.43,39.883 -14.242,10.066 -24.363,12.644 -52.8,12.644 H 700.195 V 3.67578 h 40.11 V 68.9102 h 7.73 L 791.559,3.67578 h 45.359 L 786.621,77.9961 v 0" /><path
             id="path32"
             style="fill:#444142;fill-opacity:1;fill-rule:evenodd;stroke:none"
             d="m 1044.08,90.1797 c 0,-30.0625 -22.84,-53.6602 -51.553,-53.6602 -29.004,0 -52.582,24.0899 -52.582,54.2227 0,29.3988 22.793,52.5118 52.067,52.5118 29.818,0 52.068,-22.77 52.068,-53.0743 z m 40.15,-0.5156 c 0,50.7659 -40.45,90.1059 -92.437,90.1059 -51.848,0 -91.731,-38.852 -91.731,-89.3442 0,-50.9883 40.129,-90.42970625 92.465,-90.42970625 52.043,0 91.703,38.85550625 91.703,89.66800625 v 0" /><path
             id="path34"
             style="fill:#444142;fill-opacity:1;fill-rule:nonzero;stroke:none"
             d="m 1219.78,176.332 h -109 V 3.67578 h 40.97 V 77.9961 h 54.16 v 34.4379 h -54.16 v 29.515 h 68.03 v 34.383" /><path
             id="path36"
             style="fill:#444142;fill-opacity:1;fill-rule:nonzero;stroke:none"
             d="M 1342.87,176.332 H 1302.2 V 3.67578 h 106.98 V 40.1211 h -66.31 V 176.332" /><path
             id="path38"
             style="fill:#444142;fill-opacity:1;fill-rule:evenodd;stroke:none"
             d="m 1556.35,90.1797 c 0,-30.0625 -22.78,-53.6602 -51.51,-53.6602 -28.98,0 -52.55,24.0899 -52.55,54.2227 0,29.3988 22.76,52.5118 52.04,52.5118 29.76,0 52.02,-22.77 52.02,-53.0743 z m 40.17,-0.5156 c 0,50.7659 -40.42,90.1059 -92.44,90.1059 -51.79,0 -91.68,-38.852 -91.68,-89.3442 0,-50.9883 40.13,-90.42970625 92.44,-90.42970625 52.07,0 91.68,38.85550625 91.68,89.66800625 v 0" /><path
             id="path40"
             style="fill:#444142;fill-opacity:1;fill-rule:nonzero;stroke:none"
             d="m 1780.08,176.332 h -40.62 V 70.7266 L 1658.37,176.332 H 1621.6 V 3.67578 h 40.65 V 107.961 L 1743.32,3.67578 h 36.76 V 176.332" /><path
             id="path42"
             style="fill:#444142;fill-opacity:1;fill-rule:evenodd;stroke:none"
             d="m 1854.26,142.734 c 3.87,0.297 6.45,0.297 8.25,0.297 24.06,0 37.28,-3.929 48.43,-14.047 10.1,-9.039 15.52,-22.3 15.52,-38.5582 0,-26.4258 -14.19,-45.6367 -37.57,-50.793 -6.94,-1.5234 -10.78,-1.8164 -23.22,-1.8164 h -11.41 z m -40.68,33.598 V 3.67578 c 11.97,-0.24219 23.56,-0.24219 35.22,-0.24219 31.34,0 41.43,0.48829 53.59,3.36719 14,2.82422 26.97,10.08982 37.84,20.65622 16.29,15.8594 25.62,38.6524 25.62,63.2852 0,27.9028 -12.47,53.0508 -33.4,68.5508 -17.88,12.965 -33.64,17.039 -67.31,17.039 h -51.56 v 0" /><path
             id="path44"
             style="fill:#444142;fill-opacity:1;fill-rule:evenodd;stroke:none"
             d="m 2128.83,90.1797 c 0,-30.0625 -22.77,-53.6602 -51.53,-53.6602 -28.98,0 -52.55,24.0899 -52.55,54.2227 0,29.3988 22.71,52.5118 52.02,52.5118 29.86,0 52.06,-22.77 52.06,-53.0743 z m 40.09,-0.5156 c 0,50.7659 -40.34,90.1059 -92.38,90.1059 -51.79,0 -91.63,-38.852 -91.63,-89.3442 0,-50.9883 40.08,-90.42970625 92.39,-90.42970625 52.08,0 91.62,38.85550625 91.62,89.66800625 v 0" /><path
             id="path46"
             style="fill:#444142;fill-opacity:1;fill-rule:nonzero;stroke:none"
             d="M 2352.52,176.332 H 2311.8 V 70.7266 l -81,105.6054 h -36.77 V 3.67578 h 40.65 V 107.961 l 81.1,-104.28522 h 36.74 V 176.332" /><path
             id="path48"
             style="fill:#444142;fill-opacity:1;fill-rule:nonzero;stroke:none"
             d="m 602.129,373.746 c 6.191,-9.086 15.793,-13.285 26.5,-13.285 7.933,0 18.519,2.773 18.519,11.242 0,6.809 -6.41,8.77 -18.027,11.52 l -9.726,2.164 c -14.075,3.242 -26.282,8.398 -26.282,24.511 0,18.407 17.489,27.235 33.844,27.235 15.031,0 27.434,-5.535 36.473,-17.559 l -13.629,-10.351 c -4.153,8.027 -12.235,12.695 -22.989,12.695 -9.378,0 -16.503,-3.582 -16.503,-9.727 0,-7.23 8.203,-8.937 18.027,-11.211 l 10.656,-2.257 c 13.07,-2.871 25.344,-8.18 25.344,-24.758 0,-21.344 -20.137,-28.688 -38.313,-28.688 -14.539,0 -29.468,6.243 -37.871,18.399 l 13.977,10.07" /><path
             id="path50"
             style="fill:#444142;fill-opacity:1;fill-rule:nonzero;stroke:none"
             d="m 770.781,374.387 c 0,-17.809 -14.144,-29.11 -35.293,-29.11 -21.125,0 -35.218,11.301 -35.218,29.11 v 60.476 h 16.476 v -56.207 c 0,-10.633 4.57,-17.461 18.742,-17.461 14.27,0 18.836,6.828 18.836,17.461 v 56.207 h 16.457 v -60.476" /><path
             id="path52"
             style="fill:#444142;fill-opacity:1;fill-rule:nonzero;stroke:none"
             d="m 827.711,390.688 h 16.383 c 10.238,0 15.297,6.167 15.297,14.753 0,12.157 -6.508,15.704 -15.989,15.704 h -15.691 z m -16.457,44.175 h 34.754 c 20.554,0 30.523,-12.457 30.523,-29.422 0,-17.355 -12.105,-28.503 -29.445,-28.503 h -19.375 v -29.473 h -16.457 v 87.398" /><path
             id="path54"
             style="fill:#444142;fill-opacity:1;fill-rule:nonzero;stroke:none"
             d="m 927.273,390.688 h 16.313 c 10.359,0 15.367,6.167 15.367,14.753 0,12.157 -6.555,15.704 -15.961,15.704 h -15.719 z m -16.453,44.175 h 34.727 c 20.531,0 30.625,-12.457 30.625,-29.422 0,-17.355 -12.231,-28.503 -29.496,-28.503 H 927.273 V 347.465 H 910.82 v 87.398" /><path
             id="path56"
             style="fill:#444142;fill-opacity:1;fill-rule:nonzero;stroke:none"
             d="m 1024.38,391.133 c 0,-15.176 7.22,-30.672 24.66,-30.672 17.39,0 24.71,15.496 24.71,30.672 0,15.312 -7.32,30.785 -24.71,30.785 -17.44,0 -24.66,-15.473 -24.66,-30.785 z m 66.56,0 c 0,-24.656 -15.74,-45.856 -41.9,-45.856 -26.18,0 -41.87,21.2 -41.87,45.856 0,24.769 15.69,46 41.87,46 26.16,0 41.9,-21.231 41.9,-46" /><path
             id="path58"
             style="fill:#444142;fill-opacity:1;fill-rule:nonzero;stroke:none"
             d="m 1144.68,394.082 h 17.92 c 8.41,0 14.35,4.984 14.35,13.199 0,8.016 -5.38,13.106 -16.85,13.106 h -15.42 z m -16.51,40.781 h 36.55 c 18.56,0 29.47,-11.015 29.47,-26.367 0,-19.625 -13.21,-24.187 -17.34,-25.762 l 19.55,-35.269 h -19.09 l -16.89,32.223 h -15.74 v -32.223 h -16.51 v 87.398" /><path
             id="path60"
             style="fill:#444142;fill-opacity:1;fill-rule:nonzero;stroke:none"
             d="m 1246.92,419.707 h -23.9 v 15.156 h 64.37 v -15.156 h -23.99 v -72.242 h -16.48 v 72.242" /><path
             id="path62"
             style="fill:#444142;fill-opacity:1;fill-rule:nonzero;stroke:none"
             d="m 1320.69,434.863 h 61.97 v -15.156 h -45.48 V 399.766 H 1379 v -14.454 h -41.82 v -22.671 h 48.62 v -15.176 h -65.11 v 87.398" /><path
             id="path64"
             style="fill:#444142;fill-opacity:1;fill-rule:nonzero;stroke:none"
             d="m 1436.74,362.641 h 15.01 c 16.18,0 25.02,5.949 25.02,28.492 0,17.226 -7.44,28.574 -25.39,28.574 h -14.64 z m -16.46,72.222 h 30.71 c 30.2,0 43.02,-18.617 43.02,-43.73 0,-28.492 -13.9,-43.668 -39.93,-43.668 h -33.8 v 87.398" /><path
             id="path66"
             style="fill:#444142;fill-opacity:1;fill-rule:nonzero;stroke:none"
             d="m 1606.35,361.984 h 21.36 c 9.98,0 16.02,3.067 16.02,12.102 0,9.852 -6.19,13.414 -16.16,13.414 h -21.22 z m 0,37.782 h 19.57 c 7.29,0 13.87,2.875 13.87,11.187 0,6.645 -4.31,10.965 -13.87,10.965 h -19.57 z m -16.38,35.097 h 41.08 c 14.35,0 25.89,-7.164 25.89,-21.687 0,-9.59 -5.2,-15.852 -14.81,-17.696 v -0.195 c 12.04,-1.25 18.77,-11.226 18.77,-21.66 0,-21.863 -15.58,-26.16 -33.72,-26.16 h -37.21 v 87.398" /><path
             id="path68"
             style="fill:#444142;fill-opacity:1;fill-rule:nonzero;stroke:none"
             d="m 1718.81,381.602 -29.08,53.261 h 18.3 l 19.05,-36.093 19.01,36.093 h 18.32 l -29.13,-53.261 v -34.137 h -16.47 v 34.137" /></g></g></g></g></svg>