<?xml version="1.0" encoding="UTF-8" standalone="no"?>
<svg
   xmlns:dc="http://purl.org/dc/elements/1.1/"
   xmlns:cc="http://creativecommons.org/ns#"
   xmlns:rdf="http://www.w3.org/1999/02/22-rdf-syntax-ns#"
   xmlns:svg="http://www.w3.org/2000/svg"
   xmlns="http://www.w3.org/2000/svg"
   viewBox="0 0 793.70667 1122.52"
   height="1122.52"
   width="793.70667"
   xml:space="preserve"
   id="svg2"
   version="1.1"><metadata
     id="metadata8"><rdf:RDF><cc:Work
         rdf:about=""><dc:format>image/svg+xml</dc:format><dc:type
           rdf:resource="http://purl.org/dc/dcmitype/StillImage" /></cc:Work></rdf:RDF></metadata><defs
     id="defs6"><clipPath
       id="clipPath20"
       clipPathUnits="userSpaceOnUse"><path
         id="path18"
         d="M 0,8418.9 V 0 h 5952.76 v 8418.9 z" /></clipPath></defs><g
     transform="matrix(1.3333333,0,0,-1.3333333,0,1122.52)"
     id="g10"><g
       transform="scale(0.1)"
       id="g12"><g
         id="g14"><g
           clip-path="url(#clipPath20)"
           id="g16"><path
             id="path22"
             style="fill:none;stroke:#ee4023;stroke-width:100;stroke-linecap:round;stroke-linejoin:miter;stroke-miterlimit:10;stroke-dasharray:none;stroke-opacity:1"
             d="m 3147.68,5623.86 c 0,0 360.35,-29.2 364.74,-409.17 4.38,-379.97 -355.11,-424.09 -355.11,-424.09" /><path
             id="path24"
             style="fill:none;stroke:#ee4023;stroke-width:100;stroke-linecap:round;stroke-linejoin:miter;stroke-miterlimit:10;stroke-dasharray:none;stroke-opacity:1"
             d="m 5118.58,6182.2 c 0,0 138.09,-334.3 -198.1,-511.13 -336.18,-176.84 -539.14,123.33 -539.14,123.33" /><path
             id="path26"
             style="fill:none;stroke:#ee4023;stroke-width:100;stroke-linecap:round;stroke-linejoin:miter;stroke-miterlimit:10;stroke-dasharray:none;stroke-opacity:1"
             d="m 4745.51,6967.14 c 0,0 135.87,335.2 499.62,225.58 363.75,-109.61 298.08,-465.96 298.08,-465.96" /><path
             id="path28"
             style="fill:none;stroke:#034ec9;stroke-width:100;stroke-linecap:round;stroke-linejoin:miter;stroke-miterlimit:10;stroke-dasharray:none;stroke-opacity:1"
             d="m 6500.7,5852.42 c 0,0 155.24,-326.68 -171.38,-520.71 -326.63,-194.03 -544.9,95.21 -544.9,95.21" /><path
             id="path30"
             style="fill:none;stroke:#034ec9;stroke-width:100;stroke-linecap:round;stroke-linejoin:miter;stroke-miterlimit:10;stroke-dasharray:none;stroke-opacity:1"
             d="m 3498.6,6068.52 c 0,0 -168.76,319.81 149.47,527.41 318.23,207.59 548.4,-72.16 548.4,-72.16" /><path
             id="path32"
             style="fill:none;stroke:#ee4023;stroke-width:100;stroke-linecap:round;stroke-linejoin:miter;stroke-miterlimit:10;stroke-dasharray:none;stroke-opacity:1"
             d="m 2500.68,5202.62 c 0,0 -296.55,-206.77 -541.73,83.54 -245.19,290.31 4.04,553.1 4.04,553.1" /><path
             id="path34"
             style="fill:none;stroke:#034ec9;stroke-width:100;stroke-linecap:round;stroke-linejoin:miter;stroke-miterlimit:10;stroke-dasharray:none;stroke-opacity:1"
             d="m 2292.06,4086.92 c 0,0 246.16,264.74 547.19,32.79 301.03,-231.97 112.97,-541.48 112.97,-541.48" /><path
             id="path36"
             style="fill:none;stroke:#034ec9;stroke-width:100;stroke-linecap:round;stroke-linejoin:miter;stroke-miterlimit:10;stroke-dasharray:none;stroke-opacity:1"
             d="m 2310.08,7149.18 c 0,0 211.72,-293.08 -74.42,-543.14 -286.14,-250.06 -553.08,-5.24 -553.08,-5.24" /><path
             id="path38"
             style="fill:none;stroke:#ee4023;stroke-width:100;stroke-linecap:round;stroke-linejoin:miter;stroke-miterlimit:10;stroke-dasharray:none;stroke-opacity:1"
             d="m 3499.47,7906.57 c 0,0 279.85,-228.9 67.54,-544.07 -212.33,-315.18 -533.16,-147.11 -533.16,-147.11" /><path
             id="path40"
             style="fill:none;stroke:#ee4023;stroke-width:100;stroke-linecap:round;stroke-linejoin:miter;stroke-miterlimit:10;stroke-dasharray:none;stroke-opacity:1"
             d="m 3143.52,8263.29 c 0,0 -185.39,310.37 121.46,534.5 306.86,224.14 551.46,-43 551.46,-43" /><path
             id="path42"
             style="fill:none;stroke:#034ec9;stroke-width:100;stroke-linecap:round;stroke-linejoin:miter;stroke-miterlimit:10;stroke-dasharray:none;stroke-opacity:1"
             d="m 4558.09,7906.57 c 0,0 -321.7,165.15 -180.13,517.74 141.56,352.59 490.58,255.48 490.58,255.48" /><path
             id="path44"
             style="fill:none;stroke:#ee4023;stroke-width:100;stroke-linecap:round;stroke-linejoin:miter;stroke-miterlimit:10;stroke-dasharray:none;stroke-opacity:1"
             d="m 6154.86,8590.52 c 0,0 258.56,-252.79 19.17,-547.84 -239.39,-295.04 -544.15,-99.19 -544.15,-99.19" /><path
             id="path46"
             style="fill:none;stroke:#034ec9;stroke-width:100;stroke-linecap:round;stroke-linejoin:miter;stroke-miterlimit:10;stroke-dasharray:none;stroke-opacity:1"
             d="m 2440.75,8007.38 c 0,0 -360.81,-22.67 -419.55,352.77 -58.74,375.43 290.73,470.54 290.73,470.54" /><path
             id="path48"
             style="fill:none;stroke:#034ec9;stroke-width:100;stroke-linecap:round;stroke-linejoin:miter;stroke-miterlimit:10;stroke-dasharray:none;stroke-opacity:1"
             d="m 1117.9,-682.738 c 0,0 -351.056,-86.391 -475.517,272.64 -124.461,359.0394 202.582,514.707 202.582,514.707" /><path
             id="path50"
             style="fill:none;stroke:#034ec9;stroke-width:100;stroke-linecap:round;stroke-linejoin:miter;stroke-miterlimit:10;stroke-dasharray:none;stroke-opacity:1"
             d="m 2026.66,2629.21 c 0,0 139.96,333.37 502.35,219.27 362.38,-114.1 292.35,-469.49 292.35,-469.49" /><path
             id="path52"
             style="fill:none;stroke:#ee4023;stroke-width:100;stroke-linecap:round;stroke-linejoin:miter;stroke-miterlimit:10;stroke-dasharray:none;stroke-opacity:1"
             d="m 1765.6,3392.6 c 0,0 -355.62,-65.54 -458.75,300.14 -103.12,365.69 232.6,501.8 232.6,501.8" /><path
             id="path54"
             style="fill:none;stroke:#ee4023;stroke-width:100;stroke-linecap:round;stroke-linejoin:miter;stroke-miterlimit:10;stroke-dasharray:none;stroke-opacity:1"
             d="m 806.418,1880.49 c 0,0 191.207,-306.92 -111.344,-536.76 -302.547,-229.83 -552.148,32.74 -552.148,32.74" /><path
             id="path56"
             style="fill:none;stroke:#ee4023;stroke-width:100;stroke-linecap:round;stroke-linejoin:miter;stroke-miterlimit:10;stroke-dasharray:none;stroke-opacity:1"
             d="m 251.441,460.441 c 0,0 -210.8668,-293.761 -538.668,-101.66 -327.808,192.11 -180.199,522.938 -180.199,522.938" /><path
             id="path58"
             style="fill:none;stroke:#ee4023;stroke-width:100;stroke-linecap:round;stroke-linejoin:miter;stroke-miterlimit:10;stroke-dasharray:none;stroke-opacity:1"
             d="m 3826.31,1637.46 c 0,0 -352.33,81.38 -301.38,457.9 50.95,376.52 413.11,367.8 413.11,367.8" /><path
             id="path60"
             style="fill:none;stroke:#ee4023;stroke-width:100;stroke-linecap:round;stroke-linejoin:miter;stroke-miterlimit:10;stroke-dasharray:none;stroke-opacity:1"
             d="m 2224.25,161.172 c 0,0 168.76,-319.813 -149.47,-527.41 -318.23,-207.59 -548.4,72.16 -548.4,72.16" /><path
             id="path62"
             style="fill:none;stroke:#034ec9;stroke-width:100;stroke-linecap:round;stroke-linejoin:miter;stroke-miterlimit:10;stroke-dasharray:none;stroke-opacity:1"
             d="m 1026.84,2658 c 0,0 -195.238,-304.37 -532.617,-129.68 -337.383,174.7 -207.262,512.78 -207.262,512.78" /><path
             id="path64"
             style="fill:none;stroke:#ee4023;stroke-width:100;stroke-linecap:round;stroke-linejoin:miter;stroke-miterlimit:10;stroke-dasharray:none;stroke-opacity:1"
             d="m 2504.77,1219.07 c 0,0 192.12,306.25 531.29,134.89 339.17,-171.35 212.5,-510.671 212.5,-510.671" /><path
             id="path66"
             style="fill:none;stroke:#ee4023;stroke-width:100;stroke-linecap:round;stroke-linejoin:miter;stroke-miterlimit:10;stroke-dasharray:none;stroke-opacity:1"
             d="m 853.309,6849.7 c 0,0 -164.559,321.91 156.411,525.34 320.96,203.42 547.46,-79.23 547.46,-79.23" /><path
             id="path68"
             style="fill:none;stroke:#034ec9;stroke-width:100;stroke-linecap:round;stroke-linejoin:miter;stroke-miterlimit:10;stroke-dasharray:none;stroke-opacity:1"
             d="m -403.449,6881.36 c 0,0 280.699,227.8 546.41,-43.9 265.719,-271.7 36.301,-551.93 36.301,-551.93" /><path
             id="path70"
             style="fill:none;stroke:#ee4023;stroke-width:100;stroke-linecap:round;stroke-linejoin:miter;stroke-miterlimit:10;stroke-dasharray:none;stroke-opacity:1"
             d="m 714.078,8005.92 c 0,0 -278.918,229.99 -65.277,544.25 213.64,314.25 533.799,144.9 533.799,144.9" /><path
             id="path72"
             style="fill:none;stroke:#ee4023;stroke-width:100;stroke-linecap:round;stroke-linejoin:miter;stroke-miterlimit:10;stroke-dasharray:none;stroke-opacity:1"
             d="m -745.484,7700.73 c 0,0 33.929,359.93 413.929,359.36 379.9925,-0.59 419.3988,-360.61 419.3988,-360.61" /><path
             id="path74"
             style="fill:none;stroke:#034ec9;stroke-width:100;stroke-linecap:round;stroke-linejoin:miter;stroke-miterlimit:10;stroke-dasharray:none;stroke-opacity:1"
             d="m 1004.29,4794.15 c 0,0 -352.685,79.67 -303.532,456.4 49.14,376.73 411.302,369.76 411.302,369.76" /><path
             id="path76"
             style="fill:none;stroke:#ee4023;stroke-width:100;stroke-linecap:round;stroke-linejoin:miter;stroke-miterlimit:10;stroke-dasharray:none;stroke-opacity:1"
             d="m 214.199,4761.62 c 0,0 -341.551,-118.44 -498.699,227.58 -157.148,346.02 154.078,531.23 154.078,531.23" /><path
             id="path78"
             style="fill:none;stroke:#ee4023;stroke-width:100;stroke-linecap:round;stroke-linejoin:miter;stroke-miterlimit:10;stroke-dasharray:none;stroke-opacity:1"
             d="m -308.094,3274.52 c 0,0 -183.64,311.39 124.481,533.85 308.109,222.46 551.199,-45.99 551.199,-45.99" /><path
             id="path80"
             style="fill:none;stroke:#034ec9;stroke-width:100;stroke-linecap:round;stroke-linejoin:miter;stroke-miterlimit:10;stroke-dasharray:none;stroke-opacity:1"
             d="m 5684.26,715.27 c 0,0 246.16,264.75 547.19,32.792 301.03,-231.96 112.97,-541.472 112.97,-541.472" /><path
             id="path82"
             style="fill:none;stroke:#ee4023;stroke-width:100;stroke-linecap:round;stroke-linejoin:miter;stroke-miterlimit:10;stroke-dasharray:none;stroke-opacity:1"
             d="m 5072.23,429.242 c 0,0 -352.68,79.68 -303.53,456.399 49.14,376.729 411.3,369.759 411.3,369.759" /><path
             id="path84"
             style="fill:none;stroke:#034ec9;stroke-width:100;stroke-linecap:round;stroke-linejoin:miter;stroke-miterlimit:10;stroke-dasharray:none;stroke-opacity:1"
             d="m 4194.52,-65.418 c 0,0 -341.55,-118.441 -498.7,227.578 -157.15,346.02 154.08,531.231 154.08,531.231" /><path
             id="path86"
             style="fill:none;stroke:#034ec9;stroke-width:100;stroke-linecap:round;stroke-linejoin:miter;stroke-miterlimit:10;stroke-dasharray:none;stroke-opacity:1"
             d="m 5142.04,2552.3 c 0,0 232.67,-276.73 -34.3,-547.18 -266.97,-270.44 -551.16,-45.91 -551.16,-45.91" /><path
             id="path88"
             style="fill:none;stroke:#ee4023;stroke-width:100;stroke-linecap:round;stroke-linejoin:miter;stroke-miterlimit:10;stroke-dasharray:none;stroke-opacity:1"
             d="m 5586.7,3062.25 c 0,0 308.25,188.93 535.99,-115.28 227.75,-304.22 -36.55,-551.86 -36.55,-551.86" /><path
             id="path90"
             style="fill:none;stroke:#ee4023;stroke-width:100;stroke-linecap:round;stroke-linejoin:miter;stroke-miterlimit:10;stroke-dasharray:none;stroke-opacity:1"
             d="m 5355.25,4624.16 c 0,0 358.61,-46.02 345.36,-425.81 -13.25,-379.78 -374.41,-407.06 -374.41,-407.06" /><path
             id="path92"
             style="fill:none;stroke:#ee4023;stroke-width:100;stroke-linecap:round;stroke-linejoin:miter;stroke-miterlimit:10;stroke-dasharray:none;stroke-opacity:1"
             d="m 3764.36,3439.21 c 0,0 195.24,304.37 532.62,129.68 337.38,-174.7 207.26,-512.78 207.26,-512.78" /><path
             id="path94"
             style="fill:none;stroke:#034ec9;stroke-width:100;stroke-linecap:round;stroke-linejoin:miter;stroke-miterlimit:10;stroke-dasharray:none;stroke-opacity:1"
             d="m 4629.54,4333.26 c 0,0 -354.45,-71.62 -463.78,292.26 -109.33,363.88 224.02,505.72 224.02,505.72" /><path
             id="path96"
             style="fill:none;stroke:#ee4023;stroke-width:100;stroke-linecap:round;stroke-linejoin:miter;stroke-miterlimit:10;stroke-dasharray:none;stroke-opacity:1"
             d="m 1696.08,992.449 c 0,0 -306.5,191.741 -135.55,531.111 170.94,339.37 510.43,213.13 510.43,213.13" /></g></g></g></g></svg>