<?xml version="1.0" encoding="UTF-8" standalone="no"?>
<svg
   xmlns:dc="http://purl.org/dc/elements/1.1/"
   xmlns:cc="http://creativecommons.org/ns#"
   xmlns:rdf="http://www.w3.org/1999/02/22-rdf-syntax-ns#"
   xmlns:svg="http://www.w3.org/2000/svg"
   xmlns="http://www.w3.org/2000/svg"
   viewBox="0 0 793.70667 1122.52"
   height="1122.52"
   width="793.70667"
   xml:space="preserve"
   id="svg2"
   version="1.1"><metadata
     id="metadata8"><rdf:RDF><cc:Work
         rdf:about=""><dc:format>image/svg+xml</dc:format><dc:type
           rdf:resource="http://purl.org/dc/dcmitype/StillImage" /></cc:Work></rdf:RDF></metadata><defs
     id="defs6"><clipPath
       id="clipPath20"
       clipPathUnits="userSpaceOnUse"><path
         id="path18"
         d="M 0,8418.9 V 0 h 5952.76 v 8418.9 z" /></clipPath></defs><g
     transform="matrix(1.3333333,0,0,-1.3333333,0,1122.52)"
     id="g10"><g
       transform="scale(0.1)"
       id="g12"><g
         id="g14"><g
           clip-path="url(#clipPath20)"
           id="g16"><path
             id="path22"
             style="fill:#ffffff;fill-opacity:1;fill-rule:nonzero;stroke:none"
             d="m 3953.71,6343.09 869.88,1270.8 272.31,-186.39 -869.88,-1270.8 -272.31,186.39" /><path
             id="path24"
             style="fill:none;stroke:#034ec9;stroke-width:60;stroke-linecap:butt;stroke-linejoin:round;stroke-miterlimit:10;stroke-dasharray:none;stroke-opacity:1"
             d="M 3953.71,6343.09 4823.59,7613.89 5095.9,7427.5 4226.02,6156.7 Z" /><path
             id="path26"
             style="fill:#ffffff;fill-opacity:1;fill-rule:nonzero;stroke:none"
             d="m 2277.39,5003.96 -703.93,-1369.72 -293.52,150.87 703.93,1369.72 293.52,-150.87" /><path
             id="path28"
             style="fill:none;stroke:#034ec9;stroke-width:60;stroke-linecap:butt;stroke-linejoin:round;stroke-miterlimit:10;stroke-dasharray:none;stroke-opacity:1"
             d="m 2277.39,5003.96 -703.93,-1369.72 -293.52,150.87 703.93,1369.72 z" /><path
             id="path30"
             style="fill:#ffffff;fill-opacity:1;fill-rule:nonzero;stroke:none"
             d="m 2861.55,6481.6 -1351.18,-738.87 -158.33,289.53 1351.18,738.87 158.33,-289.53" /><path
             id="path32"
             style="fill:none;stroke:#ee4023;stroke-width:60;stroke-linecap:butt;stroke-linejoin:round;stroke-miterlimit:10;stroke-dasharray:none;stroke-opacity:1"
             d="m 2861.55,6481.6 -1351.18,-738.87 -158.33,289.53 1351.18,738.87 z" /><path
             id="path34"
             style="fill:#ffffff;fill-opacity:1;fill-rule:nonzero;stroke:none"
             d="m 2862.94,4208.23 -1475.96,439.51 94.18,316.28 1475.96,-439.51 -94.18,-316.28" /><path
             id="path36"
             style="fill:none;stroke:#ee4023;stroke-width:60;stroke-linecap:butt;stroke-linejoin:round;stroke-miterlimit:10;stroke-dasharray:none;stroke-opacity:1"
             d="m 2862.94,4208.23 -1475.96,439.51 94.18,316.28 1475.96,-439.51 z" /><path
             id="path38"
             style="fill:#ffffff;fill-opacity:1;fill-rule:nonzero;stroke:none"
             d="m 233.746,2852.21 -1539.676,31.77 6.81,329.93 1539.679,-31.77 -6.813,-329.93" /><path
             id="path40"
             style="fill:none;stroke:#ee4023;stroke-width:60;stroke-linecap:butt;stroke-linejoin:round;stroke-miterlimit:10;stroke-dasharray:none;stroke-opacity:1"
             d="m 233.746,2852.21 -1539.676,31.77 6.81,329.93 1539.679,-31.77 z" /><path
             id="path42"
             style="fill:#ffffff;fill-opacity:1;fill-rule:nonzero;stroke:none"
             d="M 4735.69,5646.12 3953.7,6972.8 4237.99,7140.36 5019.98,5813.69 4735.69,5646.12" /><path
             id="path44"
             style="fill:none;stroke:#034ec9;stroke-width:60;stroke-linecap:butt;stroke-linejoin:round;stroke-miterlimit:10;stroke-dasharray:none;stroke-opacity:1"
             d="M 4735.69,5646.12 3953.7,6972.8 4237.99,7140.36 5019.98,5813.69 Z" /><path
             id="path46"
             style="fill:#ffffff;fill-opacity:1;fill-rule:nonzero;stroke:none"
             d="m 3184.48,7613.89 -881,1263.11 270.67,188.78 881,-1263.1 -270.67,-188.79" /><path
             id="path48"
             style="fill:none;stroke:#ee4023;stroke-width:60;stroke-linecap:round;stroke-linejoin:round;stroke-miterlimit:10;stroke-dasharray:none;stroke-opacity:1"
             d="m 3184.48,7613.89 -881,1263.11 270.67,188.78 881,-1263.1 z" /><path
             id="path50"
             style="fill:#ffffff;fill-opacity:1;fill-rule:nonzero;stroke:none"
             d="m 3157.93,2302.27 936.3,1222.76 262,-200.64 -936.3,-1222.76 -262,200.64" /><path
             id="path52"
             style="fill:none;stroke:#ee4023;stroke-width:60;stroke-linecap:butt;stroke-linejoin:round;stroke-miterlimit:10;stroke-dasharray:none;stroke-opacity:1"
             d="m 3157.93,2302.27 936.3,1222.76 262,-200.64 -936.3,-1222.76 z" /><path
             id="path54"
             style="fill:#ffffff;fill-opacity:1;fill-rule:nonzero;stroke:none"
             d="M 2231.52,22.4219 3551.18,816.32 3721.28,533.539 2401.62,-260.359 2231.52,22.4219" /><path
             id="path56"
             style="fill:none;stroke:#ee4023;stroke-width:60;stroke-linecap:butt;stroke-linejoin:round;stroke-miterlimit:10;stroke-dasharray:none;stroke-opacity:1"
             d="M 2231.52,22.4219 3551.18,816.32 3721.28,533.539 2401.62,-260.359 Z" /><path
             id="path58"
             style="fill:#ffffff;fill-opacity:1;fill-rule:nonzero;stroke:none"
             d="M -279.816,1171.1 1209.95,780.762 1126.3,461.539 -363.465,851.879 -279.816,1171.1" /><path
             id="path60"
             style="fill:none;stroke:#ee4023;stroke-width:60;stroke-linecap:butt;stroke-linejoin:round;stroke-miterlimit:10;stroke-dasharray:none;stroke-opacity:1"
             d="M -279.816,1171.1 1209.95,780.762 1126.3,461.539 -363.465,851.879 Z" /><path
             id="path62"
             style="fill:#ffffff;fill-opacity:1;fill-rule:nonzero;stroke:none"
             d="M 990.766,652.711 129.219,-623.801 -144.301,-439.188 717.246,837.332 990.766,652.711" /><path
             id="path64"
             style="fill:none;stroke:#034ec9;stroke-width:60;stroke-linecap:butt;stroke-linejoin:round;stroke-miterlimit:10;stroke-dasharray:none;stroke-opacity:1"
             d="M 990.766,652.711 129.219,-623.801 -144.301,-439.188 717.246,837.332 Z" /><path
             id="path66"
             style="fill:#ffffff;fill-opacity:1;fill-rule:nonzero;stroke:none"
             d="M 856.91,4415.8 2384.1,4614.47 2426.67,4287.26 899.48,4088.58 856.91,4415.8" /><path
             id="path68"
             style="fill:none;stroke:#ee4023;stroke-width:60;stroke-linecap:butt;stroke-linejoin:round;stroke-miterlimit:10;stroke-dasharray:none;stroke-opacity:1"
             d="M 856.91,4415.8 2384.1,4614.47 2426.67,4287.26 899.48,4088.58 Z" /><path
             id="path70"
             style="fill:#ffffff;fill-opacity:1;fill-rule:nonzero;stroke:none"
             d="m 1031.3,2549.21 1371.2,-701.14 -150.22,-293.8 -1371.198,701.14 150.218,293.8" /><path
             id="path72"
             style="fill:none;stroke:#034ec9;stroke-width:60;stroke-linecap:butt;stroke-linejoin:round;stroke-miterlimit:10;stroke-dasharray:none;stroke-opacity:1"
             d="M 1031.3,2549.21 2402.5,1848.07 2252.28,1554.27 881.082,2255.41 Z" /><path
             id="path74"
             style="fill:#ffffff;fill-opacity:1;fill-rule:nonzero;stroke:none"
             d="M 5414.91,1825.2 6491.47,2926.5 6727.43,2695.85 5650.87,1594.55 5414.91,1825.2" /><path
             id="path76"
             style="fill:none;stroke:#034ec9;stroke-width:60;stroke-linecap:butt;stroke-linejoin:round;stroke-miterlimit:10;stroke-dasharray:none;stroke-opacity:1"
             d="M 5414.91,1825.2 6491.47,2926.5 6727.43,2695.85 5650.87,1594.55 Z" /><path
             id="path78"
             style="fill:#ffffff;fill-opacity:1;fill-rule:nonzero;stroke:none"
             d="M 4034.76,1486.31 5479.57,953.07 5365.33,643.512 3920.52,1176.75 l 114.24,309.56" /><path
             id="path80"
             style="fill:none;stroke:#ee4023;stroke-width:60;stroke-linecap:butt;stroke-linejoin:round;stroke-miterlimit:10;stroke-dasharray:none;stroke-opacity:1"
             d="M 4034.76,1486.31 5479.57,953.07 5365.33,643.512 3920.52,1176.75 Z" /><path
             id="path82"
             style="fill:#ffffff;fill-opacity:1;fill-rule:nonzero;stroke:none"
             d="m 5693.95,8207.73 1444.81,-533.24 -114.24,-309.56 -1444.81,533.24 114.24,309.56" /><path
             id="path84"
             style="fill:none;stroke:#ee4023;stroke-width:60;stroke-linecap:butt;stroke-linejoin:round;stroke-miterlimit:10;stroke-dasharray:none;stroke-opacity:1"
             d="M 5693.95,8207.73 7138.76,7674.49 7024.52,7364.93 5579.71,7898.17 Z" /><path
             id="path86"
             style="fill:#ffffff;fill-opacity:1;fill-rule:nonzero;stroke:none"
             d="m 3935.95,3923.61 -27.83,-1539.79 -329.91,5.97 27.82,1539.79 329.92,-5.97" /><path
             id="path88"
             style="fill:none;stroke:#ee4023;stroke-width:60;stroke-linecap:butt;stroke-linejoin:round;stroke-miterlimit:10;stroke-dasharray:none;stroke-opacity:1"
             d="m 3935.95,3923.61 -27.83,-1539.79 -329.91,5.97 27.82,1539.79 z" /><path
             id="path90"
             style="fill:#ffffff;fill-opacity:1;fill-rule:nonzero;stroke:none"
             d="m 863.035,7760.15 -675.078,-1384.2 -296.57,144.65 675.07,1384.2 296.578,-144.65" /><path
             id="path92"
             style="fill:none;stroke:#ee4023;stroke-width:60;stroke-linecap:butt;stroke-linejoin:round;stroke-miterlimit:10;stroke-dasharray:none;stroke-opacity:1"
             d="m 863.035,7760.15 -675.078,-1384.2 -296.57,144.65 675.07,1384.2 z" /><path
             id="path94"
             style="fill:#ffffff;fill-opacity:1;fill-rule:nonzero;stroke:none"
             d="m 4784.43,4456.02 1500.36,347.43 74.45,-321.45 -1500.36,-347.43 -74.45,321.45" /><path
             id="path96"
             style="fill:none;stroke:#034ec9;stroke-width:60;stroke-linecap:butt;stroke-linejoin:round;stroke-miterlimit:10;stroke-dasharray:none;stroke-opacity:1"
             d="M 4784.43,4456.02 6284.79,4803.45 6359.24,4482 4858.88,4134.57 Z" /><path
             id="path98"
             style="fill:#ffffff;fill-opacity:1;fill-rule:nonzero;stroke:none"
             d="m 3435.31,5290.63 -1218.74,941.43 201.73,261.16 1218.74,-941.43 -201.73,-261.16" /><path
             id="path100"
             style="fill:none;stroke:#034ec9;stroke-width:60;stroke-linecap:butt;stroke-linejoin:round;stroke-miterlimit:10;stroke-dasharray:none;stroke-opacity:1"
             d="m 3435.31,5290.63 -1218.74,941.43 201.73,261.16 1218.74,-941.43 z" /><path
             id="path102"
             style="fill:#ffffff;fill-opacity:1;fill-rule:nonzero;stroke:none"
             d="m -298.871,8260.17 870.027,-1270.7 -272.281,-186.43 -870.039,1270.69 272.293,186.44" /><path
             id="path104"
             style="fill:none;stroke:#034ec9;stroke-width:60;stroke-linecap:butt;stroke-linejoin:round;stroke-miterlimit:10;stroke-dasharray:none;stroke-opacity:1"
             d="M -298.871,8260.17 571.156,6989.47 298.875,6803.04 -571.164,8073.73 Z" /></g></g></g></g></svg>