<?xml version="1.0" encoding="UTF-8" standalone="no"?>
<svg
   xmlns:dc="http://purl.org/dc/elements/1.1/"
   xmlns:cc="http://creativecommons.org/ns#"
   xmlns:rdf="http://www.w3.org/1999/02/22-rdf-syntax-ns#"
   xmlns:svg="http://www.w3.org/2000/svg"
   xmlns="http://www.w3.org/2000/svg"
   viewBox="0 0 793.70667 1122.52"
   height="1122.52"
   width="793.70667"
   xml:space="preserve"
   id="svg2"
   version="1.1"><metadata
     id="metadata8"><rdf:RDF><cc:Work
         rdf:about=""><dc:format>image/svg+xml</dc:format><dc:type
           rdf:resource="http://purl.org/dc/dcmitype/StillImage" /></cc:Work></rdf:RDF></metadata><defs
     id="defs6"><clipPath
       id="clipPath20"
       clipPathUnits="userSpaceOnUse"><path
         id="path18"
         d="M 0,8418.9 V 0 h 5952.76 v 8418.9 z" /></clipPath></defs><g
     transform="matrix(1.3333333,0,0,-1.3333333,0,1122.52)"
     id="g10"><g
       transform="scale(0.1)"
       id="g12"><g
         id="g14"><g
           clip-path="url(#clipPath20)"
           id="g16"><path
             id="path22"
             style="fill:#ee4023;fill-opacity:1;fill-rule:nonzero;stroke:none"
             d="m 731.348,1577.12 c 14.41,0.94 27.765,0.6 40.679,2.85 44.078,7.67 55.586,31.32 35.676,71.54 l -1.133,2.03 c -25.371,44.04 -56.097,83.82 -94.64,117.13 -35.438,30.64 -76.848,42.76 -123.246,36.69 -36.434,-4.77 -68.84,-18.87 -94.692,-45.5 -32.719,-33.72 -31.804,-72.24 2.516,-104.03 9.59,-8.89 20.418,-16.9 31.832,-23.27 63.418,-35.41 131.918,-53.04 203.008,-57.44" /><path
             id="path24"
             style="fill:#ee4023;fill-opacity:1;fill-rule:nonzero;stroke:none"
             d="m 3550.97,6613.72 c -1.12,37.47 -3.75,74.82 -14.63,110.72 -29.99,98.93 -66.96,195.34 -113.61,287.62 -13.13,25.97 -31.05,50.49 -50.82,71.96 -47.02,51.13 -105.86,68.23 -173.79,51.68 -67.83,-16.52 -127.99,-48.13 -178.44,-96.19 -18.31,-17.43 -34.6,-38.25 -47.16,-60.19 -43.31,-75.64 -29.28,-148.13 37.31,-204.05 22,-18.49 43.02,-38.53 66.75,-54.52 66.97,-45.14 134.86,-88.94 202.91,-132.45 34.09,-21.79 62.4,-48.68 82.05,-84.1 10.53,-18.95 13.36,-39.35 8.97,-60.91 -3.9,-19.12 -12.68,-33.7 -29.07,-45.51 -10.92,-7.89 -20.02,-20.04 -26.39,-32.15 -16.94,-32.2 -33.54,-64.77 -47.35,-98.39 -15.8,-38.46 -21.72,-79.26 -19.22,-121.01 2.11,-35.17 10.62,-69 21.96,-102.15 49.86,-145.77 110.61,-286.69 187.29,-420.52 45.91,-80.13 78.14,-165.14 95.29,-256.28 6.83,-36.32 17.19,-72.95 32.35,-106.54 32.65,-72.29 90.72,-85.98 152.41,-36.6 24.54,19.64 46.96,43.56 65.17,69.2 64.31,90.6 110.45,190.65 143.78,296.37 16.29,51.7 21.84,105.34 10.34,158.89 -7.32,34.01 -18.16,67.34 -28.84,100.51 -3.57,11.09 -4.5,20.01 0.59,30.93 13.42,28.85 25.55,58.29 38.07,87.54 34.63,80.99 75.5,158.55 129.78,228.23 16.12,20.69 34.64,39.99 54.4,57.27 31.37,27.44 68.96,34.72 109.21,24.55 19.5,-4.94 38.55,-11.86 57.49,-18.75 31.35,-11.43 62.13,-24.5 93.73,-35.21 65.76,-22.28 130.11,-16.82 192.5,13.04 58.05,27.78 109.7,64.64 154.52,110.84 9.7,9.99 18.65,20.95 26.48,32.47 32.76,48.19 28.34,87.27 -15.1,125.8 -16.21,14.39 -34,27.26 -52.22,39.02 -94.89,61.31 -182.99,131.52 -269.01,204.41 -41.51,35.18 -82.74,70.72 -115.89,114.48 -34.54,45.6 -46.84,95.57 -31.2,151.42 7.54,26.91 15.48,53.72 22.28,80.81 6.68,26.58 11.96,54.28 1.42,80.38 -9.31,23.01 -10.59,46.44 -12.98,70.27 -3.21,32.04 -16.59,59.76 -40.13,81.93 -29.66,27.94 -65.33,32.84 -100.72,12.68 -14.02,-7.99 -27.4,-18.07 -38.81,-29.47 -53.89,-53.93 -87.69,-118.59 -95.9,-194.71 -4.9,-45.34 -16.47,-87.73 -35.92,-129.1 -30.58,-65.06 -64.99,-126.66 -115.46,-179.15 -68.79,-71.55 -126.19,-151.57 -168.02,-242.18 -5.83,-12.63 -13.64,-24.45 -21.51,-35.97 -5.67,-8.27 -12.33,-16.1 -19.63,-22.98 -22.63,-21.33 -49.08,-30.27 -79.24,-19.2 -29.56,10.86 -43.25,34.73 -45.67,64.71 -1.63,20.07 -0.32,40.35 -0.32,60.55" /><path
             id="path26"
             style="fill:#ee4023;fill-opacity:1;fill-rule:nonzero;stroke:none"
             d="m -334.633,3286.22 c 13.016,-26.91 26.656,-53.49 41.344,-79.52 31.621,-56.1 65.562,-110.8 99.992,-165.21 4.246,-6.72 8.52,-13.47 12.805,-20.24 6.715,-3.21 13.422,-6.45 20.211,-9.48 78.0779,-34.97 155.90209,-70.72 235.2966,-102.46 56.1564,-22.45 115.6364,-33.56 176.7894,-33.22 55.117,0.31 106.894,14.4 146.691,52.1 87.43,82.88 122.52,185.89 101.281,305.19 -7.425,41.68 -31.664,76.18 -67.886,98.91 -25.317,15.9 -52.418,30.48 -80.629,40.02 -121.465,41.06 -246.11,68.93 -373.7503,82.14 -27.457,2.84 -55.4453,2.88 -83.0277,1.38 -92.539,-5 -162.886,-47.14 -208.007,-128.91 -7.391,-13.36 -14.313,-27.01 -21.11,-40.7" /><path
             id="path28"
             style="fill:#ee4023;fill-opacity:1;fill-rule:nonzero;stroke:none"
             d="m 4561.2,841.652 c 9.32,0 18.68,-0.562 27.95,0.09 61.44,4.297 121,18.5 180.16,34.738 84.05,23.059 164.26,56.571 244.53,89.942 52.5,21.828 106.3,39.848 163.08,45.798 47.04,4.93 94.4,6.69 141.55,10.7 61.01,5.19 119.72,19.48 172.07,52.39 18.82,11.83 36.59,26.6 51.51,43.03 20.74,22.87 22.02,47.69 3.87,72.47 -13.62,18.61 -30.09,35.7 -47.64,50.73 -52.33,44.78 -111.24,79.14 -174.89,105.45 -65.47,27.04 -133.66,45.41 -201.92,63.47 -67.52,17.86 -135.4,34.23 -205.45,38.83 -38.7,2.54 -77.43,4.54 -116.12,7.37 -28.59,2.1 -57.3,3.86 -85.64,8.02 -57.46,8.43 -111.02,29.55 -162.29,55.82 -134.04,68.62 -272.73,128.71 -397.76,214.05 -32.69,22.32 -64.9,21.79 -98.11,1.32 -40.8,-25.15 -76.64,-55.78 -105.84,-93.79 -15.78,-20.52 -27.29,-43.13 -30.34,-69.57 -5.09,-44.2 10.88,-80.64 39.77,-112.66 29.57,-32.77 65.06,-58.12 104.29,-77.3 56.47,-27.6 114.24,-52.55 171.22,-79.12 37.27,-17.38 74.6,-34.75 110.98,-53.91 14.83,-7.81 28.55,-19.01 40.32,-31.06 16.31,-16.72 16.63,-34.71 0.76,-51.99 -11.93,-12.98 -25.7,-25.49 -41.04,-33.86 -34.67,-18.97 -69.89,-37.59 -106.54,-52.23 -139.85,-55.82 -280.6,-109.38 -420.53,-165.028 -86.53,-34.403 -175.16,-57.641 -268.67,-60.961 -23.96,-0.852 -47.78,-5.219 -71.73,-6.922 -51.01,-3.59 -101.45,-14.938 -153.03,-10.938 -8.38,0.649 -17.01,-1.019 -25.44,-2.211 -42.05,-5.898 -80.86,-21.828 -118.71,-39.961 -52.16,-24.98 -105.83,-44.207 -163.44,-52.359 -29.98,-4.258 -59.43,-12.031 -86.23,-27.078 -38.2,-21.453 -65.97,-51.633 -76.42,-95.211 -12.7,-52.93 18.32,-94.219 72.69,-94.121 21.33,0.039 42.91,5.75 63.89,10.859 18.79,4.582 36.91,11.852 55.31,17.992 42.08,14.051 81.48,8.391 117.31,-17.461 18.86,-13.609 36.64,-28.757 54.38,-43.839 28.99,-24.672 56.62,-50.981 86.45,-74.551 61.47,-48.629 129.75,-81.981 209.55,-87.32 21.62,-1.45 43.57,-1.958 64.74,-6.098 82.6,-16.152 162.63,-39.203 235.61,-83.621 76.34,-46.449 158.17,-55.871 244.27,-30.11 38.62,11.559 77.82,21.5 117.17,30.309 41.38,9.25 80.29,1.121 115.7,-22.488 70.61,-47.09 125.55,-108.36 165.16,-183.3518 12.69,-24.0196 23.95,-48.8594 37.45,-72.3985 37.27,-65.0117 96.64,-92.4497 171.09,-80.2497 86.4,14.16 157.29,56.2497 214.28,121.64034 14.06,16.14846 25.72,35.29686 34.63,54.82816 17.89,39.1992 11.72,76.3785 -18.71,107.3205 -14.58,14.828 -30.72,29.39 -48.8,39.219 -36.04,19.601 -72.82,38.699 -111.18,52.929 -131.57,48.821 -267.92,72.813 -408.44,69.602 -57.21,-1.301 -108.82,13.379 -156.55,44.32 -38.46,24.918 -77.88,48.391 -116.06,73.731 -32.99,21.91 -65.67,44.46 -96.84,68.839 -16.9,13.211 -32.02,29.559 -44.98,46.75 -16.64,22.09 -18.76,47.641 -5.35,72.481 6.92,12.82 14.77,26.109 25.34,35.769 17.66,16.149 36.78,31.25 57.14,43.801 57.19,35.258 119.51,59.399 183.37,79.481 88.28,27.746 179.15,44.187 269.99,60.507 7.26,1.301 15.48,0.071 22.73,-1.91 30.94,-8.468 62.29,-12.859 94.38,-10.918" /><path
             id="path30"
             style="fill:#ee4023;fill-opacity:1;fill-rule:nonzero;stroke:none"
             d="m 2923.68,7612.78 c -8.19,4.48 -15.36,9.25 -23.15,12.49 -19.29,8 -38.31,17.71 -58.44,22.39 -47.81,11.09 -95.6,7.97 -142.48,-6.92 -18.49,-5.86 -37.09,-11.43 -55.45,-17.69 -53.16,-18.13 -100.93,-9.21 -143.36,27.75 -4.11,3.57 -8.67,6.66 -12.47,10.51 -31.67,32.03 -64.35,63.17 -94.45,96.62 -26.94,29.94 -52.34,61.53 -76.03,94.14 -26.3,36.24 -34.24,77.68 -25.31,121.88 2.15,10.65 5.31,21.09 7.52,31.71 6.45,31.12 15.02,62.03 18.45,93.5 7.23,66.61 -34.04,125.86 -97.19,143.68 -29.96,8.46 -60.2,7.49 -89.69,-0.88 -93.25,-26.44 -187.55,-50.04 -279.02,-81.72 -135.97,-47.09 -215.7,-149.32 -256.76,-283.86 -10.04,-32.91 -6.98,-66.54 10.54,-97.08 29.87,-52.07 75.34,-82.04 134.8,-88.18 16.79,-1.73 29.46,-6.78 40.83,-18.19 33.15,-33.22 73.22,-54.6 117.85,-68 15.61,-4.68 31.57,-8.34 46.85,-13.9 37.14,-13.51 75.12,-25.45 110.61,-42.49 43.78,-21.02 81.6,-51.16 109.7,-91.77 19.48,-28.13 27.41,-59.04 19.33,-92.88 -3.95,-16.56 -8.16,-33.2 -13.98,-49.16 -11.71,-32.06 -24.87,-63.59 -36.93,-95.51 -23.37,-61.83 -30.4,-125.44 -15.14,-189.96 8.9,-37.62 18.9,-75.63 34.25,-110.94 39.89,-91.75 82.47,-182.36 124.99,-272.94 35.35,-75.3 70.31,-150.85 84.91,-233.33 10.69,-60.33 17.7,-121.32 25.5,-182.12 9.79,-76.21 35.94,-146.01 81.06,-208.16 11.27,-15.52 25.15,-29.83 40.15,-41.79 22.59,-18.03 45.73,-17.55 68.29,0.61 13.78,11.1 26.39,24.22 37.37,38.15 48.65,61.79 91.6,127.44 126.78,197.8 52.69,105.44 85.68,217.79 113.35,331.84 14.81,61.11 18.73,122.69 4.45,184.64 -11.06,48.02 -27.3,94.01 -55.13,135.03 -18.24,26.89 -34.59,31.18 -63.86,17.28 -20.32,-9.66 -39.62,-21.44 -59.69,-31.65 -12.88,-6.56 -26.32,-12 -39,-17.71 -36.78,53.64 -36.88,103.5 -0.32,150.61 31.24,40.28 72.87,69.1 113.4,101.9 2.64,-9.82 3.97,-17.44 6.75,-24.49 5.39,-13.65 10.21,-27.84 17.81,-40.25 12.34,-20.1 26.57,-23.63 47.61,-12.66 11.62,6.04 22.79,13.57 32.79,22.06 23.67,20.1 46.43,41.3 69.74,61.85 39.03,34.41 77.35,69.71 117.57,102.69 36.59,29.98 78.94,49.38 126.17,56.38 19.2,2.85 38.73,3.39 57.86,6.52 20.57,3.36 41.67,6.31 61.09,13.4 36.67,13.38 57.04,41.28 62.28,80.14 3.88,28.55 -1.47,55.66 -12.36,81.9 -21.41,51.59 -58.56,89.32 -105.89,117.27 -56.48,33.36 -117.09,57.49 -180.21,74.82 -46.27,12.71 -92.19,13.68 -134.34,-15.33" /><path
             id="path32"
             style="fill:#ee4023;fill-opacity:1;fill-rule:nonzero;stroke:none"
             d="m 6400.74,3432.99 c -44.38,86.18 -86.16,173.95 -135.31,257.36 -73.06,123.96 -189.04,181.89 -329.05,195.52 -34.24,3.34 -66.59,-6.3 -93.07,-29.54 -45.12,-39.57 -65.51,-90.09 -59.76,-149.58 1.62,-16.81 -0.83,-30.22 -9.76,-43.63 -26,-39.07 -39.03,-82.58 -43.33,-128.96 -1.51,-16.24 -1.93,-32.62 -4.37,-48.7 -5.89,-39.07 -10.08,-78.66 -19.76,-116.82 -11.94,-47.09 -34,-90.12 -68.26,-125.72 -23.72,-24.65 -52.45,-38.53 -87.22,-37.32 -17.01,0.6 -34.15,1.44 -50.95,3.99 -33.74,5.14 -67.24,11.79 -100.94,17.31 -65.21,10.68 -128.97,4.99 -189.19,-22.74 -35.12,-16.16 -70.39,-33.5 -101.96,-55.54 -82.05,-57.25 -162.43,-116.91 -242.81,-176.51 -43.71,-32.39 -87.64,-64.49 -134.59,-91.46 -24.37,-20.09 -50.61,-37.11 -78.79,-49.59 -45.61,-42.17 -92.48,-83.62 -139.66,-125.7 -0.99,-0.89 -2.05,-1.64 -3.05,-2.5 -21.56,-30.97 -41.99,-62.69 -60.05,-95.95 -4.67,-8.61 -20.77,-46.99 -19.16,-40.59 -2.22,-6.61 -4.32,-13.27 -6.09,-20.02 -0.21,-3.37 -0.73,-9.25 -1.15,-15.45 3.53,-3.05 10.64,-32.25 -0.6,-12.11 v -0.22 c 2.63,-5.16 5.38,-10.26 8.61,-15.09 l 1.07,-1.65 c 5.68,-6.01 39.09,-34.32 27.09,-26.57 20.48,-14.31 41.76,-27.06 63.61,-38.79 4.73,-1.36 9.45,-2.77 14.19,-4.07 113.79,-30.8 230.45,-40.91 347.72,-45.46 62.84,-2.43 123.97,5.91 181.86,32.16 44.87,20.36 86.75,45.36 121.46,80.76 22.75,23.21 23.72,40.08 4.3,66.01 -13.48,18.02 -28.85,34.61 -42.83,52.26 -8.97,11.33 -16.97,23.43 -25.08,34.72 45.31,46.68 94.16,56.64 147.58,30.12 45.65,-22.66 82.15,-57.76 122.31,-91 -9.09,-4.53 -16.3,-7.34 -22.66,-11.47 -12.31,-7.98 -25.28,-15.51 -35.94,-25.42 -17.27,-16.06 -17.9,-30.72 -2.99,-49.19 8.23,-10.18 17.81,-19.65 28.1,-27.75 l 1.09,-0.82 c 6.37,0.68 12.8,1.07 19.38,0.73 10.18,-0.51 20.38,-0.69 30.56,0.05 20.27,4.31 40.27,9.81 59.7,17.08 3.69,1.36 7.33,2.81 10.99,4.22 9.3,4.34 18.6,8.7 27.76,13.36 12,6.12 23.87,12.48 35.69,18.96 38.96,56.81 80.54,113.74 133.68,158.03 65.95,54.96 137.74,95.12 214.17,122.39 -26.05,47.21 -26.05,94.48 1.01,142.05 2.7,4.72 4.83,9.8 7.85,14.29 25.14,37.39 49.19,75.58 76.02,111.71 24.02,32.34 49.97,63.48 77.24,93.15 30.32,32.97 69.38,48.94 114.47,48.93 10.85,0 21.7,-1.03 32.56,-1.1 31.78,-0.15 63.78,-2.45 95.3,0.42 66.73,6.09 116.64,58.27 121.62,123.71 2.36,31.03 -4.57,60.48 -18.61,87.74" /><path
             id="path34"
             style="fill:#ee4023;fill-opacity:1;fill-rule:nonzero;stroke:none"
             d="m 5908.35,2414.64 c -53.33,-34.52 -109.49,-73.48 -168.11,-109.35 -5.27,-6.69 -10.61,-13.29 -16.11,-19.75 -24.57,-28.87 -52.97,-53.74 -84.3,-73.99 6.03,-17.35 10.36,-35.32 16.85,-52.5 7.37,-19.5 14.43,-39.6 25.23,-57.24 20.37,-33.29 51.75,-47.73 90.88,-45.2 28.74,1.87 54.27,12.46 77.84,28.33 46.32,31.19 75.96,75.08 93.99,127 21.53,61.97 33.19,126.16 37.69,191.46 1.33,19.24 0.75,38.03 -2.74,55.94 -23.91,-14.61 -47.68,-29.47 -71.22,-44.7" /><path
             id="path36"
             style="fill:#ee4023;fill-opacity:1;fill-rule:nonzero;stroke:none"
             d="m 3499.3,4325.81 c -6.87,0.38 -12.26,0.48 -17.62,1.01 -38.11,3.85 -68.34,-11.12 -92.29,-39.65 -8.95,-10.64 -17.11,-22.21 -23.95,-34.3 -35.02,-61.84 -40.86,-127.97 -25.94,-196.29 17.63,-80.68 46.02,-157.89 79.08,-233.36 31.99,-73.02 78.31,-135.7 139.82,-186.7 42.66,-35.36 88.08,-66.42 140.73,-85.41 56.27,-20.31 107.06,-10.68 151.66,29.18 53.11,47.46 74.78,107.32 68.05,177.7 -3.04,31.7 -7.07,63.3 -10.69,94.93 -7.45,65.15 7.81,124.83 42.95,179.83 31.61,49.45 70.61,92.61 112.82,133.02 10.66,10.21 22,19.71 32.95,29.61 72.75,65.8 158.62,98 256.2,102.95 33.93,1.72 67.99,7.32 101.22,14.68 42.4,9.4 80.15,29.38 110.49,61.37 37.33,39.34 43.64,84.45 19.01,132.77 -16.84,33.07 -40.48,61.24 -68.29,84.93 -43.1,36.74 -86.45,73.72 -133.04,105.73 -98.84,67.88 -194.79,138.99 -282.1,221.43 -30.7,28.98 -64.93,52.83 -105.53,66.93 -21.89,7.62 -23.65,15.83 -14.75,37.64 9.9,24.29 29.9,36.98 51.82,47.78 55.52,27.38 104.45,64.08 150.86,104.68 51.23,44.81 91.1,99.73 134.95,151.01 26.83,31.36 36.72,70.28 27.99,111.57 -18.19,86.04 -70.35,144.07 -151.78,174.55 -45.91,17.17 -88.81,6.72 -125.84,-25.75 -23.08,-20.24 -41.19,-44.64 -55.46,-71.49 -70.12,-132.02 -135.43,-265.76 -149.54,-417.99 -4.78,-51.6 -27.67,-93.19 -73.72,-120.32 -55.9,-32.92 -278.41,75.07 -322.22,122.59 -18.27,19.84 -33.33,42.87 -48.26,65.5 -24.38,36.93 -46.52,75.37 -71.36,111.98 -24.06,35.45 -52.22,67.65 -86.54,93.93 -58.79,45.01 -102.65,42.1 -153.45,-11.61 -42.51,-44.95 -76.36,-96.03 -102,-152.32 -5.7,-12.49 -12.67,-21.39 -25.27,-28.17 -39.97,-21.51 -67.06,-54.71 -81.54,-97.81 -13.06,-38.95 -7.27,-75.42 17.42,-108.02 10.24,-13.54 21.84,-26.71 35.11,-37.16 44.52,-35.08 89.91,-69.08 135.38,-102.94 9.89,-7.37 21.17,-13.03 32.27,-18.56 21.94,-10.93 44.45,-19.17 69.76,-6.46 17.16,-20.1 34.62,-38.85 50.16,-59.09 27.87,-36.33 56.73,-72.17 81.29,-110.69 42.79,-67.08 212.23,-239.88 179.19,-313.21" /><path
             id="path38"
             style="fill:#ee4023;fill-opacity:1;fill-rule:nonzero;stroke:none"
             d="m 3766.95,2504.97 c -63.21,-7.68 -134.7,18.84 -200.78,64.16 -5.75,3.96 -11.48,8 -17.43,11.65 -74.85,45.81 -149.27,92.31 -224.73,137.08 -53.45,31.72 -108.84,60.41 -157.03,100.04 -18.39,15.11 -35.22,32.95 -49.47,52.01 -15.73,21.04 -14.9,45.46 -1.44,68.1 6.68,11.24 14.6,22.26 23.97,31.29 17.32,16.68 35.92,32.05 54.32,47.58 32.63,27.54 66.77,53.46 97.99,82.5 54.44,50.68 68.21,113.68 45.02,183.15 -10.7,32.08 -26.43,62.93 -43.24,92.44 -34.17,60.02 -70.5,118.85 -106.31,177.96 -5.99,9.89 -12.82,19.7 -21.03,27.73 -18.7,18.26 -35.7,13.35 -42.63,-12.2 -3.23,-11.92 -4.8,-24.43 -5.86,-36.77 -3.81,-44.37 -17.73,-85.18 -43.64,-121.32 -15.82,-22.06 -33.12,-43.11 -50.47,-64.03 -29.25,-35.29 -60.05,-69.32 -88.42,-105.3 -56.01,-71.08 -85.96,-151.98 -88.75,-242.93 -1.69,-55.22 -15.51,-107.34 -44.53,-155 -10.91,-17.89 -21.54,-36.03 -30.95,-54.74 -10.42,-20.74 -20.99,-41.68 -28.59,-63.55 -32.02,-92.34 35.21,-170.09 94.84,-190.12 19.23,-6.45 38.8,-10.86 59.4,-6.3 5.97,1.33 12.52,1.68 18.53,0.72 74.43,-11.75 148.67,-24.54 219.25,-52.18 35.61,-13.93 68.96,-32.37 98.31,-57.16 11.25,-9.49 22.17,-19.66 31.62,-30.89 35.7,-42.43 39.41,-82.71 12.58,-131.28 -19.01,-34.41 -45.8,-62.46 -73.8,-89.62 -53.37,-51.81 -115.48,-77.46 -190.62,-66.18 -5.36,0.81 -10.75,1.52 -16.14,2.04 -49.59,4.79 -99.07,6.02 -148.67,-1.01 -27.59,-3.91 -55.52,-5.25 -83.3,-7.79 -20.76,-1.92 -42.31,-0.98 -62.13,-6.36 -75.63,-20.49 -150.78,-42.7 -225.91,-64.92 -28.02,-8.29 -170.41,-88.08 -192.97,-106.79 -44.16,-36.6 -67.93,-82.31 -61.56,-140.84 3.96,-36.3 18.62,-68.7 38.6,-98.83 38.58,-58.22 92.44,-97.95 155.09,-126.46 83.99,-38.23 172.4,-61.98 263.7,-73.33 49.32,-6.13 99.34,-6.24 147.08,12.72 71.07,28.23 118.88,74.97 124.9,155.59 1.61,21.66 4.45,43.26 7.45,64.78 10.15,72.99 45.94,131.12 103.9,175.72 34.91,26.88 74.32,38.01 118.26,29.28 28.14,-5.59 56.2,-11.67 84.3,-17.51 28.27,-5.87 56.76,-10.15 85.48,-4.55 57.73,11.29 99.63,45.66 129.92,94.29 8.78,14.09 18.92,23.12 33.67,29.67 135,59.78 277.11,95.32 421.2,124.14 5.44,1.1 13.58,0.64 17.14,-2.67 26.02,-24.23 57.75,-26.08 89.71,-21.89 80.03,10.54 155.62,36.6 227.44,72.67 21.8,10.95 42.3,26.43 59.85,43.48 26.42,25.68 30.94,58.42 17.81,92.62 -4.68,12.16 -11.15,24.26 -19.35,34.32 -46.79,57.4 -107.45,88.24 -181.69,89.78 -18.12,0.37 -35.28,2.09 -52.45,7.89 -100.21,33.81 -202.99,51.5 -327.44,47.12" /><path
             id="path40"
             style="fill:#ee4023;fill-opacity:1;fill-rule:nonzero;stroke:none"
             d="m 1018.64,6406.7 c -0.92,30.29 -10.18,59.67 -26.73,86.62 -39.984,65.19 -97.355,107.72 -170.625,128.87 -42.648,12.3 -84.656,10.56 -124.894,-8.98 -9.446,-4.59 -17.329,-3.86 -26.489,-0.93 -37.082,11.87 -74.726,12.49 -112.863,5.57 -41.684,-7.57 -79.965,-24.58 -118.703,-40.67 -31.508,-13.08 -63.117,-26.5 -95.758,-36.1 -53.281,-15.68 -103.445,-5.27 -147.996,27.54 -18.031,13.28 -34.723,28.81 -50.086,45.15 -18.605,19.77 -35.184,41.46 -52.6015,62.35 -58.7656,70.37 -116.7343,141.46 -176.7656,210.76 -18.5779,21.46 -41.2149,40.34 -64.7459,56.38 -39.246,26.77 -81.801,26.72 -123.914,5.3 -36.485,-18.55 -63.742,-46.84 -82.219,-83.18 -21.344,-41.98 -23.934,-85.69 -3.012,-127.93 12.25,-24.76 28.379,-48.3 46.352,-69.33 23.66,-27.71 51.531,-51.77 76.273,-78.61 18.883,-20.5 37.567,-41.66 53.035,-64.74 24.352,-36.36 27.821,-76.47 13.68,-118.2 -8.613,-25.49 -21.215,-48.94 -39.82,-67.81 -27.754,-28.14 -56.067,-56.15 -87.024,-80.59 -34.675,-27.38 -72.89,-50.23 -108.933,-75.95 -36,-25.71 -72.551,-50.95 -106.246,-79.5 -18.539,-15.71 -34.231,-36.29 -46.688,-57.36 -21.344,-36.08 -15.527,-71.79 12.199,-103.09 17.422,-19.65 38.895,-34.26 63.297,-42.39 34.504,-11.5 69.528,-23.22 105.27,-28.95 116.5,-18.68 217.094,-68.67 303.3006,-148.18 34.2383,-31.58 67.60937,-64.23 99.7422,-97.95 66.2695,-69.52 115.9802,-149.46 147.4332,-240.55 7.336,-21.25 15.012,-42.69 25.539,-62.44 10.114,-18.97 22.11,-37.77 36.875,-53.24 24.926,-26.1 56.774,-33.42 92.161,-24.63 27.871,6.94 52.289,20.81 72.957,39.84 23.945,22.04 47.441,45.03 68.004,70.16 53.21,65.11 99.078,135.4 139.183,209.3 11.09,20.43 20.781,41.7 29.824,63.12 20.379,48.34 27.325,98.66 18.231,150.56 -6.684,38.22 -14.031,76.33 -21.891,114.32 -15.101,72.91 1.735,136.72 51.715,192.24 32.461,36.06 69.074,67.24 108.906,94.53 37.813,25.9 77.278,49.37 114.961,75.43 23.547,16.27 46.598,33.85 67.25,53.59 27.406,26.2 41.396,59.63 41.816,99.67" /><path
             id="path42"
             style="fill:#ee4023;fill-opacity:1;fill-rule:nonzero;stroke:none"
             d="m 5082.8,5675.36 c -33.63,1.04 -65.09,-10.21 -90.66,-33.21 -20.04,-18.03 -38.39,-38.63 -54.26,-60.43 -20.52,-28.21 -37.74,-58.82 -56.56,-88.28 -23.97,-37.48 -51.12,-72.34 -84.23,-102.31 -43.15,-39.08 -92.64,-65.43 -150.94,-72.38 -33.9,-4.04 -68.07,-6.1 -102.17,-8.33 -126.47,-8.26 -211.71,-77.11 -268.87,-185.04 -24.89,-46.98 -23.55,-96.29 2.49,-143.03 14.31,-25.69 30.23,-50.88 48.34,-74.01 94,-120.04 202.66,-225.29 325.85,-315.1 28.12,-20.5 58.55,-38.32 89.52,-54.28 38.23,-19.71 79.64,-26.35 122.34,-17.2 21.97,4.7 43.7,10.73 65.28,17.09 35,10.3 69.41,22.8 104.73,31.77 68.64,17.43 128.99,0.21 180.98,-47.64 32.97,-30.35 58.64,-66.31 80.9,-104.8 19.44,-33.62 37.63,-67.94 56.76,-101.74 21.09,-37.26 43.78,-73.6 73.92,-104.33 12.39,-12.62 26.23,-24.68 41.42,-33.55 49.49,-28.91 100.02,-22.74 149.67,0.2 42.21,19.49 78.05,47.96 109.1,82.33 64.36,71.25 104.63,155.37 130.23,247.06 13.3,47.69 19.23,96.16 8.65,145.17 -16.83,77.88 -59.47,134 -137.9,158.46 -21.49,6.69 -43.26,12.49 -64.97,18.47 -91.55,25.22 -152.75,83.53 -185.3,171.89 -10.69,29.06 -19.03,59.1 -26.77,89.12 -16.46,63.92 -40.26,124.01 -84.28,174.57 -5.07,5.81 -8.85,12.74 -13.12,19.23 -6.66,10.1 -8.99,20.26 -5.69,32.84 6.38,24.26 7.25,49.2 2.37,74 -21.23,107.68 -79.23,191.09 -169.11,252.53 -28.56,19.52 -60.78,31.18 -97.72,30.93" /><path
             id="path44"
             style="fill:#ee4023;fill-opacity:1;fill-rule:nonzero;stroke:none"
             d="m -618.938,2681.47 c 9.942,-4.08 17.774,-7.48 25.735,-10.54 70.57,-27.12 144.148,-42.96 218.148,-56.59 119.77,-22.09 235.254,-56.65 343.9261,-112.45 53.9414,-27.7 107.8086,-55.77 154.6639,-94.74 17.106,-14.23 32.68,-31.17 45.723,-49.2 18.16,-25.13 20.168,-53.8 5.551,-81.58 -8.614,-16.34 -18.711,-32.47 -30.922,-46.23 -22.153,-24.95 -46.6214,-47.83 -69.6839,-72 -30.0195,-31.46 -60.5117,-62.55 -89.1133,-95.27 -19.9609,-22.82 -35.4648,-49.03 -44.4296,-78.55 -12.4844,-41.16 -5.1758,-76.93 29.1875,-104.79 80.7734,-65.49 168.8123,-94.53 270.5903,-52.85 7.183,2.95 14.464,5.66 21.617,8.68 161.222,68.27 318.363,144.07 460.82,247.42 23.191,16.83 48.055,31.54 72.992,45.72 40,22.77 83.406,28.48 128.539,21.41 56.707,-8.86 113.104,-20.2 170.054,-26.73 70.99,-8.13 137.51,8.01 196.87,48.66 14.58,9.98 27.98,22.45 39.62,35.78 28.85,33 34.77,70.63 15.67,110.41 -9.36,19.49 -20.38,38.5 -32.96,56.08 -66.64,93.25 -152.54,163.26 -258.75,206.65 -99.894,40.83 -202.922,72.91 -306.808,101.82 -28.914,8.05 -59.34,12.18 -89.348,14.47 -62.469,4.79 -121.984,-8.01 -178.039,-36.26 -20.863,-10.5 -42.051,-14.32 -65.074,-6.29 -14.594,5.08 -30.059,7.67 -45.137,11.35 -96.383,23.54 -188.906,56.92 -272.2579,111.72 -26.4141,17.37 -51.4727,37.68 -74.0117,59.84 -35.1172,34.53 -42.0742,76.88 -22.98831,122.26 10.20311,24.28 23.23441,47.34 34.27341,71.29 9.7188,21.1 20.2852,42.06 27.2188,64.11 13.8476,44.04 0.9883,81.1 -34.7149,110.07 -25.27731,20.5 -54.5546,32.41 -86.2539,38.81 -54.0275,10.88 -106.7465,3.05 -158.7075,-11.86 -149.519,-42.89 -277.917,-125.22 -402,-215.46 0,-111.74 0,-222.72 0,-335.16" /><path
             id="path46"
             style="fill:#ee4023;fill-opacity:1;fill-rule:nonzero;stroke:none"
             d="m 360.645,239.301 c 33.89,3.64 68.043,5.761 101.621,11.281 41.566,6.828 81.839,19.039 117.269,42.949 27.34,18.442 33.043,38.442 20.145,68.34 -5.524,12.801 -12.926,24.77 -19.375,37.18 -8.953,17.199 -19.012,33.949 -26.493,51.781 -21.523,51.277 -11.738,91.141 30.036,127.539 24.902,21.68 53.097,38.59 84.07,49.129 46.242,15.73 93.242,29.332 140.227,42.742 53.226,15.188 105.296,32.508 151.488,64.367 11.285,7.793 24.066,14.153 37.031,18.633 66.726,23.098 133.936,44.77 200.566,68.129 52.87,18.52 106.37,33.219 161.96,41.531 66.68,9.969 132.79,23.547 199.22,35.098 8.97,1.57 18.74,2.223 27.51,0.359 25.84,-5.488 51.73,-4.25 76.04,3.621 85.57,27.711 170.66,56.891 255.63,86.411 12.15,4.218 23.5,12.309 33.57,20.599 26.44,21.76 35.45,49.95 27.58,83.48 -7.21,30.78 -24.37,55.5 -48.14,75.24 -51.77,43 -112.38,65.71 -178.79,71.73 -22.58,2.06 -44.59,4.7 -66.25,11.15 -12.64,3.77 -25.43,7.09 -38.27,10.08 -51.9,12 -104.03,18.41 -156.7,4.75 -41.02,-10.62 -78.08,-30.12 -114.59,-50.96 -19.54,-11.15 -39.19,-22.27 -59.48,-31.97 -41.02,-19.63 -80.43,-15.21 -115.96,12.8 -19.46,15.35 -37.15,33 -55.08,50.18 -26.38,25.27 -51.34,52.06 -78.5,76.42 -74.945,67.25 -161.644,115.32 -255.042,151.54 -82.481,31.99 -164.829,65.19 -252.665,79.73 -108.554,17.96 -202.578,-15.88 -284,-86.91 -31.246,-27.26 -32.105,-51.58 -3.625,-82.32 17.243,-18.62 37.477,-35.14 58.543,-49.37 60.633,-40.97 128.817,-64.24 199.414,-81.5 54.231,-13.24 108.696,-25.96 162.028,-42.23 44.914,-13.71 85.828,-36.51 118.765,-71.17 27.586,-29.02 39.625,-62.81 28.317,-102.58 -3.805,-13.39 -9.512,-26.24 -13.551,-39.568 -6.074,-20.102 -19.34,-30.852 -38.781,-39.203 -102.649,-44.067 -210.485,-69.938 -319.035,-93.438 -6.336,-1.379 -13.45,0.781 -20.168,1.43 -23.887,2.32 -47.797,6.922 -71.629,6.558 -47.469,-0.707 -94.074,-9.82 -140.203,-20.718 -86.075,-20.352 -172.4652,-39.629 -255.9339,-69.469 -41.1602,-14.711 -81.3711,-32.051 -112.7111,-63.59 -12.023,-12.121 -25.183,-19.75 -40.691,-25.352 -45.41,-16.41 -89.66,-35.648 -129.203,-63.679 -16.942,-12.012 -33.176,-26 -46.582,-41.781 -21.055,-24.758 -21.004,-50.559 -2.305,-77.008 7.555,-10.68 16.18,-21.36 26.476,-29.242 28.313,-21.688 56.614,-43.77 86.973,-62.36 C -134.43,355.809 -20.6641,314.781 96.7617,283.121 183.109,259.82 270.387,242.082 360.645,239.301" /><path
             id="path48"
             style="fill:#ee4023;fill-opacity:1;fill-rule:nonzero;stroke:none"
             d="m 2313.13,3087.21 c -1.13,-42.14 11.41,-81.42 27.17,-119.5 25.59,-61.74 47.04,-124.71 65.1,-189.09 8.08,-28.81 20.14,-57.46 35.6,-83.05 32.88,-54.48 80.75,-90.14 145.65,-97.55 49.37,-5.65 88.85,21.6 97.54,63.82 4.58,22.28 4.53,46.41 1.72,69.09 -3.23,26.01 -11.12,51.56 -18.31,76.93 -15.32,54.01 -6.03,102.99 28.12,147.32 11.37,14.77 22.97,29.38 34.86,43.74 16.86,20.34 34.21,40.28 51.13,60.56 61.85,74.25 106.16,156.9 118.29,254.07 9.95,79.55 39.15,151.3 82.91,217.84 10.65,16.18 19.48,33.56 29.06,50.45 29.76,52.45 30.91,106.18 7.41,161.14 -20.23,47.35 -45.77,91.68 -75.88,133.37 -5.88,8.14 -12.9,15.6 -20.18,22.52 -13.82,13.11 -29.5,15.94 -47.12,7.4 -6.89,-3.34 -14.31,-6.63 -21.79,-7.64 -33.06,-4.46 -62.59,-17.8 -90.87,-34.53 -22.07,-13.06 -43.39,-27.47 -66.01,-39.47 -21.85,-11.61 -44.26,-22.87 -67.61,-30.79 -39.74,-13.47 -76.55,-5.32 -109.09,21.58 -30.55,25.25 -52.29,57.16 -70,92.12 -19.79,39.04 -33.43,80.39 -41.94,123.09 -22.7,113.87 -68.56,216.76 -138,310.08 -30.05,40.39 -54.57,84.93 -81.1,127.88 -17.78,28.79 -29.56,60.05 -32.29,93.95 -3.96,49.55 -7.06,99.17 -10.37,148.76 -3.54,53.31 -13.86,105.01 -41.63,151.3 -10.16,16.95 -23.74,32.93 -38.94,45.5 -20.4,16.84 -44.5,14.13 -63.21,-4.64 -9.16,-9.19 -17.66,-20.2 -22.81,-31.99 -19.28,-44.21 -25.48,-91.07 -21.55,-138.89 2.94,-35.56 17.79,-67.42 36.49,-97.32 14.4,-23.05 29.29,-45.86 45.02,-68.03 35.28,-49.79 33.04,-99.66 2.8,-150.62 -23.42,-39.45 -54.28,-71.92 -91.25,-98.52 -25.85,-18.6 -52.66,-35.89 -79.14,-53.57 -90.31,-60.28 -161.42,-138.13 -213.28,-233.47 -19.37,-35.62 -35.41,-72.66 -41.92,-113.04 -7.42,-46.13 1.59,-88.31 33.2,-123.9 40.25,-45.3 99.84,-56.39 159.75,-30.21 33.15,14.49 61.31,36.47 88.54,59.79 18.89,16.18 36.99,33.51 57.23,47.79 14.3,10.09 31.1,17.36 47.73,23.2 13.47,4.73 28.41,2.85 39.66,-7.21 27.71,-24.78 55.13,-49.21 73.89,-82.91 40.03,-71.88 82.78,-142.26 124.52,-213.21 11.41,-19.4 23.27,-38.56 34.71,-57.95 37.96,-64.29 52.3,-133.65 46.64,-207.99 -3.42,-45.04 -2.55,-90.24 12.75,-133.59 3.13,-8.88 0.05,-14.88 -3.6,-21.71 -13.84,-25.9 -20.45,-53.52 -19.6,-82.9" /><path
             id="path50"
             style="fill:#ee4023;fill-opacity:1;fill-rule:nonzero;stroke:none"
             d="m 3317.32,956.301 c 58.53,-1.621 101.15,10.328 133.69,32.32 47.61,32.189 66.11,76.429 54.98,132.769 -8.78,44.51 -27.15,85.59 -45.99,126.5 -44.11,95.76 -116.56,160 -217.06,190.68 -62.24,19 -125.4,35.38 -188.83,49.99 -26.82,6.19 -55.5,7.52 -83.14,6.32 -52.6,-2.28 -91.43,-27.6 -110.72,-78.1 -6.04,-15.82 -11.88,-32.49 -13.31,-49.15 -2.93,-33.95 -4.88,-68.24 -3.5,-102.24 2.65,-65.25 -14.22,-124.47 -49.42,-178.74 -21.95,-33.87 -46.15,-66.32 -67.35,-100.65 -17.45,-28.258 -34.18,-57.391 -47.18,-87.859 -13.96,-32.7 -4.14,-54.239 27.1,-71.821 29.65,-16.66 61.64,-20.23 94.73,-15.101 35,5.433 67.75,18.222 97.11,37.371 42.2,27.551 82.99,57.289 124.05,86.582 10.29,7.348 20.7,12.359 33.27,15.219 31.73,7.25 63.63,14.691 94.28,25.418 24.05,8.421 46.15,7.89 69.89,0.57 37.11,-11.457 74.93,-20.109 97.4,-20.078" /><path
             id="path52"
             style="fill:#ee4023;fill-opacity:1;fill-rule:nonzero;stroke:none"
             d="m 4425.87,8297.93 c 17.46,11.55 34.5,21.14 49.63,33.13 49.63,39.32 57.95,87.52 25.48,142.02 -17.33,29.09 -40.47,53.14 -66.57,74.31 -67.96,55.16 -147.12,85.65 -231.73,103.43 -45.05,9.48 -90.47,14.63 -136.26,4.62 -49.96,-10.92 -83.59,-39.28 -95.69,-90.26 -3.23,-13.58 -6.38,-27.23 -8.46,-41.02 -8.1,-53.97 -27.29,-103.41 -59.4,-147.62 -14.62,-20.11 -29.9,-39.72 -44.65,-59.74 -16.12,-21.86 -33.46,-43.02 -47.64,-66.11 -25.83,-42.01 -14.98,-69.57 31.68,-85.98 35.46,-12.48 71.8,-10.77 108.3,-6.61 5.07,0.57 10.19,0.77 16.23,1.2 1.8,-13.02 2.99,-24.59 5.06,-35.98 5.81,-31.88 27.78,-53.19 59.99,-55.7 17.67,-1.39 36.21,-1.83 53.35,1.9 83,18.06 163.29,44.91 238.77,83.98 25.16,13.03 48.02,31.41 69.74,49.91 20.16,17.2 30.13,41.07 30.93,68.15 0.25,8.52 0.79,17.05 1.24,26.37" /><path
             id="path54"
             style="fill:#ee4023;fill-opacity:1;fill-rule:nonzero;stroke:none"
             d="m 1714.85,141.82 c 1.76,56.403 -17.25,94.051 -57.49,120.809 -24.93,16.601 -52.72,26.391 -81.55,33.152 -32.46,7.621 -65.13,14.371 -97.77,21.149 -67.09,13.929 -131.04,37.98 -195.63,60.031 -47.1,16.078 -94.82,29.418 -144.68,33.441 -37.71,3.047 -74.64,-0.652 -109.3,-16.66 -31.219,-14.41 -37.825,-34.832 -19.64,-63.801 10.66,-16.98 23.56,-32.91 37.41,-47.421 39.71,-41.598 80.48,-82.161 120.7,-123.239 58.14,-59.3787 90.78,-128.6912 85.44,-213.7888 -1.25,-19.9297 1.18,-40.4727 4.68,-60.2422 8.83,-50.027 36.73,-84.82 86.23,-100.141 23.31,-7.218 47.34,-8.718 71.44,-4.777 98.12,15.969 171.66,68.719 223.84,152.0196 32.38,51.6875 53.82,108.3007 69.31,167.0898 4.33,16.4106 5.61,33.6206 7.01,42.3786" /><path
             id="path56"
             style="fill:#ee4023;fill-opacity:1;fill-rule:nonzero;stroke:none"
             d="m 5833.36,8103.45 c 12.3,1.45 24.65,2.55 36.89,4.44 40.98,6.36 79.23,21.54 117.33,37.04 59,24.03 118.89,44.93 181.86,56.29 31.22,5.63 62.74,11.04 93.01,20.24 79.63,24.18 113.56,76.6 102.09,158.53 -9.11,65.06 -31.04,126.37 -63.46,183.61 -14.29,25.21 -33,47.1 -56.43,64.39 -65.04,48.03 -138.53,69.33 -218.71,63.29 -70.44,-5.3 -106.8,-49.59 -103.31,-120.33 0.19,-3.88 0.76,-7.74 0.87,-11.61 0.6,-21.71 2.55,-43.51 1.34,-65.11 -2.43,-43.37 -20.87,-81.05 -47.32,-114.46 -28.89,-36.5 -60.34,-70.97 -89.07,-107.6 -19.07,-24.3 -37.83,-49.49 -52.12,-76.69 -16.26,-30.98 -5.57,-57.22 25.17,-74.44 22.23,-12.47 46.48,-16.93 71.86,-17.59" /><path
             id="path58"
             style="fill:#ee4023;fill-opacity:1;fill-rule:nonzero;stroke:none"
             d="m 3443.26,1582.89 c -71.47,-0.08 -107.31,-51.62 -78.63,-116.63 8.04,-18.23 18.58,-36.34 31.76,-51.13 30.45,-34.16 63.02,-66.48 95.12,-99.15 31.03,-31.56 63.63,-61.64 93.61,-94.14 38.83,-42.07 46.25,-89.7 19.69,-141.8 -9.87,-19.34 -18.4,-39.4 -26.49,-59.56 -4.3,-10.69 -7.76,-22.109 -9.1,-33.5 -3.33,-28.539 9.72,-49.8 36.09,-61.308 20.5,-8.953 42.22,-10.723 64.01,-8.043 101.24,12.433 168.65,73.703 189.62,174.031 8.93,42.71 25.78,81.05 51.63,115.94 15.71,21.2 31.44,42.55 45.21,65.02 41.76,68.21 29.22,123.11 -37.84,167.16 -13.54,8.9 -28.08,16.93 -43.19,22.65 -23.13,8.77 -46.7,17.59 -70.88,22.18 -97.04,18.34 -192.03,43.25 -284.32,78.8 -24.33,9.37 -50.8,13.13 -76.29,19.48" /><path
             id="path60"
             style="fill:#ee4023;fill-opacity:1;fill-rule:nonzero;stroke:none"
             d="m 2810.32,4226.86 c 2.86,-36.66 7.77,-71.79 24.01,-104.54 9.86,-19.91 22.9,-37.62 44.61,-45.39 18.79,-6.72 38.28,-11.63 57.72,-16.23 5.61,-1.33 12.51,0.17 18.14,2.24 9.41,3.46 18.73,7.67 27.26,12.91 66.11,40.6 132.13,81.36 197.98,122.4 58.28,36.34 89.73,92.69 113.71,154.41 0.56,1.43 0.77,3 1.13,4.51 8.47,35.47 8.21,71.1 -1.71,105.96 -25.9,91.14 -80.85,159.7 -164.28,204.7 -28.32,15.28 -58.78,24.32 -91.69,20.09 -36.64,-4.7 -64.99,-24 -88.58,-51.26 -23.61,-27.27 -40.75,-58.5 -54.45,-91.65 -27.91,-67.5 -49.5,-137.12 -65.45,-208.3 -8.1,-36.17 -12.39,-73.22 -18.4,-109.85" /><path
             id="path62"
             style="fill:#ee4023;fill-opacity:1;fill-rule:nonzero;stroke:none"
             d="m 2133.58,1416.05 c 7.77,0 15.58,-0.54 23.29,0.09 59.78,4.78 92.64,44.75 85.08,104.14 -1.75,13.76 -4.21,27.91 -9.38,40.64 -14.29,35.15 -28.68,70.39 -45.82,104.18 -24.63,48.52 -47.29,97.59 -63.85,149.58 -7.01,22.03 -16.34,43.8 -27.96,63.75 -28.8,49.41 -77.21,61.3 -125.21,29.82 -19.07,-12.52 -37.02,-29.09 -50.45,-47.49 -46.19,-63.33 -78.75,-133.78 -96.53,-210.11 -15.55,-66.91 7.36,-120.35 64.2,-159.54 4.49,-3.09 8.97,-6.2 13.71,-8.83 72.51,-40.12 150.93,-59.81 232.92,-66.23" /><path
             id="path64"
             style="fill:#ee4023;fill-opacity:1;fill-rule:nonzero;stroke:none"
             d="m 1232.94,2680.17 c 9.66,1.01 29.46,0.88 48.06,5.53 22.35,5.58 44.67,13.28 65.17,23.67 20.29,10.31 24.05,26.19 15.69,47.5 -3.68,9.34 -8.2,18.55 -13.63,26.97 -29.5,45.59 -58.51,91.55 -89.57,136.06 -15,21.49 -32.8,41.46 -51.69,59.69 -40.94,39.52 -91.24,59.6 -147.85,57.62 -73.624,-2.58 -141.901,-24.88 -202.62,-67.25 -15.09,-10.53 -29.266,-23.41 -40.887,-37.63 -27.453,-33.61 -26.918,-68.64 1.578,-101.23 12.621,-14.42 27.832,-27.1 43.559,-38.19 36.992,-26.08 78.375,-43.98 120.5,-60.03 77.97,-29.72 157.88,-50.76 251.69,-52.71" /><path
             id="path66"
             style="fill:#ee4023;fill-opacity:1;fill-rule:nonzero;stroke:none"
             d="m 1697.03,8232.02 c 33.19,3.37 64.83,9.24 93.52,23.19 42.49,20.66 84.64,42.55 124.71,67.49 59.83,37.26 121.39,68.91 191.5,81.76 12.76,2.33 25.5,7.39 37.01,13.5 25.97,13.8 32.44,37.72 17.06,62.89 -5.93,9.75 -13.94,18.95 -22.9,25.97 -12.76,9.98 -26.52,19.35 -41.16,26.13 -46.48,21.5 -92.93,43.34 -140.66,61.75 -30.14,11.62 -62.1,20.35 -94.03,25.14 -62.96,9.45 -125.02,-13.25 -160.37,-74.8 -7.33,-12.74 -13.86,-26.05 -19.66,-39.57 -21.38,-49.9 -42.54,-99.89 -63.25,-150.07 -5.6,-13.55 -10.58,-27.61 -13.61,-41.9 -6.44,-30.27 3.65,-52.35 32.06,-64.61 18.86,-8.13 39.78,-11.41 59.78,-16.87" /><path
             id="path68"
             style="fill:#ee4023;fill-opacity:1;fill-rule:nonzero;stroke:none"
             d="m 2888.09,6242.36 c 0.24,-34.69 0.87,-62.73 14.52,-88.33 10.78,-20.21 25.09,-26.95 46.35,-18.87 15.77,5.99 30.97,14.47 44.92,24.05 52.48,36.06 104.55,72.74 156.31,109.85 14.44,10.35 28.13,22.15 40.62,34.79 28.13,28.45 41.87,63.07 39.86,103.33 -3.22,64.85 -33.15,115.79 -84.12,154.1 -63.25,47.54 -126.35,36.32 -169.43,-29.85 -13.03,-20.02 -23.87,-41.86 -32.91,-64.01 -30.32,-74.32 -53.33,-150.6 -56.12,-225.06" /><path
             id="path70"
             style="fill:#ee4023;fill-opacity:1;fill-rule:nonzero;stroke:none"
             d="m 2703.01,1223.15 c 1.07,35.91 -12.79,67.43 -41.02,91.02 -17.07,14.26 -36.57,26.35 -56.56,36.21 -42.87,21.18 -89.14,31.82 -136.57,35.72 -35.63,2.92 -69.59,-3.62 -98.64,-26.97 -17.38,-13.97 -28.03,-31.31 -27.12,-53.98 0.59,-15.43 1.44,-31.12 4.76,-46.12 11.12,-50.11 26.39,-98.95 51.93,-143.81 19.14,-33.63 47.52,-54.79 86.74,-59.74 73.81,-9.3 134.38,15.82 181.83,72.03 22.59,26.76 35.12,58.36 34.65,95.64" /><path
             id="path72"
             style="fill:#ee4023;fill-opacity:1;fill-rule:nonzero;stroke:none"
             d="m 4968.24,4311.94 c -6.3,-2.79 -11.49,-4.72 -16.32,-7.3 -30.64,-16.3 -43.97,-41.59 -38.6,-76.35 2.26,-14.61 6.1,-29.34 11.7,-43.01 21.31,-52.07 50.61,-99.58 86.63,-142.71 11.86,-14.2 25.39,-27.44 39.93,-38.87 38.47,-30.22 82.24,-35.78 126.71,-17.76 62.53,25.35 103.66,71.59 120.2,137.73 10.42,41.7 5.43,81.11 -20.22,117.17 -4.94,6.94 -6.93,16.83 -7.87,25.61 -5.15,47.71 -22.96,88.67 -63.73,116.13 -51.99,35 -109.79,45.63 -170.93,33.33 -48.35,-9.74 -69.24,-38.14 -68.06,-87.32 0.11,-4.64 0.32,-9.29 0.56,-16.65" /><path
             id="path74"
             style="fill:#ee4023;fill-opacity:1;fill-rule:nonzero;stroke:none"
             d="m 3483.9,3299.18 c 34.73,1.92 73.14,22.51 98.13,64.2 23.35,38.96 12.09,76.62 -10.14,111.77 -36.26,57.34 -83.55,103.84 -141.57,139.18 -21.47,13.08 -44.68,21.72 -69.69,24.75 -45.94,5.58 -78.96,-23.41 -79.3,-69.64 -0.06,-8.48 0.7,-17.11 2.33,-25.42 11.24,-57.74 33.78,-111.17 63.6,-161.55 8.62,-14.58 19.16,-28.42 30.76,-40.78 24.73,-26.43 54.54,-43.38 105.88,-42.51" /><path
             id="path76"
             style="fill:#ee4023;fill-opacity:1;fill-rule:nonzero;stroke:none"
             d="m 1880.29,7250.09 c 2.67,-2.29 6.11,-5.39 9.72,-8.31 24,-19.39 50.33,-22.3 78.74,-11.21 50.23,19.58 80.83,72.03 71.21,125.21 -4.23,23.33 -11.7,46.11 -18.13,69.03 -1.43,5.14 -4.24,10.01 -7.07,14.61 -51.8,84.08 -170.96,87.99 -227.18,7.27 -26.14,-37.51 -41.58,-79.67 -49.85,-124.32 -2.51,-13.56 -3.04,-27.94 -1.74,-41.67 4.22,-44.37 32.36,-65.07 75.79,-54.53 22.38,5.43 43.74,15.11 68.51,23.92" /><path
             id="path78"
             style="fill:#ee4023;fill-opacity:1;fill-rule:nonzero;stroke:none"
             d="m 3215.1,1850.78 c -4.63,-0.3 -13.26,-0.17 -21.66,-1.49 -48.34,-7.59 -91.11,-26.13 -121.29,-66.44 -25.01,-33.43 -23.7,-71.58 4.73,-101.98 13.03,-13.93 29.13,-25.85 45.71,-35.41 36.62,-21.14 76.68,-33.24 118.52,-39.63 24.77,-3.78 49.36,-4.99 74.02,0.51 44.91,10.01 68.74,43.16 63.03,88.81 -4.21,33.73 -16.14,64.63 -36.08,92.26 -30.27,41.92 -70.96,63.82 -126.98,63.37" /><path
             id="path80"
             style="fill:#ee4023;fill-opacity:1;fill-rule:nonzero;stroke:none"
             d="m 2087.76,2915.3 -2.59,-1.11 c 6.08,-16.52 10.61,-33.85 18.57,-49.42 15.74,-30.8 39.64,-55.45 65.66,-77.74 29.68,-25.43 61.64,-46.96 101.47,-53.63 36.04,-6.02 63.34,11.38 70.18,47.16 2.43,12.7 2.52,26.37 0.86,39.23 -5.18,40.29 -17.87,78.47 -36.73,114.43 -11.96,22.84 -26.64,43.73 -47.74,59.28 -59.56,43.98 -152.98,8.03 -167.58,-64.45 -0.91,-4.54 -1.41,-9.16 -2.1,-13.75" /><path
             id="path82"
             style="fill:#ee4023;fill-opacity:1;fill-rule:nonzero;stroke:none"
             d="m 510.582,7204.66 c -2.254,41.83 -23.91,61.62 -64.316,56.7 -6.137,-0.76 -12.352,-1.8 -18.215,-3.68 -61.656,-19.71 -116.227,-51.52 -162.43,-97.01 -16.183,-15.92 -28.941,-34.43 -35.457,-56.65 -18.476,-62.88 35.262,-121.71 99.133,-106.89 18.449,4.29 36.875,12.94 52.652,23.54 47.301,31.74 83.875,73.91 108.934,125.05 9.027,18.43 13.277,39.23 19.699,58.94" /><path
             id="path84"
             style="fill:#ee4023;fill-opacity:1;fill-rule:nonzero;stroke:none"
             d="m 5455.65,4078.42 c -12.72,21.26 -29.52,25.64 -49.3,11.91 -3.01,-2.09 -5.97,-4.34 -8.53,-6.95 -26.82,-27.34 -46.6,-59.05 -58.23,-95.6 -4.06,-12.81 -5.63,-26.02 -2.92,-39.44 7.71,-38.01 52.07,-53.96 81.4,-28.56 8.47,7.32 15.72,16.94 21.06,26.84 15.99,29.67 23.48,61.84 22.48,95.51 -0.36,12.14 -3.87,24.19 -5.96,36.29" /><path
             id="path86"
             style="fill:#ee4023;fill-opacity:1;fill-rule:nonzero;stroke:none"
             d="m 1811.8,7000.1 c 0.82,65.34 -33.24,94.27 -85.68,84.08 -12.78,-2.49 -25.61,-6.66 -37.37,-12.28 -42.81,-20.41 -78.31,-50.08 -105.47,-89.02 -7.9,-11.32 -14.77,-23.92 -19.28,-36.91 -12,-34.59 -5.09,-65.79 21.22,-91.84 31.41,-31.1 78.37,-39.05 118.08,-16.39 67.02,38.27 98.38,100.13 108.5,162.36" /><path
             id="path88"
             style="fill:#ee4023;fill-opacity:1;fill-rule:nonzero;stroke:none"
             d="m 4160.06,5973.38 c 10.07,-37.73 35.77,-74.78 67.64,-97.51 49.12,-35.05 89.96,-22.75 111.99,33.76 0.56,1.43 1.1,2.89 1.57,4.38 15.72,49.07 24.79,99.23 23.46,150.9 -0.3,11.5 -1.91,23.23 -4.76,34.38 -10.68,41.89 -40.54,58.08 -81.42,43.12 -37.71,-13.81 -70.57,-35.61 -96.39,-66.79 -24.94,-30.09 -33.66,-64.07 -22.09,-102.24" /><path
             id="path90"
             style="fill:#ee4023;fill-opacity:1;fill-rule:nonzero;stroke:none"
             d="m 1656.2,5359.47 1.38,-0.19 c 0,-3.89 -0.29,-7.78 0.04,-11.64 2.76,-32.1 20.91,-47.52 52.99,-43.52 12.15,1.51 24.75,4.25 35.71,9.45 55.06,26.11 93.47,68.59 114.88,125.26 5.81,15.38 7.49,33.53 6.41,50.12 -3.6,55.21 -62.14,85.26 -109.5,56.46 -12.99,-7.91 -24.89,-18.74 -34.85,-30.33 -30.3,-35.25 -49.9,-76.35 -61.03,-121.39 -2.77,-11.22 -4.06,-22.8 -6.03,-34.22" /><path
             id="path92"
             style="fill:#ee4023;fill-opacity:1;fill-rule:nonzero;stroke:none"
             d="m 5880.19,5352.57 c 0.29,-55.13 26.97,-74.74 69.67,-56.79 53.11,22.32 93.88,59.76 122.27,109.98 10.13,17.9 14.79,37.63 11.1,58.35 -10.53,59.18 -73.27,85.55 -120.81,48.8 -54.46,-42.12 -74.49,-102.74 -82.23,-160.34" /><path
             id="path94"
             style="fill:#ee4023;fill-opacity:1;fill-rule:nonzero;stroke:none"
             d="m 4106.87,1906.29 c -1.2,-41.04 24.05,-59.64 61.57,-43.68 39.12,16.66 72.34,41.72 96.49,77.37 9.48,13.97 15.08,29.75 6.79,45.9 -8.87,17.29 -26.2,20.12 -43.72,21.07 -2.31,0.12 -4.66,0.04 -6.96,-0.19 -36.19,-3.75 -66.9,-18.63 -90.94,-46.08 -13.54,-15.45 -22.54,-33.26 -23.23,-54.39" /><path
             id="path96"
             style="fill:#ee4023;fill-opacity:1;fill-rule:nonzero;stroke:none"
             d="m 1525,7621.18 c -79.04,38.35 -161.96,67.38 -246.91,89.91 -29.38,7.8 -59.71,11.03 -89.7,1.38 -275.792,-28.1 -375.355,105.86 -370.495,188.47 4.863,82.61 209.135,135.29 209.135,135.29 93.63,-1.87 175.86,27.57 245.08,90.44 19.87,18.06 37.43,39.47 52.52,61.73 15.14,22.35 13.96,47.35 -2.86,69.7 -16.8,22.33 -32.7,45.67 -51.9,65.76 -26.27,27.47 -55.41,52.18 -83.1,78.29 -19.2,18.1 -38.68,35.99 -56.92,55.02 -20.2,21.06 -26.2,47.01 -21.66,75.56 1.59,9.97 3.27,19.93 4.99,29.88 13.3,76.94 -12,141.27 -72.23,187.66 -78.067,60.12 -168.395,88.85 -267.864,82.37 -17.395,-1.13 -35.469,-6.2 -51.352,-13.51 -56.289,-25.89 -71.25,-86.57 -34.414,-135.84 18.789,-25.13 42.063,-45.86 68.371,-62.76 39.86,-25.62 80.77,-49.6 120.344,-75.64 18.684,-12.3 36.746,-26.31 52.473,-42.14 17.433,-17.55 17.461,-37.41 1.836,-56.73 -9.641,-11.95 -20.758,-23.77 -33.59,-31.9 -36.039,-22.8 -72.02,-46.33 -110.324,-64.78 -109.141,-52.52 -219.203,-103.12 -329.332,-153.55 -81.594,-37.37 -166.434,-63.95 -256.145,-73.93 -56.234,-6.25 -112.3163,-13.95 -168.3592,-21.72 -25.30474,-3.52 -50.2579,-11.59 -75.5743,-12.63 -55.6875,-2.3 -109.3475,-13.47 -161.8045,-30.98 -46.531,-15.52 -92.098,-34.01 -131.735,-63.42 -18.453,-13.7 -35.925,-30.05 -49.761,-48.29 -21.383,-28.2 -18.199,-58.83 6.125,-84.71 9.992,-10.62 21.851,-20.01 34.265,-27.71 17.114,-10.6 35.106,-20.06 53.504,-28.21 43.301,-19.19 87.223,-36.97 130.614,-55.95 99.5738,-43.55 198.8746,-87.85 302.488,-121.2 104.32,-33.61 201.402,-81.42 291.156,-144.3 15.883,-11.13 32.731,-20.91 49.434,-30.79 36.277,-21.46 74.781,-25.43 114.285,-11.26 26.269,9.42 52.121,20.22 77.441,31.94 52.129,24.16 103.067,51.04 155.824,73.66 64.586,27.71 86.856,22.63 133.114,-29.83 28.691,-32.55 53.621,-68.41 80.221,-102.81 21.37,-27.63 41.01,-56.83 64.44,-82.61 52.39,-57.64 118.43,-84.17 196.41,-75.83 27.86,2.98 54.8,8.21 80.98,-6.78 4.98,-2.85 12.12,-2.2 18.31,-2.61 31.37,-2.17 59.96,6.78 86.45,22.86 59.26,35.97 96.2,89.51 117.89,153.95 30.9,91.85 5.31,156.36 -81.67,198.55" /><path
             id="path98"
             style="fill:#ee4023;fill-opacity:1;fill-rule:nonzero;stroke:none"
             d="m 4750.38,7475.96 c -13.83,14.4 -30.02,27.36 -47.14,37.65 -109.06,65.54 -225.33,111.52 -352.92,124.63 -63.14,6.49 -121.15,26.05 -173.24,62.66 -25.42,17.87 -50.57,36.2 -76.72,52.94 -26.77,17.15 -53.84,34.13 -82.16,48.47 -38.97,19.76 -80.78,23.65 -122.22,9.07 -2.28,-0.79 -4.51,-1.73 -6.77,-2.56 -37.96,-13.44 -231.4,-68.09 -412.4,136.33 -12.78,17.72 -25.87,35.99 -38.66,54.11 0,0 -54.49,148.33 70.97,204.79 125.48,56.47 196.59,222.91 196.59,222.91 l -474.84,233.91 -47.98,-172.68 c -27.45,-4.21 -55.23,-12.31 -83.35,-24.64 -35.49,-15.59 -69.53,-34.51 -104.28,-51.81 -41.63,-20.74 -85.66,-30.87 -132.21,-33.02 -32.45,-1.49 -65.19,-4.53 -96.93,-11.1 -79.71,-16.52 -142.99,-62.44 -199.21,-118.78 -33.64,-33.71 -61.54,-72.09 -81.13,-115.84 -18.74,-41.84 -15.85,-81.96 13.13,-118.26 13.53,-16.94 29.19,-32.21 44.25,-47.87 4.81,-5 10.69,-9.01 16.28,-13.19 58.96,-44.08 121.47,-49.8 185.14,-12.75 30.68,17.86 58.32,41.02 87.17,62.01 17.58,12.79 34.19,26.99 52.35,38.85 38.66,25.27 78.07,25.28 114.82,-3.19 20.76,-16.06 208.44,-248.34 225.07,-268.49 43.47,-52.74 85.31,-106.82 126.84,-161.11 31.13,-40.69 62.01,-81.67 90.73,-124.08 32.15,-47.47 48.04,-100.54 45.16,-158.51 -1.81,-36.46 -3.41,-72.93 -5.1,-109.39 -3.62,-86.62 14.99,-169.9 38.97,-252.13 12.68,-43.48 33.24,-83.64 59.82,-120.46 18.84,-26.09 40.87,-48.95 69.38,-64.63 41.71,-22.93 82.37,-17.17 113.83,18.36 13.75,15.51 25.05,33.66 34.98,51.95 14.76,27.26 26.41,56.21 41.03,83.58 31.45,58.86 63.95,117.19 96.04,175.72 26.66,48.62 46.9,99.55 57.09,154.34 8.32,44.83 27.16,85.56 50.55,124.43 26.28,43.69 64.07,72.8 110.89,92.05 54.96,22.59 105.18,16.1 150.1,-22.48 21.15,-18.18 40.13,-38.88 59.99,-58.54 23.17,-22.95 44.77,-47.72 69.61,-68.67 56.21,-47.47 121.12,-61.18 192.07,-41.53 51.17,14.18 96.91,38.36 129.87,81.62 27.35,35.89 25.76,72.85 -5.46,105.33" /><path
             id="path100"
             style="fill:#ee4023;fill-opacity:1;fill-rule:nonzero;stroke:none"
             d="m 4541.3,3630.4 c -51.19,-50.75 -115.85,-67.22 -185.82,-61.76 -52.26,4.07 -102.14,19.15 -147.95,45.57 -53.2,30.68 -92.03,73.01 -105.57,134.64 -3.08,14 -3.06,28.67 -4.47,43.03 -4.18,92.77 71.57,208.82 168.09,246.2 38.76,15.01 78.03,17.94 117.33,2.9 63.91,-24.43 112.57,-63.43 127.08,-134.86 11.26,-55.44 31.57,-107.82 54.72,-159.27 21.04,-46.82 24.28,-69.18 -23.41,-116.45 m 1084.68,-157.93 c -10.84,13.02 -23.45,25.08 -37.02,35.24 -80.31,60.22 -163,117.5 -255.34,157.41 -117.82,50.94 -233.14,106.02 -342.56,173.39 -44,27.09 -92.73,43.26 -144.03,51.17 -20.72,3.18 -41.3,7.28 -62.01,10.57 -71.72,11.39 -126.84,48.04 -166.5,108.58 -14.48,22.1 -29.11,44.09 -43.96,65.93 -47,69.08 -110.55,112.92 -192.27,133.67 -93.19,23.68 -176.87,9.38 -252.56,-50.11 -58.42,-45.89 -104.14,-101.99 -135.77,-169.34 -22.83,-48.57 -34.08,-99.5 -32.37,-153.44 1.81,-57.16 18.34,-110.18 44.94,-159.95 18.62,-34.89 40.72,-67.89 60.56,-102.13 13.61,-23.47 27.69,-46.88 38.53,-71.65 16.81,-38.46 12.55,-76.43 -12.43,-110.3 -13.75,-18.64 -28.82,-37.04 -46.31,-52.03 -88.71,-75.98 -183.56,-143.51 -285.87,-200.09 -62.38,-34.49 -129.6,-51.18 -201.08,-50.15 -20.2,0.28 -40.44,0.57 -60.62,-0.26 -38.84,-1.58 -77.7,-4.3 -114.38,-18.77 -47.48,-18.71 -75.03,-53.41 -81.34,-104.44 -3.21,-25.95 0.42,-51.21 8.66,-75.75 38.03,-113.18 113.89,-187.98 227.69,-224.62 80.48,-25.92 160.75,-52.58 241.07,-79.03 36.27,-11.95 73.04,-21.09 100.3,-20.8 64.11,-0.03 112.23,15.25 155.33,45.83 44.68,31.7 61.95,74.06 48.82,127.96 -6.06,24.87 -12.35,49.71 -17.93,74.7 -12.89,57.79 1.35,108.09 44.52,148.72 16.84,15.86 35.1,31.54 55.4,42.13 32.17,16.78 66.02,30.88 100.25,43.06 35.77,12.73 73.52,19.95 109.06,33.19 26.77,9.95 53.1,10.76 80.2,7.53 21.55,-2.58 42.94,-6.71 64.29,-10.67 66.39,-12.35 132.44,-16.29 198.06,4.94 40.1,12.99 78.25,30.28 114.34,51.78 45.36,27.04 90.02,55.25 134.92,83.05 44.93,27.82 90,55.39 139.63,74.32 42.68,16.29 86.56,25.52 132.29,17.74 26.73,-4.55 53.35,-10.2 79.56,-17.07 94.96,-24.86 181.8,-6.27 261.04,49.32 18.12,12.7 34.47,29.3 47.89,46.96 20.85,27.41 19.02,56.96 -3,83.41" /><path
             id="path102"
             style="fill:#ee4023;fill-opacity:1;fill-rule:nonzero;stroke:none"
             d="m 1553.39,4378.69 c -17.77,-11.86 -38.36,-20.64 -58.86,-27 -46.55,-14.45 -93.82,-11.55 -140.13,1.91 -30.52,8.88 -56.35,26.66 -76.15,51.42 -14.5,18.11 -28.75,37.11 -39.07,57.73 -24.69,49.3 -47.78,99.45 -69.99,149.91 -14.67,33.31 -7.56,44.72 27.87,51.75 36.54,7.25 72.71,3.45 108.89,-3.46 103.12,-17.64 185.16,-72.26 255.87,-146.58 5.32,-5.59 9.8,-12.1 14.02,-18.59 29.16,-44.87 21.89,-87.5 -22.45,-117.09 m 23.77,387.92 c -21.39,15.43 -44.89,27.87 -66.65,42.82 -28.13,19.31 -57.2,37.79 -82.78,60.16 -50.06,43.79 -75.22,100.17 -73.02,167.23 1.03,31.01 3.62,62.06 7.17,92.9 7.12,62.03 -1.43,120.97 -32.62,175.6 -13.85,24.26 -27.86,48.63 -44.06,71.33 -62.67,87.76 -112.6,181.87 -150.53,282.96 -33.78,90.01 -81.74,172.7 -143.51,246.64 -17.277,20.68 -37.055,40.16 -58.715,56.09 -39.507,29.07 -81.511,27.15 -120.656,-2.83 -40.68,-31.17 -64.316,-73.01 -73.148,-123.26 -8.625,-48.97 3.593,-94.19 26.839,-136.77 12.629,-23.13 27.286,-45.15 41.254,-68.06 -10.265,-25.77 -21.054,-49.91 -29.629,-74.83 -24.835,-72.14 -61.75,-137.5 -111.027,-195.43 -111.902,-131.54 -227.269,-259.77 -361.101,-369.99 -15.559,-12.81 -30.739,-26.42 -44.211,-41.36 -27.063,-29.97 -30.086,-58.62 -10.422,-94.1 7.871,-14.18 17.422,-27.67 27.804,-40.14 37.032,-44.44 79.602,-83.19 127.172,-115.91 24.836,-17.08 51.168,-32.61 78.426,-45.4 42.52,-19.97 88.047,-26.68 134.172,-15.77 34.633,8.18 68.562,19.58 102.453,30.61 31,10.07 61.199,22.63 92.332,32.21 56.328,17.34 106.129,4.37 147.969,-36.83 16.012,-15.76 31.035,-32.7 45.028,-50.3 38.35,-48.27 67.97,-102.03 96.72,-156.31 15.26,-28.81 29.66,-58.25 47.07,-85.74 33.82,-53.41 72.1,-103.44 125.32,-139.51 47.83,-32.43 99.85,-40.69 155.63,-24.33 30.18,8.86 58.03,22.49 83.16,41.1 96.37,71.35 151.64,167.3 164.81,286.02 10.58,95.5 -22.21,174.21 -101.25,231.2" /><path
             id="path104"
             style="fill:#ee4023;fill-opacity:1;fill-rule:nonzero;stroke:none"
             d="m 5740.46,7403.91 c -39.69,-59.59 -110.12,-104 -224.94,-101.79 -51.77,2.29 -122.4,26.32 -181.61,79.18 -12.6,11.24 -23.57,24.77 -33.33,38.63 -29.54,41.87 -28.35,96.17 1.58,137.1 26.41,36.11 60.16,64.04 102.48,77.22 56.14,17.49 113.01,35.6 170.92,43.77 81.7,11.51 179.67,-38.72 197.99,-134.99 9.63,-50.53 -4.96,-96.89 -33.09,-139.12 m 143.6,246.55 c -41.05,60.81 -94.32,104.61 -166.47,123.27 -17.28,4.45 -34.71,8.64 -51.53,14.47 -30.02,10.41 -60.32,20.46 -89.2,33.51 -29.25,13.21 -54.47,32.97 -74.39,58.66 -21.52,27.72 -31.86,59.07 -25.23,93.81 5.37,28.12 13.82,55.64 20.94,83.42 12,46.89 1.77,73.21 -38.66,99.11 -4.56,2.94 -9.28,5.67 -14.1,8.18 -41.45,21.59 -86.04,30.54 -132.29,32.27 -11,0.42 -20.97,1.04 -30.52,8.24 -45.77,34.44 -97.67,41.24 -152.76,32.1 -50.61,-8.4 -97.21,-28.12 -139.79,-55.6 -41.03,-26.47 -79.61,-56.74 -119.2,-85.46 -29.53,-21.42 -57.96,-44.51 -88.61,-64.19 -51.59,-33.12 -107,-39.74 -164.76,-16.69 -28.14,11.22 -56.25,22.46 -84.07,34.43 -46.3,19.94 -94.76,29.07 -153.64,31.17 -18.33,-2.31 -45.51,-4.33 -72.11,-9.36 -63.08,-11.91 -123.03,-32.59 -176.49,-69.28 -22.62,-15.53 -42.75,-33.72 -56.84,-57.63 -25.85,-43.91 -18.95,-87.3 21.76,-117.7 20.93,-15.61 44.82,-28.01 68.8,-38.58 56.84,-25 114.88,-47.29 171.8,-72.08 71.33,-31.07 144.34,-57 219.3,-77.69 29.16,-8.04 58.5,-16.02 86.74,-26.76 117.66,-44.73 215.23,-119.56 304.44,-206.44 7.16,-6.95 13.19,-15.4 18.39,-23.97 14.62,-24.12 11.1,-39.9 -11.89,-55.52 -5.73,-3.91 -12.06,-7.03 -18.37,-10.01 -45.59,-21.63 -92.11,-41.53 -136.64,-65.14 -41.07,-21.77 -80.75,-46.43 -119.68,-71.89 -24.77,-16.2 -45.27,-37.86 -60.23,-64.02 -28.95,-50.65 -18.89,-110.27 25.8,-152.72 41.62,-39.54 90.7,-42.89 142.13,-7.32 21.59,14.95 41.67,32.58 60.43,51.02 58.3,57.26 111.23,119.35 161.25,183.95 11.4,14.73 23.22,29.2 35.7,43.03 16.53,18.29 37.59,24.74 61.4,18.41 15.69,-4.17 31.34,-9.33 46.05,-16.14 28.16,-13.07 55.23,-28.53 83.51,-41.33 33.89,-15.35 68.12,-30.18 103.11,-42.73 14.48,-5.2 26.26,-11.73 36.74,-22.7 26.96,-28.22 56.49,-53.33 91.64,-71.12 45.82,-23.19 92.21,-24.69 139.32,-4.01 35.27,15.48 66.17,37.53 94.68,63 107.11,95.71 172.28,216.75 210.23,353.32 17.58,63.29 11.24,124.57 -26.69,180.71" /><path
             id="path106"
             style="fill:#ee4023;fill-opacity:1;fill-rule:nonzero;stroke:none"
             d="m 2292.72,423.41 c -11.66,-15.14 -25.52,-17.551 -41.81,-7.828 -13.31,7.918 -20.95,20.328 -27.03,33.758 -6.85,15.199 -12.41,30.961 -19.14,46.211 -18.76,42.531 -45.81,56.301 -91.11,47.058 -26.48,-5.39 -49.4,-19.007 -73.26,-30.757 -27.35,-13.473 -54.8,-27.379 -83.52,-37.231 -34.37,-11.789 -70.21,-14.57 -105.56,-1.469 -4.32,1.598 -8.71,3.321 -12.61,5.758 -19.04,11.891 -29.62,27.43 -12,51.34 2.37,3.219 4.63,6.52 5.13,7.242 28.04,41.18 64.27,69.387 100.54,97.399 51.67,39.879 105.34,76.679 164.75,104.211 9.05,4.187 18.17,8.328 27.56,11.57 29.66,10.289 55.35,3.41 74.6,-21.82 9.99,-13.102 18.63,-27.762 25.19,-42.891 17.01,-39.281 36.15,-77.231 59.27,-113.262 17.28,-26.918 26.63,-56.66 26.57,-88.957 -0.06,-21.73 -3.85,-42.512 -17.57,-60.332 m 591.14,-124.871 c -16.66,11.703 -37.26,18.563 -56.94,24.922 -10.13,3.269 -15.19,6.5 -18.22,17.211 -11.43,40.359 -38.09,69.058 -74.41,88.43 -16.31,8.699 -33.98,15.457 -51.74,20.73 -25.25,7.5 -51.22,12.539 -76.77,19.109 -62.78,16.161 -119.72,43.008 -165.22,90.778 -29.38,30.832 -36.94,66.113 -19.67,105.011 10.67,24.04 24.27,46.79 36.57,70.11 10.48,19.902 21.56,39.512 31.26,59.789 9.64,20.183 7.92,40.73 -1.63,60.75 -11.22,23.562 -27.44,43.262 -46.96,60.273 -50.48,43.918 -106.92,74.348 -175.55,77.02 -40.13,1.558 -78.89,-6.301 -116.76,-18.34 -93.26,-29.633 -187.58,-54.891 -283.69,-73.762 -63.38,-12.429 -125.09,-31.398 -183.02,-60.468 -43.01,-21.61 -85.62,-44.2 -127.2,-68.43 -76.13,-44.383 -157.73,-67.199 -245.69,-71.563 -34.57,-1.707 -69.15,-9.539 -102.94,-17.797 -16.81,-4.101 -33.25,-13.531 -47.41,-23.89 -30.89,-22.602 -34.61,-53.633 -9.76,-82.461 11.97,-13.879 26.47,-27.219 42.55,-35.582 32.24,-16.746 65.37,-32.949 99.88,-43.949 85.86,-27.348 171.34,-55.5 254.9,-89.36 59.95,-24.281 122.1,-40.371 186.25,-49.121 62.87,-8.558 121.95,4.133 178.98,29.852 22.66,10.211 45.71,19.57 68.06,30.429 33.89,16.469 63.01,11.051 88.6,-16.378 9.54,-10.223 19.62,-19.942 29.75,-29.61 47.19,-45.07 93.5,-91.14 142.1,-134.652 29.44,-26.32 63.05,-47.91 93.73,-72.938 25.2,-20.562 50.5,-41.48 72.73,-65.0817 28.81,-30.5976 30.82,-66.6992 11.09,-103.46874 -6.95,-12.94926 -15.66,-24.99996 -24.04,-37.12106 -7.51,-10.8516 -16.23,-20.8907 -23.47,-31.918 -26.96,-41.0005 -44.22,-85.3005 -44.59,-123.1325 -0.31,-63.989 18,-109.348 49.83,-149.438 48.46,-61.023 99.74,-73.801 170.85,-42.019 54.75,24.468 106.5,54.449 154.94,89.918 76.83,56.281 131.78,129.011 162.12,219.4488 23.19,69.10942 45.18,138.6407 67.18,208.1402 4.2,13.25 6.68,27.172 8.71,40.95 7.9,53.5 -10.64,96.89 -54.4,127.609" /><path
             id="path108"
             style="fill:#ee4023;fill-opacity:1;fill-rule:nonzero;stroke:none"
             d="m 4637.64,538.582 c -8.09,-23.41 -23.71,-33.383 -48.54,-32.93 -52.09,0.918 -100.73,13.239 -144.37,42.981 -13.61,9.277 -28.29,16.976 -42.31,25.687 -6.58,4.09 -12.74,8.84 -19.1,13.289 -12.85,14.711 -11.23,27.282 6.15,35.68 10.26,4.961 21.32,8.77 32.41,11.352 41.16,9.589 82.4,18.91 123.81,27.351 13.81,2.82 28.25,4.07 42.32,3.59 21.09,-0.723 36.44,-12.602 45.16,-31.371 14.4,-30.988 15.64,-63.352 4.47,-95.629 M 6570.49,48.6211 c 9.81,23.1601 7,39.0703 -16.17,49.918 -19.05,8.9099 -30.15,23.1719 -41.29,39.0629 -7.57,10.789 -15.82,21.218 -24.58,31.05 -43.79,49.207 -94.65,87.457 -160.73,101.25 -43.48,9.047 -86.85,5.047 -129.42,-4.812 -41.59,-9.629 -77.8,-2.188 -111.83,23.73 -27.78,21.16 -57.14,40.309 -86.51,59.27 -75.56,48.769 -157.39,63.601 -245.15,42.781 -10.65,-2.539 -19.37,-0.32 -28.95,3.969 -23.35,10.492 -46.83,20.859 -70.86,29.633 -98.49,35.906 -196.76,72.527 -296.06,106.129 -42.93,14.527 -62.44,47.679 -84.02,84.117 9.02,8.07 16.32,16.133 25.02,22.172 75.42,52.171 151.4,103.531 226.56,156.058 54.5,38.051 113.68,54.762 180.3,48.84 79.51,-7.059 156.48,5.66 229.91,37.441 18.25,7.899 35.81,13.801 55.71,5.352 6.07,-2.57 13.81,-1.691 20.78,-1.703 57.8,-0.047 112.21,14.363 163.66,39.992 11.67,5.82 22.76,13.699 32.35,22.551 9.35,8.629 19.53,10.738 31.45,12.39 26.78,3.688 54.15,6.579 79.71,14.727 44.26,14.113 75.58,43.531 83.78,91.121 3.23,18.77 2.8,38.86 0.22,57.84 -6.32,46.39 -21.63,90.42 -40.18,133.3 -30.81,71.2 -82.23,121.25 -153.54,151.58 -59.84,25.48 -122.15,40.62 -186.9,44.93 -28.04,1.86 -55.8,-2.82 -82.14,-13.28 -49.28,-19.57 -75.17,-60.94 -70.96,-113.76 1.29,-16.24 3.08,-32.6 6.67,-48.45 16.21,-71.29 -3.11,-131.73 -53.07,-183.98 -40.42,-42.27 -84.29,-80.29 -131.33,-115.07 -53.89,-39.868 -112.28,-53.208 -178.14,-39.399 -35.59,7.469 -72.01,11.41 -108.22,15.258 -50.54,5.383 -100.56,-3.348 -150.86,-6.859 -89.88,-6.25 -176.01,-27.11 -260.69,-56.489 -85.04,-29.531 -170.06,-59.301 -255.89,-86.429 -56.88,-17.969 -114.57,-34.172 -174.83,-37.61 -35.63,-2.031 -71.31,-3.91 -106.83,-7.293 -68.81,-6.558 -134.48,-24.547 -194.29,-59.98 -17.85,-10.567 -35.06,-23.438 -49.51,-38.258 -24.76,-25.34 -24.65,-50.789 0.52,-75.871 16.35,-16.289 35.32,-30.52 54.87,-42.918 69.84,-44.313 144.16,-79.742 223.04,-104.621 57.73,-18.192 116.57,-32.781 174.44,-50.492 132.19,-40.418 265.25,-75.957 402.4,-96.657 124.18,-18.75 235.22,-72.781 338.94,-142.23 24.62,-16.5 47.54,-35.02 65.67,-58.9025 21.08,-27.7695 25.47,-58.2773 12.4,-90.11716 -7.32,-17.83204 -17.42,-34.67964 -27.66,-51.11324 -14.8,-23.7071 -31.1,-46.4883 -46.33,-69.9571 -26.96,-41.531 -44.61,-86.602 -53.22,-135.582 -7.43,-42.18 -10.23,-83.059 12.51,-122.109 28.63,-49.192 65.85,-90.239 112.58,-122.621 6.98,-4.84 14.72,-8.708 22.42,-12.36 26.64,-12.64 53.15,-11.879 77.71,4.41 16.76,11.11 33.16,23.352 47.55,37.332 41.81,40.61 83.2,81.719 123.49,123.848 36.56,38.211 69.99,79.121 96.68,125.18 27.11,46.832 40.05,96.601 39.78,151.1091 -0.37,72.89059 27.2,135.3515 82.72,182.9919 25.19,21.598 53.7,39.879 82.44,56.711 60.11,35.199 88.82,28.969 132.27,-24.883 28.55,-35.379 48.46,-75.7379 67.9,-116.4371 11.71,-24.4922125 23.31,-49.1328 36.46,-72.8711 17.13,-30.9297 39.31,-57.8708 69.78,-76.8908 29.4,-18.359 60.88,-26.801 95.54,-18.82 83.03,19.121 129.29,92.41 111.1,175.5194 -1.2,5.4804 -1.29,12.2422 0.83,17.2617" /><path
             id="path110"
             style="fill:#ee4023;fill-opacity:1;fill-rule:nonzero;stroke:none"
             d="m 1456.52,1502.09 c -10.11,1.34 -20.32,2.24 -30.32,4.13 -21.35,4.05 -42.43,9.67 -63.89,12.8 -68.76,10.03 -126.89,41.43 -178.25,86.96 -24.47,21.69 -30.78,45.29 -17.84,75.2 17.87,41.29 47.81,71.54 89.31,88.78 25.12,10.45 50.58,8.3 71.69,-9.81 14.06,-12.08 26.97,-26.16 37.87,-41.2 32.68,-45.08 64.4,-90.88 95.82,-136.87 8.46,-12.39 15.8,-25.94 21.36,-39.89 9.4,-23.64 -0.21,-37.28 -25.75,-40.1 m 1288.8,1003.75 c -25.46,0.25 -51.41,-1.52 -76.36,-6.38 -65.55,-12.77 -124.94,-1.45 -178.43,39.07 -12.99,9.85 -26.3,19.27 -39.46,28.92 -26.93,19.72 -52.79,41.22 -81.13,58.71 -26.21,16.18 -54.12,30.74 -83.04,41.19 -38.62,13.95 -76.64,10.04 -110.22,-19.78 -78.57,18.55 -154.44,40.51 -225.94,75.81 -60.56,29.9 -60.77,30.36 -76.64,96.45 -13.91,57.94 -0.26,107.77 42.28,149.2 12.75,12.42 26.72,23.79 41.19,34.14 35.31,25.24 75.87,38.45 117.31,49.71 27.66,7.5 55.92,14.2 82.13,25.43 59.95,25.7 93.55,72.37 100.37,137.59 4.3,41.2 -5.28,80.46 -19.34,118.52 -29.84,80.78 -60.41,161.29 -91.46,241.62 -12.93,33.46 -30.21,64.75 -54.42,91.72 -16.28,18.14 -34.64,33.42 -57.54,42.62 -36.85,14.78 -71.86,4.37 -94.17,-28.34 -12.51,-18.34 -19.77,-38.96 -21.55,-60.85 -2.45,-30.17 -2.53,-60.52 -4.77,-90.71 -1.77,-23.92 -3.66,-48.04 -8.34,-71.51 -8.85,-44.38 -32.7,-81.97 -58.9,-117.87 -27.46,-37.67 -56.12,-74.47 -84.07,-111.78 -51.89,-69.28 -89.73,-145.08 -106.15,-230.69 -14.11,-73.61 -50.54,-134.58 -104.93,-185.37 -15.91,-14.86 -31.92,-29.59 -47.86,-44.42 -8.53,-7.94 -17.38,-15.6 -25.43,-24 -23.57,-24.55 -25.22,-39.69 -5.44,-67.92 10.66,-15.19 22.99,-29.39 35.78,-42.89 53.31,-56.21 115.72,-101.14 180.03,-143.63 21.39,-14.12 43.32,-27.52 63.99,-42.63 6.88,-5.03 13.94,-13.85 15.21,-21.84 8.4,-52.56 6.14,-104.14 -23.88,-150.56 -13.89,-21.47 -30.02,-41.49 -44.9,-62.34 -17.23,-24.15 -40.55,-39.45 -67.56,-51.31 -114.31,-50.17 -233.69,-83.43 -355.54,-108.68 -7.21,-1.49 -15.14,-0.12 -22.67,0.64 -28.52,2.82 -57.06,8.69 -85.51,8.32 -41.26,-0.52 -82.08,-8.41 -120.41,-24.15 -44.5,-18.27 -88.788,-37.32 -131.855,-58.71 -63.351,-31.42 -129.672,-51.22 -199.633,-60.57 -55.503,-7.43 -110.078,-19.52 -162.039,-41.23 -43.976,-18.36 -86.273,-39.82 -119.941,-74.5 -37.043,-38.15 -32.473,-75.32 12.027,-104.45 7.114,-4.67 14.711,-8.76 22.489,-12.2 25.109,-11.14 51.523,-17.05 78.914,-18.7 50.851,-3.05 98.894,8.18 144.484,29.95 27.313,13.05 53.332,28.92 80.969,41.17 21.097,9.36 43.34,18.21 65.93,21.66 49.632,7.59 92.332,-11.26 126.835,-45.7 21.278,-21.22 39.25,-46.07 56.84,-70.62 24.04,-33.55 48.67,-66.38 78.67,-94.96 52.46,-49.99 112.88,-87.76 179.63,-114.85 89.36,-36.26 180.94,-65.64 277.26,-77.14 38.8,-4.62 76.03,2.15 109.76,22.53 55.23,33.36 69.02,90.03 33.57,143.81 -18.33,27.81 -39.55,53.83 -60.99,79.38 -24.94,29.75 -53.28,56.75 -77,87.38 -31.17,40.26 -28.84,72.9 4.08,111.46 8.52,9.98 18.13,19.32 28.41,27.49 18.84,14.97 38.25,29.29 57.99,43.08 61.77,43.15 123.59,86.26 185.84,128.7 28.86,19.67 58.3,38.6 88.36,56.39 65.94,39 136.79,48.04 211.22,31.66 70.29,-15.46 140.77,-24.01 212.24,-7.4 5.51,1.28 12.51,0.08 17.79,-2.28 36.44,-16.26 74.71,-17.52 111.83,-7.65 66.68,17.72 132.44,38.88 198.42,59.09 10.31,3.17 20.17,8.24 29.67,13.48 97.83,53.84 147.64,137.58 149.09,248.37 0.89,67.26 -46.12,112.71 -113.09,113.35" /><path
             id="path112"
             style="fill:#ee4023;fill-opacity:1;fill-rule:nonzero;stroke:none"
             d="m 2307.17,5755.12 c -1.29,-23.47 -5.88,-46.27 -17.79,-66.73 -4.92,-8.44 -11.69,-16.47 -19.31,-22.58 -17.71,-14.19 -34.93,-11.62 -47.48,7.35 -7.62,11.52 -14.38,24.18 -18.61,37.26 -17.08,52.89 -43.83,100.78 -73.86,147.14 -27.82,42.95 -54.69,86.52 -83.14,129.05 -16.78,25.07 -35.1,49.21 -54.03,72.72 -29.32,36.42 -23.79,75.73 -2.37,100.33 29.51,34.14 67.25,51.26 112.26,51.77 23.35,0.26 39.68,-12.75 49.37,-33.09 11.35,-23.78 20.68,-48.52 32.11,-72.27 28.24,-58.69 56.97,-117.14 85.88,-175.49 27.46,-55.4 40.35,-113.7 36.97,-175.46 m 685.22,-45.03 c -5.4,8.44 -6.7,16.54 -5.29,26.39 2.52,17.66 3.49,35.55 4.79,49.88 -1.17,70.01 -17.31,132.48 -50.5,190.31 -3.09,5.38 -6.53,10.59 -10.24,15.55 -23.55,31.63 -45.77,36.06 -77.49,13.44 -15.08,-10.75 -29.92,-22.88 -41.67,-37.05 -31.26,-37.57 -61.31,-76.2 -90.81,-115.2 -20.61,-27.23 -39.04,-56.12 -59.44,-83.52 -9.7,-13.01 -20.88,-25.22 -32.9,-36.12 -35.53,-32.13 -91.72,-147.23 -121.43,-109.24 -10.92,13.97 -20.36,29.49 -28.18,45.42 -13.68,27.84 -25.92,56.4 -38.19,84.91 -45.5,105.63 -80.91,214.87 -115.51,324.4 -16.88,53.43 -37.52,105.31 -68.16,152.62 -19.13,29.53 -41.15,56.47 -70.07,77.22 -35.54,25.52 -74.01,31.3 -114.85,16.16 -17.39,-6.44 -34.43,-14.51 -50.39,-23.93 -63.37,-37.34 -119.97,-83.25 -169.01,-138.14 -42.39,-47.43 -76.05,-100.24 -95.03,-161.39 -27.23,-87.65 -13.65,-167.29 48.71,-236.59 12.99,-14.42 26.58,-28.35 40.44,-41.94 22.22,-21.77 43.78,-43.6 58.6,-71.83 9.26,-17.68 23.07,-33.07 35.47,-49 13.34,-17.17 27.81,-33.48 41.08,-50.73 18.63,-24.23 33.13,-50.61 39.56,-80.95 11.22,-52.92 -2.2,-101.59 -25.22,-148.67 -17.28,-35.36 -44.25,-54.38 -84.93,-54.07 -19.22,0.14 -38.85,-2.49 -57.65,-6.72 -38.85,-8.76 -71.08,-30.57 -100.8,-56.15 -55.98,-48.16 -99.56,-106.7 -138.25,-168.9 -22.87,-36.75 -29.19,-78.7 -26.24,-121.11 1.25,-17.97 7.48,-36.86 16.14,-52.8 29.92,-55 89.24,-69.62 140.72,-34.15 19.51,13.45 37.83,30.61 51.79,49.66 23.78,32.48 44.38,67.38 65.03,102.01 21.07,35.34 40.31,71.76 60.98,107.34 6.98,12.04 15.18,23.56 24.04,34.31 27.2,33 49.82,35.83 83.91,9.26 15.22,-11.85 29.24,-25.65 42.09,-40.1 53.42,-60.06 92,-128.95 115.91,-205.47 32.85,-105.17 66.01,-210.15 107.08,-312.5 24.9,-62.05 42.35,-126.44 57.09,-191.66 7.5,-33.25 17.04,-66.12 27.48,-98.58 9.82,-30.52 25.22,-58.47 47.41,-82.1 32.82,-34.96 72.61,-46.23 118.8,-33.53 11.91,3.28 23.72,7.52 34.91,12.74 41.44,19.43 76.55,47.55 106.15,82.16 69.46,81.21 104.67,177.09 116.53,281.95 8.77,77.62 -14.6,145.77 -66.87,203.91 -6.75,7.5 -12.53,16.33 -20.43,22.31 -25.11,18.94 -29.22,41.8 -25.06,72.83 11.23,83.87 54.56,282.39 93.38,358.08 24.8,48.33 48.49,97.24 71.6,146.39 8.73,18.57 19.35,34.67 34.48,48.83 39.85,37.33 75.17,78.46 101.77,126.68 34.67,62.91 38.39,125.29 -1.33,187.38" /><path
             id="path114"
             style="fill:#ee4023;fill-opacity:1;fill-rule:nonzero;stroke:none"
             d="m 372.348,3818.91 c -18.594,-13.37 -39.09,-24.88 -60.172,-33.87 -136.957,-58.49 -270.5276,-46.87 -400.0588,23 -42.5972,22.97 -73.4762,56.52 -77.5822,107.68 -1.172,14.75 -0.351,30.22 2.738,44.67 12.899,60.21 71.6137,138.3 160.21528,154.7 40.00002,11.55 81.75002,5.5 120.05872,-14.55 31.844,-16.65 63.418,-35.74 90.558,-59.04 54.868,-47.08 106.676,-97.71 159.645,-146.99 4.391,-4.08 8.18,-8.88 11.844,-13.66 18.84,-24.55 17.668,-44.04 -7.246,-61.94 m 1378.892,-314.4 c -2.41,54.4 -33.53,99.16 -84.78,116.84 -15.96,5.51 -33.14,8.86 -49.99,10.12 -31.74,2.37 -63.63,3 -95.49,3.47 -46.04,0.66 -88.94,12.52 -129.31,34.23 -39.91,21.47 -75.62,48.91 -110.01,78.14 -45.07,38.29 -88.37,78.35 -124.79,125.31 -34.87,44.95 -51.39,95.27 -45.58,152.28 4.01,39.4 8.38,78.76 13.29,124.73 -1.45,16 -1.75,38.72 -5.85,60.72 -11.39,61.02 -42.22,111.24 -89.27,151.5 -6.74,5.78 -10.94,11.18 -11.58,21.07 -6.33,98.81 -59.536,166.42 -145.677,208.68 -64.277,31.52 -126.664,18.67 -177.246,-32.33 -14.699,-14.8 -27.816,-31.47 -39.859,-48.55 -16.536,-23.48 -31.692,-47.95 -46.844,-72.37 -51.676,-83.3 -108.418,-163.03 -169.609,-239.55 -14.5,-18.14 -30.684,-35.16 -47.653,-51.03 -24.625,-23.05 -54.906,-33.26 -88.144,-27.28 -25.813,4.63 -51.313,12.23 -76.149,20.82 -37.41,12.95 -73.789,28.81 -111.172,41.81 -69.2418,24.08 -139.7184,29.33 -210.6012,7.68 -91.2378,-27.89 -172.4258,-74.24 -243.7778,-137.34 -14.375,-12.73 -27.273,-27.95 -37.851,-43.99 -27.664,-41.96 -21.738,-79.61 17.746,-110.66 17.562,-13.82 37.434,-25.05 57.266,-35.59 54.164,-28.79 109.828,-54.88 163.132,-85.14 102.9106,-58.41 204.8324,-118.57 307.235,-177.85 12.222,-0.53 24.461,-0.89 36.691,-0.86 87.055,0.23 173.692,9.39 260.664,11.46 111.852,2.66 230.348,-12.61 320.5,-67.73 38.543,-14.2 74.035,-34.9 104.684,-64.12 29.316,-15.88 55.117,-40.5 77.394,-74.28 9.829,-14.88 18.231,-30.71 26.911,-46.31 11.32,-20.35 21.67,-41.28 33.49,-61.33 22.77,-38.66 52.09,-71.6 89.38,-96.89 68.93,-46.74 144.52,-69.27 227.4,-54.17 94,17.14 182.42,50.78 262.89,102.94 47.85,31.01 84.16,73.32 110.94,123.64 21.93,41.2 33.71,84.73 31.62,131.93" /><path
             id="path116"
             style="fill:#ee4023;fill-opacity:1;fill-rule:nonzero;stroke:none"
             d="m 1148.79,6995.5 c -22.34,-52 -98.29,-124.49 -185.204,-120.52 -63.992,2.31 -116.789,28.27 -157.754,77.21 -37.332,44.59 -33.293,95.17 10.566,134.12 36.25,32.18 79.965,50.23 126.664,60.72 41.411,9.31 83.018,10.2 124.008,-3.44 22.4,-7.47 42.57,-18.64 59.55,-35.25 32.78,-32.09 40.27,-70.71 22.17,-112.84 m 996.46,-484.77 c -8.62,9.9 -18.43,18.82 -28.31,27.51 -37.86,33.36 -76.08,66.32 -113.92,99.71 -19.79,17.48 -38.34,36.46 -58.8,53.09 -16.8,13.66 -34.7,26.49 -53.67,36.8 -33.01,17.94 -68.87,25.29 -105.78,15.1 -24.51,-6.76 -48.44,-16.17 -71.82,-26.31 -19.84,-8.58 -38.52,-19.91 -56.47,-29.36 -15.96,6.13 -30.13,12.71 -44.95,16.99 -14.85,4.28 -30.3,6.66 -45.6,9.13 -15.32,2.49 -30.79,4.08 -46.2,6.05 -140.23,17.98 -244.26,139.73 -260.31,246.44 -5.42,36.06 -8.24,72.5 -12.2,108.77 -9.28,84.57 -49.49,149.28 -124.02,191.34 -36.44,20.56 -75.68,28.24 -116.86,18.16 -22.531,-5.51 -45.293,-11.54 -66.508,-20.69 -95.656,-41.24 -189.027,-87.11 -277.551,-142.3 -44.98,-28.04 -86.937,-60.05 -123.734,-98.41 -23.231,-24.21 -43.832,-50.27 -57.645,-81.31 -19.464,-43.75 -15.437,-85.36 13.227,-123 13.461,-17.67 29.851,-34.21 47.949,-46.95 21.356,-15.05 44.93,-28.43 69.449,-37.2 42.297,-15.1 86.118,-25.94 129.219,-38.84 40.082,-12 80.656,-22.75 119.93,-37.03 36.664,-13.33 68.953,-35.39 99.222,-60.14 91.392,-74.68 127.512,-170.92 113.272,-287.37 -3.9,-31.78 -10.7,-61.31 -27.87,-89.8 -32.92,-54.63 -38.36,-114.26 -17.59,-175 9,-26.34 19.45,-52.39 31.63,-77.42 48.43,-99.52 108.2,-192.1 175.84,-279.56 61.78,-79.91 124.2,-159.29 178.26,-244.84 8.23,-13.02 18.27,-25.32 29.31,-36.06 21.16,-20.6 43.14,-22.92 67.52,-6.14 14.53,10.01 28.38,22.17 39.47,35.85 92.71,114.33 146.04,242.44 136.99,392.67 -2.18,36.36 -1.57,73.09 0.83,109.45 4.32,65.56 32.32,122.94 69.17,175.62 54.75,78.27 110.99,155.51 167.85,232.28 24.97,33.71 53.62,64.56 87.21,90.3 30,23.01 63.16,36.28 101.6,33.91 4.65,-0.29 9.33,-0.15 13.99,0.07 9.42,0.44 19.36,0.83 24.22,10.62 5.24,10.56 0.33,20.21 -6.35,27.87" /><path
             id="path118"
             style="fill:#ee4023;fill-opacity:1;fill-rule:nonzero;stroke:none"
             d="m 5152.82,5994.5 c -22.35,-52.01 -98.3,-124.49 -185.21,-120.53 -63.99,2.32 -116.79,28.27 -157.75,77.21 -37.33,44.59 -33.3,95.17 10.56,134.12 36.25,32.19 79.97,50.23 126.67,60.72 41.41,9.32 83.01,10.2 124,-3.44 22.4,-7.47 42.57,-18.63 59.55,-35.24 32.79,-32.1 40.28,-70.72 22.18,-112.84 m 1256.14,527.6 c -37.71,80.96 -98.47,136.79 -183.59,164.72 -62.54,20.51 -113.64,57.22 -154.71,107.75 -30.36,37.37 -59.22,75.98 -87.94,114.64 -26.19,35.29 -35.27,38.15 -68.66,10 -34.43,-29.02 -66.26,-61.06 -99.8,-91.15 -39.31,-35.25 -78.32,-70.92 -119.29,-104.15 -17.79,-14.42 -39.38,-24.99 -60.62,-34.15 -32.89,-14.18 -66.25,-11.05 -95.43,9.72 -20.7,14.75 -41,31.43 -57.21,50.82 -29.33,35.11 -56.45,72.21 -82.65,109.75 -24.45,35.01 -45.33,72.51 -70.02,107.33 -16.98,23.92 -35.85,47.19 -57.3,67.06 -34.31,31.81 -76.5,44.75 -122.94,35.08 -22.52,-4.69 -45.4,-11.81 -65.64,-22.5 -64.52,-34.13 -111.82,-85.62 -142.96,-151.63 -24.5,-51.91 -26.48,-105.25 -5.07,-158.27 10.7,-26.5 24.83,-51.72 38.79,-76.77 19.27,-34.58 41.46,-67.6 59.49,-102.78 29.34,-57.25 22.69,-112.46 -14.97,-164.44 -23.44,-32.35 -50.78,-61.19 -81.95,-85.72 -54.32,-42.75 -109.6,-84.32 -165.36,-125.18 -39.46,-28.93 -81.06,-54.96 -120.4,-84.06 -21.73,-16.07 -42.22,-34.43 -60.7,-54.19 -26.04,-27.83 -31.68,-61.12 -18.83,-97.5 9.51,-26.95 25.51,-49.67 44.48,-70.44 36.54,-39.99 79.77,-71.36 126.82,-97.84 70.37,-39.59 145.25,-52.95 224.93,-39.74 27.58,4.58 55.21,8.84 82.84,13.12 64.18,9.9 122.05,-3.68 171.84,-46.64 11.17,-9.64 22.27,-19.45 32.55,-30 52.42,-53.84 93.72,-115.81 131.55,-180.34 18.07,-30.83 36.03,-61.72 55,-91.99 14.49,-23.12 31.55,-44.32 53.74,-60.84 34.83,-25.91 72.87,-31.41 111.94,-13.03 20.01,9.44 39.4,22.4 55.49,37.56 49.4,46.52 78.79,105.13 96.07,170.19 10.72,40.41 12.9,81.15 4.56,122.31 -6.45,31.86 -21.46,59.69 -41.44,87.42 25.77,38.38 39.94,80.35 50.29,123.45 22.27,92.75 56.35,180.61 104.51,262.99 34.09,58.34 67.52,117.07 102.14,175.09 15.11,25.32 31.12,50.31 49.17,73.55 14.65,18.87 31.4,36.84 49.98,51.77 35.52,28.55 69.63,29.03 107.42,3.86 14.17,-9.44 27.11,-20.8 40.18,-31.77 20.24,-16.99 39.26,-35.56 60.43,-51.25 15.41,-11.44 32.59,-21.6 50.5,-28.34 37.63,-14.15 70.7,-0.1 86.15,36.88 7,16.78 10.76,35.86 11.6,54.09 1.69,37.16 -9.43,72.17 -24.98,105.56" /><path
             id="path120"
             style="fill:#ee4023;fill-opacity:1;fill-rule:nonzero;stroke:none"
             d="m 4920.87,1739.33 c -17,-7.22 -33.43,-16.62 -51.1,-21.31 -83.99,-22.32 -169.4,-30.62 -255.92,-19.63 -18.96,2.41 -38.28,7.72 -55.64,15.66 -38.76,17.71 -54.32,50.96 -39.01,91.8 22.66,60.43 63.4,95.58 128.63,95.35 72.5,-0.25 144.07,-9.21 213.08,-32.34 19.61,-6.57 38.9,-15.91 56.17,-27.27 43.61,-28.71 44.12,-68.76 3.79,-102.26 m 1448.33,580.5 c -23.2,92.08 -70.58,166.74 -155.35,214.1 -45.14,25.23 -93.48,41.82 -144.19,51.37 -38.7,7.28 -78.61,10.45 -114.2,-7.99 -32.06,-16.63 -65.21,-24.76 -99.92,-32.26 -64.21,-13.89 -111.1,-53.46 -143.77,-109.86 -14.01,-24.18 -26.29,-49.36 -40.35,-73.5 -36.44,-62.6 -92.34,-86.95 -162.99,-81.11 -20.9,1.73 -41.76,3.99 -62.65,6.02 -42.77,4.16 -83.92,-1.81 -122.09,-22.08 -32.22,-17.1 -64,-35.11 -95.47,-53.6 -56.55,-33.2 -116.04,-59.49 -179.12,-77.36 -126.91,-35.93 -253.94,-71.45 -380.93,-107.1 -68.92,-19.37 -136.84,-41.26 -198.64,-78.58 -31.5,-19.01 -60.42,-41.06 -82.44,-71.06 -27.26,-37.15 -32.55,-77.4 -11.47,-118.36 11.95,-23.24 26.84,-45.71 44.06,-65.32 59.91,-68.27 135.84,-112.74 221.05,-141.86 84.12,-28.74 170.52,-41.37 259.06,-29.03 47.56,6.63 94.95,15.6 141.74,26.41 69.88,16.16 134,7.19 192.67,-35.48 31.42,-22.85 63.45,-44.84 95.11,-67.35 58.31,-41.46 117.57,-81.65 182.63,-111.73 32.92,-15.24 67.27,-29.37 102.49,-37.24 76,-17 139.55,8.13 188.4,68.3 33.75,41.58 30.76,86.57 -6.16,125.99 -18.34,19.55 -39.9,35.03 -64.3,45.47 -32.07,13.71 -64.54,26.83 -97.7,37.53 -88.84,28.64 -175.54,62.5 -260.06,102.01 -16.14,7.54 -32.3,15.48 -47.24,25.12 -31.61,20.39 -34.53,40.3 -9.25,68.73 14.9,16.77 31.74,32.01 48.87,46.57 52.12,44.28 104.7,88.02 157.32,131.69 16.73,13.88 34.2,26.9 51.31,40.35 28.78,22.63 60.87,28.19 96.68,21.73 34.3,-6.19 69.09,-9.69 86.71,-12.08 54.06,-0.39 90.39,4.48 124.75,17.2 44.35,16.42 88.29,34.26 131.29,53.93 61.37,28.11 125,45.71 192.31,51.48 33.15,2.86 66.35,7.46 97.28,21.59 41.66,19.05 65.5,51.12 71,96.5 3.31,27.3 0.26,54.3 -6.44,80.86" /><path
             id="path122"
             style="fill:#034ec9;fill-opacity:1;fill-rule:nonzero;stroke:none"
             d="m 4404.86,8426.96 c 0,291.47 -236.28,527.76 -527.75,527.76 -291.47,0 -527.76,-236.29 -527.76,-527.76 0,-291.47 236.29,-527.75 527.76,-527.75 291.47,0 527.75,236.28 527.75,527.75" /><path
             id="path124"
             style="fill:#034ec9;fill-opacity:1;fill-rule:nonzero;stroke:none"
             d="m 1689.77,7364.2 c 0,291.47 -236.29,527.75 -527.76,527.75 -291.475,0 -527.756,-236.28 -527.756,-527.75 0,-291.48 236.281,-527.76 527.756,-527.76 291.47,0 527.76,236.28 527.76,527.76" /><path
             id="path126"
             style="fill:#034ec9;fill-opacity:1;fill-rule:nonzero;stroke:none"
             d="m 3419.69,6994.82 c 0,291.47 -236.28,527.76 -527.75,527.76 -291.47,0 -527.76,-236.29 -527.76,-527.76 0,-291.47 236.29,-527.76 527.76,-527.76 291.47,0 527.75,236.29 527.75,527.76" /><path
             id="path128"
             style="fill:#034ec9;fill-opacity:1;fill-rule:nonzero;stroke:none"
             d="m 5806.81,7463.27 c 0,291.46 -236.28,527.75 -527.75,527.75 -291.48,0 -527.76,-236.29 -527.76,-527.75 0,-291.48 236.28,-527.76 527.76,-527.76 291.47,0 527.75,236.28 527.75,527.76" /><path
             id="path130"
             style="fill:#034ec9;fill-opacity:1;fill-rule:nonzero;stroke:none"
             d="m 613.344,6274.2 c 0,291.47 -236.282,527.75 -527.7542,527.75 -291.4728,0 -527.7578,-236.28 -527.7578,-527.75 0,-291.48 236.285,-527.76 527.7578,-527.76 291.4722,0 527.7542,236.28 527.7542,527.76" /><path
             id="path132"
             style="fill:#034ec9;fill-opacity:1;fill-rule:nonzero;stroke:none"
             d="m 2513.72,5674.3 c 0,291.47 -236.29,527.76 -527.76,527.76 -291.47,0 -527.76,-236.29 -527.76,-527.76 0,-291.47 236.29,-527.75 527.76,-527.75 291.47,0 527.76,236.28 527.76,527.75" /><path
             id="path134"
             style="fill:#034ec9;fill-opacity:1;fill-rule:nonzero;stroke:none"
             d="m 5259.68,5966.71 c 0,291.47 -236.28,527.76 -527.75,527.76 -291.48,0 -527.76,-236.29 -527.76,-527.76 0,-291.47 236.28,-527.76 527.76,-527.76 291.47,0 527.75,236.29 527.75,527.76" /><path
             id="path136"
             style="fill:#034ec9;fill-opacity:1;fill-rule:nonzero;stroke:none"
             d="m 6784.28,5675.43 c 0,291.47 -236.28,527.76 -527.75,527.76 -291.48,0 -527.76,-236.29 -527.76,-527.76 0,-291.47 236.28,-527.76 527.76,-527.76 291.47,0 527.75,236.29 527.75,527.76" /><path
             id="path138"
             style="fill:#034ec9;fill-opacity:1;fill-rule:nonzero;stroke:none"
             d="m 1308.18,4420.83 c 0,291.47 -236.29,527.76 -527.758,527.76 -291.473,0 -527.758,-236.29 -527.758,-527.76 0,-291.47 236.285,-527.76 527.758,-527.76 291.468,0 527.758,236.29 527.758,527.76" /><path
             id="path140"
             style="fill:#034ec9;fill-opacity:1;fill-rule:nonzero;stroke:none"
             d="m 3338.08,4761.56 c 0,291.47 -236.28,527.76 -527.76,527.76 -291.47,0 -527.75,-236.29 -527.75,-527.76 0,-291.47 236.28,-527.75 527.75,-527.75 291.48,0 527.76,236.28 527.76,527.75" /><path
             id="path142"
             style="fill:#034ec9;fill-opacity:1;fill-rule:nonzero;stroke:none"
             d="m 5690.19,4342.1 c 0,291.47 -236.29,527.76 -527.76,527.76 -291.47,0 -527.75,-236.29 -527.75,-527.76 0,-291.47 236.28,-527.76 527.75,-527.76 291.47,0 527.76,236.29 527.76,527.76" /><path
             id="path144"
             style="fill:#034ec9;fill-opacity:1;fill-rule:nonzero;stroke:none"
             d="m 237.668,3249.03 c 0,291.47 -236.28519,527.75 -527.758,527.75 -291.469,0 -527.754,-236.28 -527.754,-527.75 0,-291.48 236.285,-527.76 527.754,-527.76 291.47281,0 527.758,236.28 527.758,527.76" /><path
             id="path146"
             style="fill:#034ec9;fill-opacity:1;fill-rule:nonzero;stroke:none"
             d="m 2345.75,2221.66 c 0,291.47 -236.28,527.76 -527.75,527.76 -291.47,0 -527.76,-236.29 -527.76,-527.76 0,-291.47 236.29,-527.76 527.76,-527.76 291.47,0 527.75,236.29 527.75,527.76" /><path
             id="path148"
             style="fill:#034ec9;fill-opacity:1;fill-rule:nonzero;stroke:none"
             d="m 4870.64,2987.85 c 0,291.47 -236.29,527.75 -527.76,527.75 -291.47,0 -527.76,-236.28 -527.76,-527.75 0,-291.47 236.29,-527.76 527.76,-527.76 291.47,0 527.76,236.29 527.76,527.76" /><path
             id="path150"
             style="fill:#034ec9;fill-opacity:1;fill-rule:nonzero;stroke:none"
             d="m 6398.48,2536.29 c 0,291.47 -236.29,527.75 -527.76,527.75 -291.47,0 -527.75,-236.28 -527.75,-527.75 0,-291.47 236.28,-527.76 527.75,-527.76 291.47,0 527.76,236.29 527.76,527.76" /><path
             id="path152"
             style="fill:#034ec9;fill-opacity:1;fill-rule:nonzero;stroke:none"
             d="m 1659.54,815.852 c 0,291.468 -236.29,527.748 -527.76,527.748 -291.471,0 -527.753,-236.28 -527.753,-527.748 0,-291.481 236.282,-527.762 527.753,-527.762 291.47,0 527.76,236.281 527.76,527.762" /><path
             id="path154"
             style="fill:#034ec9;fill-opacity:1;fill-rule:nonzero;stroke:none"
             d="m 3504.14,1295.14 c 0,291.47 -236.29,527.75 -527.76,527.75 -291.47,0 -527.76,-236.28 -527.76,-527.75 0,-291.48 236.29,-527.757 527.76,-527.757 291.47,0 527.76,236.277 527.76,527.757" /><path
             id="path156"
             style="fill:#034ec9;fill-opacity:1;fill-rule:nonzero;stroke:none"
             d="m 5591.73,1386.75 c 0,291.47 -236.28,527.76 -527.75,527.76 -291.48,0 -527.76,-236.29 -527.76,-527.76 0,-291.47 236.28,-527.75 527.76,-527.75 291.47,0 527.75,236.28 527.75,527.75" /><path
             id="path158"
             style="fill:#034ec9;fill-opacity:1;fill-rule:nonzero;stroke:none"
             d="m 4324.66,-246.531 c 0,291.4724 -236.29,527.761 -527.76,527.761 -291.47,0 -527.76,-236.2886 -527.76,-527.761 0,-291.469 236.29,-527.758 527.76,-527.758 291.47,0 527.76,236.289 527.76,527.758" /></g></g></g></g></svg>