<?xml version="1.0" encoding="UTF-8" standalone="no"?>
<svg
   xmlns:dc="http://purl.org/dc/elements/1.1/"
   xmlns:cc="http://creativecommons.org/ns#"
   xmlns:rdf="http://www.w3.org/1999/02/22-rdf-syntax-ns#"
   xmlns:svg="http://www.w3.org/2000/svg"
   xmlns="http://www.w3.org/2000/svg"
   viewBox="0 0 793.70667 1122.52"
   height="1122.52"
   width="793.70667"
   xml:space="preserve"
   id="svg2"
   version="1.1"><metadata
     id="metadata8"><rdf:RDF><cc:Work
         rdf:about=""><dc:format>image/svg+xml</dc:format><dc:type
           rdf:resource="http://purl.org/dc/dcmitype/StillImage" /></cc:Work></rdf:RDF></metadata><defs
     id="defs6"><clipPath
       id="clipPath20"
       clipPathUnits="userSpaceOnUse"><path
         id="path18"
         d="M 0,8418.9 V 0 h 5952.76 v 8418.9 z" /></clipPath></defs><g
     transform="matrix(1.3333333,0,0,-1.3333333,0,1122.52)"
     id="g10"><g
       transform="scale(0.1)"
       id="g12"><g
         id="g14"><g
           clip-path="url(#clipPath20)"
           id="g16"><path
             id="path22"
             style="fill:#034ec9;fill-opacity:1;fill-rule:nonzero;stroke:none"
             d="m 4468.7,8103.55 c -96.33,0 -415.53,25.15 -753.48,51.76 -320.11,25.2 -651.11,51.26 -741.4,51.26 -90.28,0 -420.58,-26.06 -739.99,-51.26 -337.23,-26.61 -655.75,-51.76 -752.09,-51.76 -96.34,0 -414.33,25.15 -751.002,51.76 -318.883,25.2 -648.6247,51.26 -738.89816,51.26 v 153.76 c 96.34376,0 414.33616,-25.13 751.00816,-51.75 318.882,-25.2 648.622,-51.26 738.892,-51.26 90.29,0 420.58,26.06 739.99,51.26 337.23,26.62 655.76,51.75 752.09,51.75 96.33,0 415.53,-25.13 753.47,-51.75 320.11,-25.2 651.12,-51.26 741.41,-51.26 90.28,0 421.3,26.06 741.4,51.26 337.94,26.62 657.14,51.75 753.47,51.75 v -153.76 c -90.28,0 -421.29,-26.06 -741.4,-51.26 -337.94,-26.61 -657.14,-51.76 -753.47,-51.76" /><path
             id="path24"
             style="fill:#034ec9;fill-opacity:1;fill-rule:nonzero;stroke:none"
             d="m 4469.34,7799.68 c -192.24,0 -479.98,52.89 -758.25,104.03 -272.85,50.15 -554.98,102 -735.99,102 -181,0 -462.67,-51.85 -735.05,-101.99 -277.81,-51.15 -565.08,-104.04 -757.3,-104.04 -192.24,0 -479.14,52.89 -756.598,104.04 -272.027,50.14 -553.32,101.99 -734.31216,101.99 v 123 c 192.24216,0 479.14016,-52.88 756.60116,-104.03 272.019,-50.14 553.319,-102 734.309,-102 180.99,0 462.65,51.86 735.03,102 277.82,51.15 565.09,104.03 757.32,104.03 192.22,0 479.95,-52.88 758.23,-104.02 272.85,-50.15 554.99,-102.01 736.01,-102.01 181.01,0 463.15,51.86 736,102.01 278.26,51.14 566,104.02 758.23,104.02 v -123 c -181.01,0 -463.15,-51.85 -736,-102 -278.27,-51.14 -566,-104.03 -758.23,-104.03" /><path
             id="path26"
             style="fill:#034ec9;fill-opacity:1;fill-rule:nonzero;stroke:none"
             d="m 4469.97,7495.8 c -287.36,0 -528.3,79.74 -761.29,156.87 -236.46,78.26 -459.82,152.18 -732.31,152.18 -272.48,0 -495.59,-73.92 -731.81,-152.18 -232.76,-77.13 -473.45,-156.87 -760.81,-156.87 -287.37,0 -527.875,79.75 -760.469,156.87 -236.023,78.26 -458.961,152.18 -731.44116,152.18 v 92.26 c 287.37916,0 527.88716,-79.75 760.48016,-156.87 236.024,-78.27 458.95,-152.19 731.43,-152.19 272.47,0 495.59,73.93 731.81,152.19 232.76,77.12 473.44,156.87 760.81,156.87 287.37,0 528.3,-79.75 761.3,-156.87 236.46,-78.26 459.81,-152.19 732.3,-152.19 272.49,0 495.85,73.93 732.31,152.19 232.99,77.12 473.93,156.87 761.29,156.87 v -92.26 c -272.49,0 -495.85,-73.92 -732.31,-152.18 -232.99,-77.13 -473.93,-156.87 -761.29,-156.87" /><path
             id="path28"
             style="fill:none;stroke:#034ec9;stroke-width:61.50260162;stroke-linecap:butt;stroke-linejoin:miter;stroke-miterlimit:10;stroke-dasharray:none;stroke-opacity:1"
             d="m -8.15625,7634.75 c 746.45325,0 746.45325,-412.07 1492.90625,-412.07 746.45,0 746.45,412.07 1492.9,412.07 746.48,0 746.48,-412.07 1492.96,-412.07 746.48,0 746.48,412.07 1492.96,412.07" /><path
             id="path30"
             style="fill:none;stroke:#034ec9;stroke-width:92.25379944;stroke-linecap:butt;stroke-linejoin:miter;stroke-miterlimit:10;stroke-dasharray:none;stroke-opacity:1"
             d="m -8.15625,7315.49 c 559.84025,0 932.06625,-309.05 1491.90625,-309.05 559.83,0 932.78,309.05 1492.62,309.05 559.86,0 933.74,-309.05 1493.6,-309.05 559.86,0 933.74,309.05 1493.6,309.05" /><path
             id="path32"
             style="fill:none;stroke:#034ec9;stroke-width:123.00499725;stroke-linecap:butt;stroke-linejoin:miter;stroke-miterlimit:10;stroke-dasharray:none;stroke-opacity:1"
             d="M -8.15625,6996.24 C 365.066,6996.24 1109.52,6790.2 1482.75,6790.2 c 373.22,0 1119.12,206.04 1492.34,206.04 373.24,0 1121,-206.04 1494.24,-206.04 373.24,0 1121,206.04 1494.24,206.04" /><path
             id="path34"
             style="fill:none;stroke:#034ec9;stroke-width:153.7559967;stroke-linecap:butt;stroke-linejoin:miter;stroke-miterlimit:10;stroke-dasharray:none;stroke-opacity:1"
             d="m -8.15625,6676.98 c 186.61325,0 1303.28625,-103.02 1489.90625,-103.02 186.61,0 1305.46,103.02 1492.07,103.02 186.62,0 1308.26,-103.02 1494.88,-103.02 186.62,0 1308.25,103.02 1494.87,103.02" /><path
             id="path36"
             style="fill:none;stroke:#034ec9;stroke-width:141.73199463;stroke-linecap:butt;stroke-linejoin:miter;stroke-miterlimit:10;stroke-dasharray:none;stroke-opacity:1"
             d="M -8.15625,6357.73 H 5963.57" /><path
             id="path38"
             style="fill:#034ec9;fill-opacity:1;fill-rule:nonzero;stroke:none"
             d="m 4468.7,5961.59 c -96.33,0 -415.53,25.14 -753.48,51.75 -320.11,25.2 -651.11,51.26 -741.4,51.26 -90.28,0 -420.58,-26.06 -739.99,-51.26 -337.23,-26.61 -655.75,-51.75 -752.09,-51.75 -96.34,0 -414.33,25.14 -751.002,51.75 -318.883,25.2 -648.6247,51.26 -738.89816,51.26 v 153.77 c 96.34376,0 414.33616,-25.14 751.00816,-51.76 318.882,-25.2 648.622,-51.26 738.892,-51.26 90.29,0 420.58,26.06 739.99,51.26 337.23,26.62 655.76,51.76 752.09,51.76 96.33,0 415.53,-25.14 753.47,-51.76 320.11,-25.2 651.12,-51.26 741.41,-51.26 90.28,0 421.3,26.06 741.4,51.26 337.94,26.62 657.14,51.76 753.47,51.76 V 6064.6 c -90.28,0 -421.29,-26.06 -741.4,-51.26 -337.94,-26.61 -657.14,-51.75 -753.47,-51.75" /><path
             id="path40"
             style="fill:#034ec9;fill-opacity:1;fill-rule:nonzero;stroke:none"
             d="m 4469.34,5657.72 c -192.24,0 -479.98,52.88 -758.25,104.02 -272.85,50.15 -554.98,102.01 -735.99,102.01 -181,0 -462.67,-51.86 -735.05,-102 -277.81,-51.15 -565.08,-104.03 -757.3,-104.03 -192.24,0 -479.14,52.88 -756.598,104.03 -272.027,50.14 -553.32,102 -734.31216,102 v 123 c 192.24216,0 479.14016,-52.89 756.60116,-104.04 272.019,-50.14 553.319,-102 734.309,-102 180.99,0 462.65,51.86 735.03,102 277.82,51.15 565.09,104.04 757.32,104.04 192.22,0 479.95,-52.89 758.23,-104.03 272.85,-50.15 554.99,-102.01 736.01,-102.01 181.01,0 463.15,51.86 736,102.01 278.26,51.14 566,104.03 758.23,104.03 v -123 c -181.01,0 -463.15,-51.86 -736,-102.01 -278.27,-51.14 -566,-104.02 -758.23,-104.02" /><path
             id="path42"
             style="fill:#034ec9;fill-opacity:1;fill-rule:nonzero;stroke:none"
             d="m 4469.97,5353.84 c -287.36,0 -528.3,79.74 -761.29,156.86 -236.46,78.26 -459.82,152.19 -732.31,152.19 -272.48,0 -495.59,-73.93 -731.81,-152.19 -232.76,-77.12 -473.45,-156.86 -760.81,-156.86 -287.37,0 -527.875,79.75 -760.469,156.86 -236.023,78.26 -458.961,152.19 -731.44116,152.19 v 92.25 c 287.37916,0 527.88716,-79.75 760.48016,-156.87 236.024,-78.27 458.95,-152.18 731.43,-152.18 272.47,0 495.59,73.92 731.81,152.18 232.76,77.13 473.44,156.87 760.81,156.87 287.37,0 528.3,-79.74 761.3,-156.87 236.46,-78.26 459.81,-152.18 732.3,-152.18 272.49,0 495.85,73.92 732.31,152.18 232.99,77.13 473.93,156.87 761.29,156.87 v -92.25 c -272.49,0 -495.85,-73.93 -732.31,-152.19 -232.99,-77.12 -473.93,-156.86 -761.29,-156.86" /><path
             id="path44"
             style="fill:none;stroke:#034ec9;stroke-width:61.50260162;stroke-linecap:butt;stroke-linejoin:miter;stroke-miterlimit:10;stroke-dasharray:none;stroke-opacity:1"
             d="m -8.15625,5492.78 c 746.45325,0 746.45325,-412.07 1492.90625,-412.07 746.45,0 746.45,412.07 1492.9,412.07 746.48,0 746.48,-412.07 1492.96,-412.07 746.48,0 746.48,412.07 1492.96,412.07" /><path
             id="path46"
             style="fill:none;stroke:#034ec9;stroke-width:92.25379944;stroke-linecap:butt;stroke-linejoin:miter;stroke-miterlimit:10;stroke-dasharray:none;stroke-opacity:1"
             d="m -8.15625,5173.52 c 559.84025,0 932.06625,-309.05 1491.90625,-309.05 559.83,0 932.78,309.05 1492.62,309.05 559.86,0 933.74,-309.05 1493.6,-309.05 559.86,0 933.74,309.05 1493.6,309.05" /><path
             id="path48"
             style="fill:none;stroke:#034ec9;stroke-width:123.00499725;stroke-linecap:butt;stroke-linejoin:miter;stroke-miterlimit:10;stroke-dasharray:none;stroke-opacity:1"
             d="m -8.15625,4854.27 c 373.22225,0 1117.67625,-206.04 1490.90625,-206.04 373.22,0 1119.12,206.04 1492.34,206.04 373.24,0 1121,-206.04 1494.24,-206.04 373.24,0 1121,206.04 1494.24,206.04" /><path
             id="path50"
             style="fill:none;stroke:#034ec9;stroke-width:153.7559967;stroke-linecap:butt;stroke-linejoin:miter;stroke-miterlimit:10;stroke-dasharray:none;stroke-opacity:1"
             d="M -8.15625,4535.01 C 178.457,4535.01 1295.13,4432 1481.75,4432 c 186.61,0 1305.46,103.01 1492.07,103.01 186.62,0 1308.26,-103.01 1494.88,-103.01 186.62,0 1308.25,103.01 1494.87,103.01" /><path
             id="path52"
             style="fill:none;stroke:#034ec9;stroke-width:141.73199463;stroke-linecap:butt;stroke-linejoin:miter;stroke-miterlimit:10;stroke-dasharray:none;stroke-opacity:1"
             d="M -8.15625,4215.76 H 5963.57" /><path
             id="path54"
             style="fill:#034ec9;fill-opacity:1;fill-rule:nonzero;stroke:none"
             d="m 4468.7,3819.62 c -96.33,0 -415.53,25.14 -753.48,51.75 -320.11,25.21 -651.11,51.27 -741.4,51.27 -90.28,0 -420.58,-26.06 -739.99,-51.27 -337.23,-26.61 -655.75,-51.75 -752.09,-51.75 -96.34,0 -414.33,25.14 -751.002,51.75 -318.883,25.21 -648.6247,51.27 -738.89816,51.27 v 153.76 c 96.34376,0 414.33616,-25.14 751.00816,-51.75 318.882,-25.2 648.622,-51.27 738.892,-51.27 90.29,0 420.58,26.07 739.99,51.27 337.23,26.61 655.76,51.75 752.09,51.75 96.33,0 415.53,-25.14 753.47,-51.75 320.11,-25.2 651.12,-51.27 741.41,-51.27 90.28,0 421.3,26.07 741.4,51.27 337.94,26.61 657.14,51.75 753.47,51.75 v -153.76 c -90.28,0 -421.29,-26.06 -741.4,-51.27 -337.94,-26.61 -657.14,-51.75 -753.47,-51.75" /><path
             id="path56"
             style="fill:#034ec9;fill-opacity:1;fill-rule:nonzero;stroke:none"
             d="m 4469.34,3515.75 c -192.24,0 -479.98,52.89 -758.25,104.02 -272.85,50.16 -554.98,102.01 -735.99,102.01 -181,0 -462.67,-51.85 -735.05,-101.99 -277.81,-51.15 -565.08,-104.04 -757.3,-104.04 -192.24,0 -479.14,52.89 -756.598,104.04 -272.027,50.14 -553.32,101.99 -734.31216,101.99 v 123 c 192.24216,0 479.14016,-52.88 756.60116,-104.03 272.019,-50.14 553.319,-102 734.309,-102 180.99,0 462.65,51.86 735.03,102 277.82,51.15 565.09,104.03 757.32,104.03 192.22,0 479.95,-52.88 758.23,-104.02 272.85,-50.15 554.99,-102.01 736.01,-102.01 181.01,0 463.15,51.86 736,102.01 278.26,51.14 566,104.02 758.23,104.02 v -123 c -181.01,0 -463.15,-51.85 -736,-102.01 -278.27,-51.13 -566,-104.02 -758.23,-104.02" /><path
             id="path58"
             style="fill:#034ec9;fill-opacity:1;fill-rule:nonzero;stroke:none"
             d="m 4469.97,3211.87 c -287.36,0 -528.3,79.74 -761.29,156.87 -236.46,78.25 -459.82,152.18 -732.31,152.18 -272.48,0 -495.59,-73.93 -731.81,-152.18 -232.76,-77.13 -473.45,-156.87 -760.81,-156.87 -287.37,0 -527.875,79.75 -760.469,156.87 -236.023,78.25 -458.961,152.18 -731.44116,152.18 v 92.25 c 287.37916,0 527.88716,-79.75 760.48016,-156.86 236.024,-78.27 458.95,-152.19 731.43,-152.19 272.47,0 495.59,73.93 731.81,152.19 232.76,77.12 473.44,156.86 760.81,156.86 287.37,0 528.3,-79.74 761.3,-156.86 236.46,-78.26 459.81,-152.19 732.3,-152.19 272.49,0 495.85,73.93 732.31,152.19 232.99,77.12 473.93,156.86 761.29,156.86 v -92.25 c -272.49,0 -495.85,-73.93 -732.31,-152.18 -232.99,-77.13 -473.93,-156.87 -761.29,-156.87" /><path
             id="path60"
             style="fill:none;stroke:#034ec9;stroke-width:61.50260162;stroke-linecap:butt;stroke-linejoin:miter;stroke-miterlimit:10;stroke-dasharray:none;stroke-opacity:1"
             d="m -8.15625,3350.81 c 746.45325,0 746.45325,-412.07 1492.90625,-412.07 746.45,0 746.45,412.07 1492.9,412.07 746.48,0 746.48,-412.07 1492.96,-412.07 746.48,0 746.48,412.07 1492.96,412.07" /><path
             id="path62"
             style="fill:none;stroke:#034ec9;stroke-width:92.25379944;stroke-linecap:butt;stroke-linejoin:miter;stroke-miterlimit:10;stroke-dasharray:none;stroke-opacity:1"
             d="m -8.15625,3031.56 c 559.84025,0 932.06625,-309.05 1491.90625,-309.05 559.83,0 932.78,309.05 1492.62,309.05 559.86,0 933.74,-309.05 1493.6,-309.05 559.86,0 933.74,309.05 1493.6,309.05" /><path
             id="path64"
             style="fill:none;stroke:#034ec9;stroke-width:123.00499725;stroke-linecap:butt;stroke-linejoin:miter;stroke-miterlimit:10;stroke-dasharray:none;stroke-opacity:1"
             d="M -8.15625,2712.3 C 365.066,2712.3 1109.52,2506.27 1482.75,2506.27 c 373.22,0 1119.12,206.03 1492.34,206.03 373.24,0 1121,-206.03 1494.24,-206.03 373.24,0 1121,206.03 1494.24,206.03" /><path
             id="path66"
             style="fill:none;stroke:#034ec9;stroke-width:153.7559967;stroke-linecap:butt;stroke-linejoin:miter;stroke-miterlimit:10;stroke-dasharray:none;stroke-opacity:1"
             d="m -8.15625,2393.05 c 186.61325,0 1303.28625,-103.02 1489.90625,-103.02 186.61,0 1305.46,103.02 1492.07,103.02 186.62,0 1308.26,-103.02 1494.88,-103.02 186.62,0 1308.25,103.02 1494.87,103.02" /><path
             id="path68"
             style="fill:none;stroke:#034ec9;stroke-width:141.73199463;stroke-linecap:butt;stroke-linejoin:miter;stroke-miterlimit:10;stroke-dasharray:none;stroke-opacity:1"
             d="M -8.15625,2073.8 H 5963.57" /><path
             id="path70"
             style="fill:#034ec9;fill-opacity:1;fill-rule:nonzero;stroke:none"
             d="m 4468.7,1677.65 c -96.33,0 -415.53,25.14 -753.48,51.76 -320.11,25.2 -651.11,51.26 -741.4,51.26 -90.28,0 -420.58,-26.06 -739.99,-51.26 -337.23,-26.62 -655.75,-51.76 -752.09,-51.76 -96.34,0 -414.33,25.14 -751.002,51.76 -318.883,25.2 -648.6247,51.26 -738.89816,51.26 v 153.76 c 96.34376,0 414.33616,-25.13 751.00816,-51.75 318.882,-25.2 648.622,-51.26 738.892,-51.26 90.29,0 420.58,26.06 739.99,51.26 337.23,26.62 655.76,51.75 752.09,51.75 96.33,0 415.53,-25.13 753.47,-51.75 320.11,-25.2 651.12,-51.26 741.41,-51.26 90.28,0 421.3,26.06 741.4,51.26 337.94,26.62 657.14,51.75 753.47,51.75 v -153.76 c -90.28,0 -421.29,-26.06 -741.4,-51.26 -337.94,-26.62 -657.14,-51.76 -753.47,-51.76" /><path
             id="path72"
             style="fill:#034ec9;fill-opacity:1;fill-rule:nonzero;stroke:none"
             d="m 4469.34,1373.79 c -192.24,0 -479.98,52.88 -758.25,104.02 -272.85,50.15 -554.98,102.01 -735.99,102.01 -181,0 -462.67,-51.86 -735.05,-102 -277.81,-51.15 -565.08,-104.03 -757.3,-104.03 -192.24,0 -479.14,52.88 -756.598,104.03 -272.027,50.14 -553.32,102 -734.31216,102 v 123 c 192.24216,0 479.14016,-52.89 756.60116,-104.04 272.019,-50.14 553.319,-102 734.309,-102 180.99,0 462.65,51.86 735.03,102 277.82,51.15 565.09,104.04 757.32,104.04 192.22,0 479.95,-52.89 758.23,-104.03 272.85,-50.15 554.99,-102.01 736.01,-102.01 181.01,0 463.15,51.86 736,102.01 278.26,51.14 566,104.03 758.23,104.03 v -123 c -181.01,0 -463.15,-51.86 -736,-102.01 -278.27,-51.14 -566,-104.02 -758.23,-104.02" /><path
             id="path74"
             style="fill:#034ec9;fill-opacity:1;fill-rule:nonzero;stroke:none"
             d="m 4469.97,1069.9 c -287.36,0 -528.3,79.74 -761.29,156.87 -236.46,78.26 -459.82,152.18 -732.31,152.18 -272.48,0 -495.59,-73.92 -731.81,-152.18 -232.76,-77.13 -473.45,-156.87 -760.81,-156.87 -287.37,0 -527.875,79.75 -760.469,156.87 -236.023,78.26 -458.961,152.18 -731.44116,152.18 v 92.26 c 287.37916,0 527.88716,-79.75 760.48016,-156.87 236.024,-78.27 458.95,-152.18 731.43,-152.18 272.47,0 495.59,73.92 731.81,152.18 232.76,77.13 473.44,156.87 760.81,156.87 287.37,0 528.3,-79.74 761.3,-156.87 236.46,-78.26 459.81,-152.18 732.3,-152.18 272.49,0 495.85,73.92 732.31,152.18 232.99,77.13 473.93,156.87 761.29,156.87 v -92.26 c -272.49,0 -495.85,-73.92 -732.31,-152.18 -232.99,-77.13 -473.93,-156.87 -761.29,-156.87" /><path
             id="path76"
             style="fill:none;stroke:#034ec9;stroke-width:61.50260162;stroke-linecap:butt;stroke-linejoin:miter;stroke-miterlimit:10;stroke-dasharray:none;stroke-opacity:1"
             d="M -8.15625,1208.84 C 738.297,1208.84 738.297,796.781 1484.75,796.781 c 746.45,0 746.45,412.059 1492.9,412.059 746.48,0 746.48,-412.059 1492.96,-412.059 746.48,0 746.48,412.059 1492.96,412.059" /><path
             id="path78"
             style="fill:none;stroke:#034ec9;stroke-width:92.25379944;stroke-linecap:butt;stroke-linejoin:miter;stroke-miterlimit:10;stroke-dasharray:none;stroke-opacity:1"
             d="M -8.15625,889.59 C 551.684,889.59 923.91,580.539 1483.75,580.539 c 559.83,0 932.78,309.051 1492.62,309.051 559.86,0 933.74,-309.051 1493.6,-309.051 559.86,0 933.74,309.051 1493.6,309.051" /><path
             id="path80"
             style="fill:none;stroke:#034ec9;stroke-width:123.00499725;stroke-linecap:butt;stroke-linejoin:miter;stroke-miterlimit:10;stroke-dasharray:none;stroke-opacity:1"
             d="M -8.15625,570.34 C 365.066,570.34 1109.52,364.301 1482.75,364.301 c 373.22,0 1119.12,206.039 1492.34,206.039 373.24,0 1121,-206.039 1494.24,-206.039 373.24,0 1121,206.039 1494.24,206.039" /><path
             id="path82"
             style="fill:none;stroke:#034ec9;stroke-width:153.7559967;stroke-linecap:butt;stroke-linejoin:miter;stroke-miterlimit:10;stroke-dasharray:none;stroke-opacity:1"
             d="M -8.15625,251.082 C 178.457,251.082 1295.13,148.07 1481.75,148.07 c 186.61,0 1305.46,103.012 1492.07,103.012 186.62,0 1308.26,-103.012 1494.88,-103.012 186.62,0 1308.25,103.012 1494.87,103.012" /><path
             id="path84"
             style="fill:#ee4023;fill-opacity:1;fill-rule:nonzero;stroke:none"
             d="m 1921.87,7741.8 c 0,242.22 -196.36,438.57 -438.57,438.57 -242.22,0 -438.57,-196.35 -438.57,-438.57 0,-242.21 196.35,-438.57 438.57,-438.57 242.21,0 438.57,196.36 438.57,438.57" /><path
             id="path86"
             style="fill:#ee4023;fill-opacity:1;fill-rule:nonzero;stroke:none"
             d="m 4923.17,7741.8 c 0,242.22 -196.36,438.57 -438.57,438.57 -242.22,0 -438.57,-196.35 -438.57,-438.57 0,-242.21 196.35,-438.57 438.57,-438.57 242.21,0 438.57,196.36 438.57,438.57" /><path
             id="path88"
             style="fill:#ee4023;fill-opacity:1;fill-rule:nonzero;stroke:none"
             d="m 1921.87,5601.67 c 0,242.22 -196.36,438.57 -438.57,438.57 -242.22,0 -438.57,-196.35 -438.57,-438.57 0,-242.21 196.35,-438.57 438.57,-438.57 242.21,0 438.57,196.36 438.57,438.57" /><path
             id="path90"
             style="fill:#ee4023;fill-opacity:1;fill-rule:nonzero;stroke:none"
             d="m 4923.17,5601.67 c 0,242.22 -196.36,438.57 -438.57,438.57 -242.22,0 -438.57,-196.35 -438.57,-438.57 0,-242.21 196.35,-438.57 438.57,-438.57 242.21,0 438.57,196.36 438.57,438.57" /><path
             id="path92"
             style="fill:#ee4023;fill-opacity:1;fill-rule:nonzero;stroke:none"
             d="m 1921.87,3457.51 c 0,242.21 -196.36,438.57 -438.57,438.57 -242.22,0 -438.57,-196.36 -438.57,-438.57 0,-242.22 196.35,-438.57 438.57,-438.57 242.21,0 438.57,196.35 438.57,438.57" /><path
             id="path94"
             style="fill:#ee4023;fill-opacity:1;fill-rule:nonzero;stroke:none"
             d="m 4923.17,3457.51 c 0,242.21 -196.36,438.57 -438.57,438.57 -242.22,0 -438.57,-196.36 -438.57,-438.57 0,-242.22 196.35,-438.57 438.57,-438.57 242.21,0 438.57,196.35 438.57,438.57" /><path
             id="path96"
             style="fill:#ee4023;fill-opacity:1;fill-rule:nonzero;stroke:none"
             d="m 1921.87,1315.42 c 0,242.22 -196.36,438.57 -438.57,438.57 -242.22,0 -438.57,-196.35 -438.57,-438.57 0,-242.21 196.35,-438.568 438.57,-438.568 242.21,0 438.57,196.358 438.57,438.568" /><path
             id="path98"
             style="fill:#ee4023;fill-opacity:1;fill-rule:nonzero;stroke:none"
             d="m 4923.17,1315.42 c 0,242.22 -196.36,438.57 -438.57,438.57 -242.22,0 -438.57,-196.35 -438.57,-438.57 0,-242.21 196.35,-438.568 438.57,-438.568 242.21,0 438.57,196.358 438.57,438.568" /></g></g></g></g></svg>