<?xml version="1.0" encoding="UTF-8" standalone="no"?>
<svg
   xmlns:dc="http://purl.org/dc/elements/1.1/"
   xmlns:cc="http://creativecommons.org/ns#"
   xmlns:rdf="http://www.w3.org/1999/02/22-rdf-syntax-ns#"
   xmlns:svg="http://www.w3.org/2000/svg"
   xmlns="http://www.w3.org/2000/svg"
   viewBox="0 0 793.70667 1122.52"
   height="1122.52"
   width="793.70667"
   xml:space="preserve"
   id="svg2"
   version="1.1"><metadata
     id="metadata8"><rdf:RDF><cc:Work
         rdf:about=""><dc:format>image/svg+xml</dc:format><dc:type
           rdf:resource="http://purl.org/dc/dcmitype/StillImage" /></cc:Work></rdf:RDF></metadata><defs
     id="defs6"><clipPath
       id="clipPath20"
       clipPathUnits="userSpaceOnUse"><path
         id="path18"
         d="m 4138.91,5733.65 c -405.35,-172.41 -885.01,-19.77 -1111.79,371.03 l -192.86,365.78 c -245.51,423.1 -101.57,965.13 321.53,1210.66 423.18,245.4 965.12,101.57 1210.67,-321.53 l 192.85,-365.79 c 245.52,-423.1 101.57,-965.13 -321.53,-1210.66 -32.31,-18.73 -65.36,-35.24 -98.87,-49.49" /></clipPath><clipPath
       id="clipPath42"
       clipPathUnits="userSpaceOnUse"><path
         id="path40"
         d="M 0,8418.9 V 0 h 5952.76 v 8418.9 z" /></clipPath><clipPath
       id="clipPath48"
       clipPathUnits="userSpaceOnUse"><path
         id="path46"
         d="M 1965.99,2493.01 C 2074.63,2025.65 1820.54,1539.79 1358.56,1370.07 L 170.762,963.512 C -329.402,779.781 -883.82,1036.28 -1067.57,1536.46 c -183.59,500.22 72.781,1054.57 572.953,1238.33 L 693.18,3181.35 c 500.17,183.72 1054.58,-72.78 1238.33,-572.95 14.02,-38.19 25.5,-76.76 34.48,-115.39" /></clipPath><clipPath
       id="clipPath70"
       clipPathUnits="userSpaceOnUse"><path
         id="path68"
         d="M 0,8418.9 V 0 h 5952.76 v 8418.9 z" /></clipPath><clipPath
       id="clipPath76"
       clipPathUnits="userSpaceOnUse"><path
         id="path74"
         d="M 681.207,4528.83 C 473.145,4289.41 114.504,4237 -155.523,4418.5 l -874.447,587.74 c -292.33,196.5 -370.04,592.78 -173.54,885.13 196.59,292.29 592.776,370.04 885.131,173.55 l 874.441,-587.74 c 292.336,-196.5 370.043,-592.79 173.543,-885.14 -15.007,-22.31 -31.199,-43.42 -48.398,-63.21" /></clipPath><clipPath
       id="clipPath82"
       clipPathUnits="userSpaceOnUse"><path
         id="path80"
         d="m -55.8281,5532.32 c -27.7969,0 -55.8709,8.19 -80.3559,25.25 -63.75,44.43 -79.472,132.42 -35.058,196.17 27.359,39.26 71.2459,60.31 115.8123,60.31 27.8008,0 55.871106,-8.19 80.3594,-25.26 63.7461,-44.41 79.4763,-132.42 35.0547,-196.16 -27.3594,-39.27 -71.2383,-60.31 -115.8125,-60.31" /></clipPath><clipPath
       id="clipPath92"
       clipPathUnits="userSpaceOnUse"><path
         id="path90"
         d="M 0,8418.9 V 0 h 5952.76 v 8418.9 z" /></clipPath><clipPath
       id="clipPath98"
       clipPathUnits="userSpaceOnUse"><path
         id="path96"
         d="M 681.207,4528.83 C 473.145,4289.41 114.504,4237 -155.523,4418.5 l -874.447,587.74 c -292.33,196.5 -370.04,592.78 -173.54,885.13 196.59,292.29 592.776,370.04 885.131,173.55 l 874.441,-587.74 c 292.336,-196.5 370.043,-592.79 173.543,-885.14 -15.007,-22.31 -31.199,-43.42 -48.398,-63.21" /></clipPath><clipPath
       id="clipPath142"
       clipPathUnits="userSpaceOnUse"><path
         id="path140"
         d="m 4129.7,3249.97 c 314.4,144.47 694.45,35.4 881.28,-266.36 l 385.43,-614.78 c 202.28,-326.7 101.43,-755.52 -225.27,-957.81 -326.75,-202.18 -755.5,-101.42 -957.8,225.28 l -385.43,614.78 c -202.27,326.69 -101.42,755.52 225.27,957.8 24.95,15.44 50.53,29.14 76.52,41.09" /></clipPath><clipPath
       id="clipPath204"
       clipPathUnits="userSpaceOnUse"><path
         id="path202"
         d="m 4331.65,4670.71 c 85.65,-235.13 -15.32,-502.65 -243.82,-619.58 l -565.9,-278.19 c -247.38,-126.59 -550.55,-28.67 -677.15,218.72 -126.53,247.42 -28.68,550.55 218.71,677.15 L 3629.38,4947 c 247.39,126.59 550.56,28.67 677.16,-218.72 9.66,-18.89 18.03,-38.13 25.11,-57.57" /></clipPath><clipPath
       id="clipPath214"
       clipPathUnits="userSpaceOnUse"><path
         id="path212"
         d="M 0,8418.9 V 0 h 5952.76 v 8418.9 z" /></clipPath><clipPath
       id="clipPath220"
       clipPathUnits="userSpaceOnUse"><path
         id="path218"
         d="m 3978.2,8883.66 c 331.77,-329.83 373.47,-862.78 79.7,-1242.23 L 3106.6,6412.66 c -318.04,-410.79 -908.88,-486 -1319.69,-167.96 -410.71,318.16 -485.99,908.87 -167.96,1319.7 l 951.3,1228.77 c 318.05,410.79 908.89,486 1319.7,167.96 31.36,-24.29 60.82,-50.21 88.25,-77.47" /></clipPath><clipPath
       id="clipPath462"
       clipPathUnits="userSpaceOnUse"><path
         id="path460"
         d="M 0,8418.9 V 0 h 5952.76 v 8418.9 z" /></clipPath><clipPath
       id="clipPath468"
       clipPathUnits="userSpaceOnUse"><path
         id="path466"
         d="M 7357.89,3333.35 C 7079.02,2996.62 6586.51,2912.66 6208.47,3153.94 l -523.5,339.35 c -409.28,261.22 -529.35,804.77 -268.14,1214.07 261.33,409.21 804.74,529.31 1214.05,268.1 l 523.5,-339.35 c 409.27,-261.22 529.34,-804.77 268.13,-1214.06 -19.95,-31.25 -41.57,-60.86 -64.62,-88.7" /></clipPath><clipPath
       id="clipPath474"
       clipPathUnits="userSpaceOnUse"><path
         id="path472"
         d="m 5718.01,3471.87 -33.04,21.42 c -59.8,38.17 -113.46,82.39 -160.63,131.32 21.72,14.1 46.31,20.92 70.72,20.92 40.09,0 79.67,-18.4 105.17,-53.1 26.46,-36.03 31.62,-81.27 17.78,-120.56" /></clipPath><clipPath
       id="clipPath484"
       clipPathUnits="userSpaceOnUse"><path
         id="path482"
         d="M 0,8418.9 V 0 h 5952.76 v 8418.9 z" /></clipPath><clipPath
       id="clipPath490"
       clipPathUnits="userSpaceOnUse"><path
         id="path488"
         d="M 7357.89,3333.35 C 7079.02,2996.62 6586.51,2912.66 6208.47,3153.94 l -523.5,339.35 c -409.28,261.22 -529.35,804.77 -268.14,1214.07 261.33,409.21 804.74,529.31 1214.05,268.1 l 523.5,-339.35 c 409.27,-261.22 529.34,-804.77 268.13,-1214.06 -19.95,-31.25 -41.57,-60.86 -64.62,-88.7" /></clipPath><clipPath
       id="clipPath520"
       clipPathUnits="userSpaceOnUse"><path
         id="path518"
         d="M 0,8418.9 V 0 h 5952.76 v 8418.9 z" /></clipPath><clipPath
       id="clipPath568"
       clipPathUnits="userSpaceOnUse"><path
         id="path566"
         d="m 4265.86,2235.66 c 261.75,-226.29 319.92,-617.38 122.69,-912.44 L 3988.7,717.723 C 3775.16,398.27 3343.09,312.391 3023.63,525.93 c -319.39,213.629 -405.31,645.6 -191.78,965.06 l 399.85,605.5 c 213.54,319.45 645.6,405.32 965.07,191.79 24.38,-16.31 47.45,-33.91 69.09,-52.62" /></clipPath></defs><g
     transform="matrix(1.3333333,0,0,-1.3333333,0,1122.52)"
     id="g10"><g
       transform="scale(0.1)"
       id="g12"><g
         id="g14"><g
           clip-path="url(#clipPath20)"
           id="g16"><path
             id="path22"
             style="fill:none;stroke:#ee4023;stroke-width:247.2769928;stroke-linecap:butt;stroke-linejoin:miter;stroke-miterlimit:10;stroke-dasharray:none;stroke-opacity:1"
             d="M 6201.43,5912.48 3517.33,4161.65" /><path
             id="path24"
             style="fill:none;stroke:#ee4023;stroke-width:247.2769928;stroke-linecap:butt;stroke-linejoin:miter;stroke-miterlimit:10;stroke-dasharray:none;stroke-opacity:1"
             d="M 5881.17,6306.11 3197.08,4555.28" /><path
             id="path26"
             style="fill:none;stroke:#ee4023;stroke-width:247.2769928;stroke-linecap:butt;stroke-linejoin:miter;stroke-miterlimit:10;stroke-dasharray:none;stroke-opacity:1"
             d="M 5560.92,6699.74 2876.82,4948.91" /><path
             id="path28"
             style="fill:none;stroke:#ee4023;stroke-width:247.2769928;stroke-linecap:butt;stroke-linejoin:miter;stroke-miterlimit:10;stroke-dasharray:none;stroke-opacity:1"
             d="M 5240.66,7093.37 2556.56,5342.53" /><path
             id="path30"
             style="fill:none;stroke:#ee4023;stroke-width:247.2769928;stroke-linecap:butt;stroke-linejoin:miter;stroke-miterlimit:10;stroke-dasharray:none;stroke-opacity:1"
             d="M 4920.41,7486.99 2236.31,5736.16" /><path
             id="path32"
             style="fill:none;stroke:#ee4023;stroke-width:247.2769928;stroke-linecap:butt;stroke-linejoin:miter;stroke-miterlimit:10;stroke-dasharray:none;stroke-opacity:1"
             d="M 4600.15,7880.62 1916.05,6129.79" /><path
             id="path34"
             style="fill:none;stroke:#ee4023;stroke-width:247.2769928;stroke-linecap:butt;stroke-linejoin:miter;stroke-miterlimit:10;stroke-dasharray:none;stroke-opacity:1"
             d="M 4279.9,8274.25 1595.8,6523.42" /></g></g><g
         id="g36"><g
           clip-path="url(#clipPath42)"
           id="g38"><g
             clip-path="url(#clipPath48)"
             id="g44"><path
               id="path50"
               style="fill:none;stroke:#034ec9;stroke-width:283.46499634;stroke-linecap:butt;stroke-linejoin:miter;stroke-miterlimit:10;stroke-dasharray:none;stroke-opacity:1"
               d="M 1672.62,4244.25 2915.66,1395.34" /><path
               id="path52"
               style="fill:none;stroke:#034ec9;stroke-width:283.46499634;stroke-linecap:butt;stroke-linejoin:miter;stroke-miterlimit:10;stroke-dasharray:none;stroke-opacity:1"
               d="M 1244.61,4001.22 2487.66,1152.31" /><path
               id="path54"
               style="fill:none;stroke:#034ec9;stroke-width:283.46499634;stroke-linecap:butt;stroke-linejoin:miter;stroke-miterlimit:10;stroke-dasharray:none;stroke-opacity:1"
               d="M 816.605,3758.2 2059.65,909.281" /><path
               id="path56"
               style="fill:none;stroke:#034ec9;stroke-width:283.46499634;stroke-linecap:butt;stroke-linejoin:miter;stroke-miterlimit:10;stroke-dasharray:none;stroke-opacity:1"
               d="M 388.598,3515.17 1631.64,666.262" /><path
               id="path58"
               style="fill:none;stroke:#034ec9;stroke-width:283.46499634;stroke-linecap:butt;stroke-linejoin:miter;stroke-miterlimit:10;stroke-dasharray:none;stroke-opacity:1"
               d="M -39.4102,3272.14 1203.63,423.23" /><path
               id="path60"
               style="fill:none;stroke:#034ec9;stroke-width:283.46499634;stroke-linecap:butt;stroke-linejoin:miter;stroke-miterlimit:10;stroke-dasharray:none;stroke-opacity:1"
               d="M -467.418,3029.11 775.625,180.199" /><path
               id="path62"
               style="fill:none;stroke:#034ec9;stroke-width:283.46499634;stroke-linecap:butt;stroke-linejoin:miter;stroke-miterlimit:10;stroke-dasharray:none;stroke-opacity:1"
               d="M -895.426,2786.08 347.613,-62.8281" /></g></g></g><g
         id="g64"><g
           clip-path="url(#clipPath70)"
           id="g66"><g
             clip-path="url(#clipPath76)"
             id="g72"><g
               clip-path="url(#clipPath82)"
               id="g78"><path
                 id="path84"
                 style="fill:#ee4023;fill-opacity:1;fill-rule:nonzero;stroke:none"
                 d="m 0,5532.32 h 104.406 v 281.73 H 0 Z" /></g></g></g></g><g
         id="g86"><g
           clip-path="url(#clipPath92)"
           id="g88"><g
             clip-path="url(#clipPath98)"
             id="g94"><path
               id="path100"
               style="fill:#ee4023;fill-opacity:1;fill-rule:nonzero;stroke:none"
               d="m 106.891,5765.85 c -27.7972,0 -55.8715,8.19 -80.3558,25.25 -28.39458,19.79 -47.2618,48.23 -55.5313,79.31 L 124.875,5766.99 c -5.957,-0.76 -11.965,-1.14 -17.984,-1.14" /><path
               id="path102"
               style="fill:#ee4023;fill-opacity:1;fill-rule:nonzero;stroke:none"
               d="m -61.8789,5016.18 c -27.7969,0 -55.8711,8.19 -80.3551,25.25 -63.75,44.41 -79.469,132.41 -35.059,196.16 27.359,39.26 71.242,60.3 115.8125,60.3 27.7969,0 55.86722,-8.19 80.3477,-25.25 63.75,-44.42 79.4805,-132.42 35.0586,-196.16 -27.3555,-39.26 -71.2344,-60.31 -115.8047,-60.3" /><path
               id="path104"
               style="fill:#ee4023;fill-opacity:1;fill-rule:nonzero;stroke:none"
               d="m 100.84,5249.7 c -27.797,0.01 -55.8673,8.19 -80.3517,25.26 -63.75,44.41 -79.4766,132.41 -35.0586,196.16 27.3594,39.26 71.2422,60.3 115.8123,60.3 27.793,0 55.863,-8.19 80.348,-25.25 63.746,-44.42 79.48,-132.42 35.055,-196.17 -27.356,-39.25 -71.231,-60.3 -115.805,-60.3" /><path
               id="path106"
               style="fill:#ee4023;fill-opacity:1;fill-rule:nonzero;stroke:none"
               d="m 263.562,5483.23 c -27.796,0.01 -55.871,8.19 -80.355,25.26 -63.75,44.41 -79.473,132.41 -35.059,196.15 7.704,11.06 16.715,20.67 26.688,28.77 l 223.73,-150.38 c -4.175,-13.75 -10.546,-27.08 -19.199,-39.5 -27.355,-39.25 -71.23,-60.3 -115.805,-60.3" /><path
               id="path108"
               style="fill:#ee4023;fill-opacity:1;fill-rule:nonzero;stroke:none"
               d="m -72.4375,4503.15 c -27.8005,0.01 -55.8715,8.19 -80.3555,25.26 -63.746,44.42 -79.469,132.42 -35.055,196.17 27.36,39.26 71.239,60.3 115.8128,60.3 27.7969,0 55.8711,-8.19 80.35551,-25.25 C 72.0703,4715.2 87.8008,4627.21 43.3789,4563.46 16.0156,4524.2 -27.8672,4503.15 -72.4375,4503.15" /><path
               id="path110"
               style="fill:#ee4023;fill-opacity:1;fill-rule:nonzero;stroke:none"
               d="m 90.2852,4736.68 c -27.7969,0 -55.8711,8.19 -80.35551,25.26 -63.74609,44.42 -79.47269,132.42 -35.05859,196.17 27.35937,39.26 71.2422,60.3 115.8125,60.3 27.8004,0 55.8714,-8.19 80.3594,-25.25 63.746,-44.42 79.48,-132.43 35.055,-196.17 -27.36,-39.26 -71.243,-60.31 -115.8128,-60.31" /><path
               id="path112"
               style="fill:#ee4023;fill-opacity:1;fill-rule:nonzero;stroke:none"
               d="m 253.004,4970.21 c -27.801,0 -55.871,8.19 -80.356,25.26 -63.746,44.42 -79.4722,132.42 -35.054,196.16 27.359,39.27 71.242,60.31 115.812,60.31 27.801,0 55.867,-8.19 80.36,-25.25 63.746,-44.42 79.48,-132.43 35.054,-196.17 -27.359,-39.26 -71.246,-60.31 -115.816,-60.31" /><path
               id="path114"
               style="fill:#ee4023;fill-opacity:1;fill-rule:nonzero;stroke:none"
               d="m 415.727,5203.74 c -27.797,0 -55.872,8.19 -80.356,25.25 -63.746,44.43 -79.473,132.42 -35.059,196.17 27.36,39.27 71.243,60.31 115.813,60.31 27.801,0 55.871,-8.19 80.359,-25.25 63.746,-44.42 79.481,-132.43 35.055,-196.17 -27.359,-39.27 -71.238,-60.31 -115.812,-60.31" /><path
               id="path116"
               style="fill:#ee4023;fill-opacity:1;fill-rule:nonzero;stroke:none"
               d="m 578.441,5437.27 c -27.796,0 -55.867,8.19 -80.351,25.25 -32.488,22.64 -52.504,56.6 -58.442,92.9 l 116.414,-78.24 c 17.415,-11.71 34.09,-24.14 49.969,-37.2 -9.07,-1.8 -18.316,-2.71 -27.59,-2.71" /><path
               id="path118"
               style="fill:#ee4023;fill-opacity:1;fill-rule:nonzero;stroke:none"
               d="m 199.688,4309.96 c -86.559,0 -173.8052,17.6 -256.0942,53.88 0.4296,27.07 8.6328,54.28 25.2382,78.11 27.3555,39.26 71.2344,60.3 115.8086,60.3 27.7974,0 55.8674,-8.19 80.3514,-25.25 54.418,-37.92 73.836,-107.6 50.715,-166.84 -5.328,-0.13 -10.68,-0.2 -16.019,-0.2" /><path
               id="path120"
               style="fill:#ee4023;fill-opacity:1;fill-rule:nonzero;stroke:none"
               d="m 246.961,4454.07 c -27.797,0 -55.867,8.19 -80.348,25.25 -63.758,44.42 -79.4841,132.42 -35.07,196.15 27.359,39.27 71.242,60.31 115.816,60.31 27.797,0 55.868,-8.19 80.352,-25.25 63.738,-44.42 79.465,-132.41 35.047,-196.17 -27.352,-39.26 -71.227,-60.3 -115.797,-60.29" /><path
               id="path122"
               style="fill:#ee4023;fill-opacity:1;fill-rule:nonzero;stroke:none"
               d="m 409.68,4687.6 c -27.793,0 -55.868,8.19 -80.352,25.25 -63.754,44.42 -79.476,132.42 -35.066,196.15 27.363,39.27 71.242,60.31 115.816,60.31 27.801,0 55.871,-8.19 80.36,-25.25 63.734,-44.42 79.457,-132.41 35.042,-196.17 -27.355,-39.26 -71.23,-60.3 -115.8,-60.29" /><path
               id="path124"
               style="fill:#ee4023;fill-opacity:1;fill-rule:nonzero;stroke:none"
               d="m 572.398,4921.12 c -27.793,0.01 -55.863,8.19 -80.343,25.25 -63.758,44.43 -79.485,132.42 -35.071,196.16 27.364,39.26 71.246,60.31 115.817,60.31 27.797,0 55.867,-8.19 80.351,-25.25 63.743,-44.42 79.465,-132.41 35.047,-196.17 -27.351,-39.26 -71.23,-60.3 -115.801,-60.3" /><path
               id="path126"
               style="fill:#ee4023;fill-opacity:1;fill-rule:nonzero;stroke:none"
               d="m 735.121,5154.65 c -27.793,0.01 -55.867,8.19 -80.348,25.25 -63.757,44.43 -79.48,132.42 -35.07,196.16 7.559,10.84 16.371,20.3 26.113,28.3 69.079,-67.26 120.372,-147.85 152.536,-234.85 -19.668,-9.79 -41.364,-14.86 -63.231,-14.86" /><path
               id="path128"
               style="fill:#ee4023;fill-opacity:1;fill-rule:nonzero;stroke:none"
               d="m 258.496,4312.67 c -0.601,28.77 7.551,57.96 25.223,83.32 27.359,39.26 71.242,60.31 115.816,60.31 27.797,0 55.867,-8.19 80.356,-25.25 14.847,-10.35 27.089,-23.06 36.574,-37.28 -79.543,-45.32 -167.668,-72.77 -257.969,-81.1" /><path
               id="path130"
               style="fill:#ee4023;fill-opacity:1;fill-rule:nonzero;stroke:none"
               d="m 542.492,4409.44 c -21.277,2.94 -42.195,10.81 -60.996,23.91 -63.75,44.42 -79.48,132.43 -35.055,196.17 27.36,39.26 71.243,60.31 115.817,60.31 27.797,0 55.867,-8.19 80.351,-25.26 37.418,-26.07 58.289,-67.17 60.161,-109.56 -6.997,-8.96 -14.184,-17.69 -21.563,-26.18 -41.008,-47.19 -87.84,-87.09 -138.715,-119.39" /><path
               id="path132"
               style="fill:#ee4023;fill-opacity:1;fill-rule:nonzero;stroke:none"
               d="m 724.562,4641.63 c -27.792,0 -55.863,8.19 -80.347,25.25 -63.746,44.42 -79.477,132.42 -35.055,196.17 27.36,39.26 71.242,60.31 115.813,60.31 27.797,0 55.871,-8.19 80.355,-25.26 10.863,-7.57 20.328,-16.4 28.34,-26.16 -9.176,-77.13 -32.598,-153.49 -71.047,-225.11 -12.375,-3.44 -25.187,-5.2 -38.059,-5.2" /><path
               id="path134"
               style="fill:#ee4023;fill-opacity:1;fill-rule:nonzero;stroke:none"
               d="m 835.105,4885.2 c -9.742,3.9 -19.195,8.96 -28.167,15.21 -63.747,44.41 -79.481,132.42 -35.055,196.17 10.629,15.26 23.758,27.76 38.449,37.35 24.395,-80.14 32.984,-164.75 24.773,-248.73" /></g></g></g><g
         id="g136"><g
           clip-path="url(#clipPath142)"
           id="g138"><path
             id="path144"
             style="fill:none;stroke:#034ec9;stroke-width:27.64189911;stroke-linecap:butt;stroke-linejoin:miter;stroke-miterlimit:10;stroke-dasharray:none;stroke-opacity:1"
             d="M 6901.82,1943.42 4193.09,188.152" /><path
             id="path146"
             style="fill:none;stroke:#034ec9;stroke-width:27.64189911;stroke-linecap:butt;stroke-linejoin:miter;stroke-miterlimit:10;stroke-dasharray:none;stroke-opacity:1"
             d="M 6831.19,2052.41 4122.46,297.141" /><path
             id="path148"
             style="fill:none;stroke:#034ec9;stroke-width:27.64189911;stroke-linecap:butt;stroke-linejoin:miter;stroke-miterlimit:10;stroke-dasharray:none;stroke-opacity:1"
             d="M 6760.56,2161.41 4051.83,406.141" /><path
             id="path150"
             style="fill:none;stroke:#034ec9;stroke-width:27.64189911;stroke-linecap:butt;stroke-linejoin:miter;stroke-miterlimit:10;stroke-dasharray:none;stroke-opacity:1"
             d="M 6689.93,2270.4 3981.2,515.129" /><path
             id="path152"
             style="fill:none;stroke:#034ec9;stroke-width:27.64189911;stroke-linecap:butt;stroke-linejoin:miter;stroke-miterlimit:10;stroke-dasharray:none;stroke-opacity:1"
             d="M 6619.3,2379.39 3910.57,624.121" /><path
             id="path154"
             style="fill:none;stroke:#034ec9;stroke-width:27.64189911;stroke-linecap:butt;stroke-linejoin:miter;stroke-miterlimit:10;stroke-dasharray:none;stroke-opacity:1"
             d="M 6548.68,2488.39 3839.95,733.121" /><path
             id="path156"
             style="fill:none;stroke:#034ec9;stroke-width:27.64189911;stroke-linecap:butt;stroke-linejoin:miter;stroke-miterlimit:10;stroke-dasharray:none;stroke-opacity:1"
             d="M 6478.05,2597.38 3769.32,842.109" /><path
             id="path158"
             style="fill:none;stroke:#034ec9;stroke-width:27.64189911;stroke-linecap:butt;stroke-linejoin:miter;stroke-miterlimit:10;stroke-dasharray:none;stroke-opacity:1"
             d="M 6407.42,2706.37 3698.69,951.102" /><path
             id="path160"
             style="fill:none;stroke:#034ec9;stroke-width:27.64189911;stroke-linecap:butt;stroke-linejoin:miter;stroke-miterlimit:10;stroke-dasharray:none;stroke-opacity:1"
             d="M 6336.79,2815.37 3628.06,1060.1" /><path
             id="path162"
             style="fill:none;stroke:#034ec9;stroke-width:27.64189911;stroke-linecap:butt;stroke-linejoin:miter;stroke-miterlimit:10;stroke-dasharray:none;stroke-opacity:1"
             d="M 6266.16,2924.36 3557.43,1169.09" /><path
             id="path164"
             style="fill:none;stroke:#034ec9;stroke-width:27.64189911;stroke-linecap:butt;stroke-linejoin:miter;stroke-miterlimit:10;stroke-dasharray:none;stroke-opacity:1"
             d="M 6195.53,3033.35 3486.8,1278.08" /><path
             id="path166"
             style="fill:none;stroke:#034ec9;stroke-width:27.64189911;stroke-linecap:butt;stroke-linejoin:miter;stroke-miterlimit:10;stroke-dasharray:none;stroke-opacity:1"
             d="M 6124.91,3142.35 3416.18,1387.08" /><path
             id="path168"
             style="fill:none;stroke:#034ec9;stroke-width:27.64189911;stroke-linecap:butt;stroke-linejoin:miter;stroke-miterlimit:10;stroke-dasharray:none;stroke-opacity:1"
             d="M 6054.28,3251.34 3345.55,1496.07" /><path
             id="path170"
             style="fill:none;stroke:#034ec9;stroke-width:27.64189911;stroke-linecap:butt;stroke-linejoin:miter;stroke-miterlimit:10;stroke-dasharray:none;stroke-opacity:1"
             d="M 5983.65,3360.33 3274.92,1605.06" /><path
             id="path172"
             style="fill:none;stroke:#034ec9;stroke-width:27.64189911;stroke-linecap:butt;stroke-linejoin:miter;stroke-miterlimit:10;stroke-dasharray:none;stroke-opacity:1"
             d="M 5913.02,3469.33 3204.29,1714.06" /><path
             id="path174"
             style="fill:none;stroke:#034ec9;stroke-width:27.64189911;stroke-linecap:butt;stroke-linejoin:miter;stroke-miterlimit:10;stroke-dasharray:none;stroke-opacity:1"
             d="M 5842.4,3578.32 3133.66,1823.05" /><path
             id="path176"
             style="fill:none;stroke:#034ec9;stroke-width:27.64189911;stroke-linecap:butt;stroke-linejoin:miter;stroke-miterlimit:10;stroke-dasharray:none;stroke-opacity:1"
             d="M 5771.77,3687.31 3063.04,1932.04" /><path
             id="path178"
             style="fill:none;stroke:#034ec9;stroke-width:27.64189911;stroke-linecap:butt;stroke-linejoin:miter;stroke-miterlimit:10;stroke-dasharray:none;stroke-opacity:1"
             d="M 5701.14,3796.31 2992.41,2041.04" /><path
             id="path180"
             style="fill:none;stroke:#034ec9;stroke-width:27.64189911;stroke-linecap:butt;stroke-linejoin:miter;stroke-miterlimit:10;stroke-dasharray:none;stroke-opacity:1"
             d="M 5630.51,3905.3 2921.78,2150.03" /><path
             id="path182"
             style="fill:none;stroke:#034ec9;stroke-width:27.64189911;stroke-linecap:butt;stroke-linejoin:miter;stroke-miterlimit:10;stroke-dasharray:none;stroke-opacity:1"
             d="M 5559.88,4014.3 2851.15,2259.02" /><path
             id="path184"
             style="fill:none;stroke:#034ec9;stroke-width:27.64189911;stroke-linecap:butt;stroke-linejoin:miter;stroke-miterlimit:10;stroke-dasharray:none;stroke-opacity:1"
             d="M 5489.26,4123.29 2780.52,2368.02" /><path
             id="path186"
             style="fill:none;stroke:#034ec9;stroke-width:27.64189911;stroke-linecap:butt;stroke-linejoin:miter;stroke-miterlimit:10;stroke-dasharray:none;stroke-opacity:1"
             d="M 5418.63,4232.28 2709.9,2477.01" /><path
             id="path188"
             style="fill:none;stroke:#034ec9;stroke-width:27.64189911;stroke-linecap:butt;stroke-linejoin:miter;stroke-miterlimit:10;stroke-dasharray:none;stroke-opacity:1"
             d="M 5348,4341.28 2639.27,2586" /><path
             id="path190"
             style="fill:none;stroke:#034ec9;stroke-width:27.64189911;stroke-linecap:butt;stroke-linejoin:miter;stroke-miterlimit:10;stroke-dasharray:none;stroke-opacity:1"
             d="M 5277.37,4450.27 2568.64,2695" /><path
             id="path192"
             style="fill:none;stroke:#034ec9;stroke-width:27.64189911;stroke-linecap:butt;stroke-linejoin:miter;stroke-miterlimit:10;stroke-dasharray:none;stroke-opacity:1"
             d="M 5206.74,4559.26 2498.01,2803.99" /><path
             id="path194"
             style="fill:none;stroke:#034ec9;stroke-width:27.64189911;stroke-linecap:butt;stroke-linejoin:miter;stroke-miterlimit:10;stroke-dasharray:none;stroke-opacity:1"
             d="M 5136.11,4668.26 2427.38,2912.98" /><path
             id="path196"
             style="fill:none;stroke:#034ec9;stroke-width:27.64189911;stroke-linecap:butt;stroke-linejoin:miter;stroke-miterlimit:10;stroke-dasharray:none;stroke-opacity:1"
             d="M 5065.49,4777.25 2356.76,3021.98" /></g></g><g
         id="g198"><g
           clip-path="url(#clipPath204)"
           id="g200"><path
             id="path206"
             style="fill:#ee4023;fill-opacity:1;fill-rule:nonzero;stroke:none"
             d="m 2075.54,4541.44 c 27.82,-17.55 58.37,-30.2 90.25,-37.52 -19.83,-5.45 -39.38,-13.04 -58.3,-23.02 -18.93,-9.99 -36.24,-21.84 -51.94,-35.13 11.97,30.44 18.77,62.8 19.99,95.67 m 443.55,233.99 c 27.82,-17.55 58.38,-30.2 90.24,-37.51 -19.83,-5.45 -39.37,-13.04 -58.29,-23.02 -18.93,-9.99 -36.23,-21.84 -51.93,-35.13 11.96,30.43 18.77,62.79 19.98,95.66 m 443.55,234.01 c 27.83,-17.55 58.38,-30.2 90.26,-37.52 -19.84,-5.45 -39.39,-13.04 -58.32,-23.03 -18.92,-9.99 -36.22,-21.83 -51.92,-35.12 11.96,30.44 18.76,62.8 19.98,95.67 m 443.56,234 c 27.83,-17.56 58.38,-30.21 90.26,-37.51 -19.85,-5.46 -39.39,-13.06 -58.33,-23.05 -18.92,-9.98 -36.22,-21.82 -51.91,-35.1 11.96,30.43 18.76,62.79 19.98,95.66 m 443.56,233.99 c 27.81,-17.55 58.37,-30.2 90.24,-37.51 -19.83,-5.46 -39.39,-13.05 -58.31,-23.03 -18.92,-9.99 -36.22,-21.83 -51.92,-35.12 11.96,30.44 18.77,62.8 19.99,95.66 m 443.55,234 c 27.83,-17.55 58.37,-30.2 90.25,-37.51 -19.83,-5.45 -39.39,-13.05 -58.32,-23.04 -18.91,-9.97 -36.21,-21.82 -51.91,-35.11 11.96,30.44 18.76,62.79 19.98,95.66 m 321.55,-72.13 c -27.82,17.56 -58.38,30.21 -90.25,37.52 19.83,5.46 39.39,13.05 58.31,23.03 18.92,9.99 36.23,21.84 51.92,35.13 -11.96,-30.45 -18.76,-62.81 -19.98,-95.68 m 170.68,-323.49 c -24.6,-12.98 -46.48,-29.08 -65.58,-47.47 17.65,36.3 27.62,76.05 29.12,116.56 34.28,-21.63 72.71,-35.85 112.63,-41.77 -25.95,-5.37 -51.59,-14.35 -76.17,-27.32 m 301.85,-572.15 c -27.83,17.55 -58.37,30.2 -90.24,37.51 19.83,5.46 39.38,13.05 58.3,23.03 18.91,9.98 36.21,21.82 51.89,35.1 -11.94,-30.43 -18.75,-62.78 -19.95,-95.64 m -443.56,-234 c -27.81,17.56 -58.36,30.21 -90.23,37.52 19.83,5.45 39.37,13.04 58.29,23.02 18.91,9.98 36.21,21.82 51.9,35.1 -11.95,-30.42 -18.75,-62.78 -19.96,-95.64 m -443.55,-234 c -27.82,17.55 -58.37,30.2 -90.23,37.52 19.82,5.45 39.36,13.04 58.28,23.02 18.92,9.99 36.22,21.83 51.91,35.11 -11.95,-30.43 -18.75,-62.78 -19.96,-95.65 m -443.56,-234 c -27.82,17.55 -58.36,30.21 -90.23,37.52 19.83,5.45 39.38,13.05 58.29,23.02 18.92,9.99 36.21,21.83 51.91,35.11 -11.96,-30.43 -18.75,-62.79 -19.97,-95.65 m -443.55,-234 c -27.82,17.55 -58.36,30.2 -90.23,37.52 19.82,5.46 39.37,13.04 58.29,23.03 18.92,9.97 36.21,21.82 51.9,35.1 -11.95,-30.43 -18.75,-62.78 -19.96,-95.65 m -443.56,-233.99 c -27.81,17.55 -58.35,30.2 -90.21,37.51 19.82,5.46 39.36,13.05 58.27,23.02 18.92,9.99 36.22,21.83 51.91,35.12 -11.95,-30.44 -18.75,-62.79 -19.97,-95.65 m -321.55,72.12 c 27.81,-17.55 58.35,-30.19 90.21,-37.51 -19.82,-5.45 -39.36,-13.04 -58.27,-23.01 -18.92,-9.99 -36.22,-21.83 -51.91,-35.11 11.95,30.42 18.76,62.77 19.97,95.63 m -170.68,323.53 c 24.59,12.97 46.47,29.06 65.55,47.44 -17.65,-36.28 -27.6,-76.03 -29.1,-116.53 -34.29,21.63 -72.71,35.84 -112.63,41.77 25.95,5.37 51.59,14.34 76.18,27.32 m 2254.21,1100.91 c -34.27,21.63 -72.69,35.84 -112.6,41.76 25.94,5.38 51.57,14.35 76.15,27.31 24.59,12.98 46.47,29.08 65.57,47.46 -17.65,-36.29 -27.61,-76.03 -29.12,-116.53 M 2857.38,4134.24 c -34.28,21.62 -72.71,35.84 -112.62,41.75 25.95,5.38 51.59,14.36 76.18,27.33 24.58,12.97 46.45,29.06 65.54,47.44 -17.64,-36.29 -27.61,-76.02 -29.1,-116.52 m 443.55,233.99 c -34.28,21.63 -72.7,35.84 -112.62,41.76 25.95,5.37 51.59,14.35 76.17,27.32 24.59,12.97 46.47,29.07 65.56,47.46 -17.65,-36.29 -27.61,-76.04 -29.11,-116.54 m 443.55,234 c -34.27,21.62 -72.7,35.84 -112.61,41.76 25.94,5.38 51.57,14.35 76.15,27.32 24.6,12.97 46.48,29.07 65.58,47.46 -17.65,-36.29 -27.61,-76.03 -29.12,-116.54 m 443.55,234.01 c -34.27,21.62 -72.69,35.83 -112.61,41.75 25.95,5.37 51.58,14.35 76.16,27.31 24.59,12.98 46.48,29.07 65.57,47.46 -17.66,-36.28 -27.61,-76.03 -29.12,-116.52 m 117.5,314.66 c 34.28,-21.63 72.7,-35.85 112.62,-41.77 -25.95,-5.38 -51.59,-14.35 -76.17,-27.32 -24.59,-12.97 -46.47,-29.06 -65.56,-47.46 17.65,36.3 27.61,76.04 29.11,116.55 m -443.55,-234 c 34.27,-21.63 72.71,-35.84 112.62,-41.77 -25.95,-5.37 -51.59,-14.35 -76.17,-27.32 -24.59,-12.98 -46.48,-29.07 -65.57,-47.46 17.66,36.3 27.62,76.05 29.12,116.55 m -443.56,-233.99 c 34.28,-21.64 72.7,-35.85 112.62,-41.78 -25.95,-5.37 -51.58,-14.35 -76.17,-27.31 -24.59,-12.98 -46.48,-29.08 -65.57,-47.47 17.66,36.29 27.61,76.05 29.12,116.56 m -443.56,-234 c 34.28,-21.64 72.71,-35.85 112.63,-41.78 -25.95,-5.37 -51.58,-14.34 -76.17,-27.32 -24.59,-12.97 -46.47,-29.06 -65.57,-47.45 17.66,36.3 27.62,76.04 29.11,116.55 M 2531.31,4214.9 c 34.29,-21.63 72.71,-35.84 112.64,-41.76 -25.96,-5.38 -51.6,-14.36 -76.19,-27.33 -24.59,-12.97 -46.47,-29.06 -65.55,-47.44 17.65,36.29 27.6,76.02 29.1,116.53 m 492.25,-395.64 c -18.93,-9.97 -36.22,-21.82 -51.91,-35.1 11.95,30.42 18.75,62.76 19.96,95.62 27.82,-17.54 58.35,-30.19 90.21,-37.5 -19.82,-5.45 -39.35,-13.04 -58.26,-23.02 m 443.53,233.99 c -18.91,-9.97 -36.2,-21.81 -51.89,-35.09 11.95,30.42 18.75,62.77 19.96,95.62 27.81,-17.54 58.35,-30.19 90.22,-37.5 -19.83,-5.45 -39.37,-13.04 -58.29,-23.03 m 443.55,234 c -18.91,-9.98 -36.2,-21.82 -51.88,-35.09 11.94,30.42 18.74,62.77 19.96,95.63 27.82,-17.55 58.36,-30.2 90.22,-37.52 -19.83,-5.45 -39.37,-13.04 -58.3,-23.02 m 443.56,234 c -18.91,-9.98 -36.2,-21.81 -51.89,-35.1 11.95,30.43 18.75,62.77 19.97,95.62 27.81,-17.53 58.35,-30.18 90.2,-37.5 -19.82,-5.45 -39.36,-13.04 -58.28,-23.02 m 443.55,234 c -18.9,-9.98 -36.19,-21.81 -51.88,-35.09 11.94,30.42 18.74,62.76 19.96,95.62 27.82,-17.55 58.35,-30.19 90.21,-37.51 -19.82,-5.45 -39.36,-13.04 -58.29,-23.02 m -658.38,710.61 c 18.92,9.98 36.22,21.82 51.92,35.11 -11.96,-30.43 -18.77,-62.79 -19.98,-95.66 -27.82,17.55 -58.38,30.2 -90.25,37.52 19.84,5.45 39.39,13.04 58.31,23.03 m -443.56,-234.01 c 18.92,9.99 36.23,21.84 51.93,35.12 -11.96,-30.43 -18.76,-62.79 -19.98,-95.66 -27.83,17.55 -58.38,30.2 -90.26,37.51 19.83,5.46 39.38,13.05 58.31,23.03 m -443.55,-233.99 c 18.93,9.98 36.23,21.83 51.91,35.11 -11.95,-30.43 -18.75,-62.79 -19.97,-95.66 -27.82,17.55 -58.37,30.2 -90.26,37.51 19.84,5.46 39.39,13.05 58.32,23.04 m -443.55,-234 c 18.91,9.99 36.22,21.83 51.91,35.12 -11.95,-30.44 -18.76,-62.8 -19.98,-95.67 -27.82,17.55 -58.36,30.21 -90.24,37.52 19.83,5.45 39.38,13.05 58.31,23.03 m -443.56,-234 c 18.92,9.98 36.23,21.83 51.93,35.12 -11.96,-30.44 -18.77,-62.79 -19.99,-95.66 -27.82,17.54 -58.36,30.2 -90.24,37.51 19.83,5.46 39.38,13.05 58.3,23.03 m -443.55,-234 c 18.92,9.98 36.23,21.84 51.93,35.13 -29.75,-75.7 -27.74,-163.41 13.11,-240.82 44.65,-84.65 125.65,-137.96 213.76,-151.03 -25.96,-5.38 -51.6,-14.35 -76.19,-27.33 -141.05,-74.41 -195.26,-249.7 -120.85,-390.75 74.42,-141.05 249.71,-195.26 390.75,-120.85 18.92,9.98 36.23,21.83 51.92,35.11 -29.73,-75.7 -27.71,-163.4 13.13,-240.81 74.4,-141.03 249.69,-195.24 390.74,-120.83 94.75,49.99 150.22,145.51 153.93,245.58 84.69,-53.43 194.86,-61.57 289.62,-11.58 94.75,49.99 150.23,145.51 153.93,245.58 84.69,-53.44 194.86,-61.57 289.61,-11.58 94.76,49.98 150.24,145.51 153.94,245.58 84.7,-53.44 194.86,-61.57 289.61,-11.59 94.76,49.99 150.24,145.52 153.96,245.59 84.68,-53.44 194.84,-61.58 289.59,-11.59 94.76,49.99 150.25,145.51 153.96,245.58 84.69,-53.43 194.85,-61.56 289.6,-11.58 94.75,49.99 150.24,145.51 153.95,245.58 84.69,-53.44 194.85,-61.57 289.61,-11.58 141.04,74.41 195.25,249.69 120.85,390.72 -74.41,141.06 -249.7,195.27 -390.74,120.86 -18.92,-9.98 -36.21,-21.82 -51.91,-35.09 29.74,75.69 27.72,163.38 -13.13,240.79 -44.65,84.64 -125.64,137.96 -213.75,151.04 25.95,5.37 51.58,14.35 76.17,27.32 141.04,74.4 195.25,249.7 120.84,390.74 -74.41,141.04 -249.7,195.24 -390.74,120.84 -18.92,-9.99 -36.22,-21.84 -51.92,-35.12 29.75,75.7 27.73,163.42 -13.11,240.83 -74.41,141.03 -249.7,195.24 -390.74,120.84 -94.76,-49.99 -150.24,-145.51 -153.95,-245.57 -84.7,53.43 -194.85,61.55 -289.61,11.57 -94.75,-49.99 -150.24,-145.5 -153.95,-245.57 -84.69,53.43 -194.86,61.56 -289.6,11.57 -94.76,-49.99 -150.23,-145.51 -153.94,-245.58 -84.7,53.44 -194.86,61.57 -289.61,11.58 -94.76,-49.99 -150.24,-145.51 -153.96,-245.57 -84.69,53.42 -194.85,61.55 -289.6,11.57 -94.75,-49.99 -150.24,-145.5 -153.95,-245.56 -84.69,53.42 -194.85,61.55 -289.6,11.55 -94.75,-49.97 -150.24,-145.49 -153.95,-245.56 -84.69,53.43 -194.86,61.56 -289.62,11.57 -141.04,-74.41 -195.25,-249.69 -120.85,-390.72 74.42,-141.05 249.71,-195.27 390.76,-120.86" /></g></g><g
         id="g208"><g
           clip-path="url(#clipPath214)"
           id="g210"><g
             clip-path="url(#clipPath220)"
             id="g216"><path
               id="path222"
               style="fill:#034ec9;fill-opacity:1;fill-rule:nonzero;stroke:none"
               d="m 1898.71,7876.69 c -24.64,19.4 -60.34,15.15 -79.74,-9.49 -19.4,-24.64 -15.14,-60.34 9.49,-79.74 24.64,-19.39 60.34,-15.14 79.74,9.5 19.4,24.63 15.15,60.33 -9.49,79.73" /><path
               id="path224"
               style="fill:#034ec9;fill-opacity:1;fill-rule:nonzero;stroke:none"
               d="m 2039.2,8055.14 c -24.64,19.4 -60.34,15.15 -79.74,-9.49 -19.4,-24.64 -15.15,-60.33 9.49,-79.74 24.64,-19.39 60.34,-15.14 79.74,9.5 19.4,24.64 15.15,60.34 -9.49,79.73" /><path
               id="path226"
               style="fill:#034ec9;fill-opacity:1;fill-rule:nonzero;stroke:none"
               d="m 2179.68,8233.6 c -24.64,19.4 -60.33,15.15 -79.73,-9.49 -19.4,-24.65 -15.15,-60.34 9.49,-79.74 24.63,-19.39 60.34,-15.15 79.73,9.49 19.4,24.64 15.15,60.34 -9.49,79.74" /><path
               id="path228"
               style="fill:#034ec9;fill-opacity:1;fill-rule:nonzero;stroke:none"
               d="m 2320.17,8412.05 c -24.64,19.4 -60.34,15.15 -79.74,-9.49 -19.39,-24.64 -15.14,-60.34 9.5,-79.74 24.63,-19.39 60.33,-15.14 79.73,9.49 19.4,24.64 15.15,60.34 -9.49,79.74" /><path
               id="path230"
               style="fill:#034ec9;fill-opacity:1;fill-rule:nonzero;stroke:none"
               d="m 2147.4,7825.43 c -24.64,19.4 -60.33,15.15 -79.73,-9.49 -19.4,-24.64 -15.15,-60.34 9.49,-79.74 24.64,-19.39 60.34,-15.15 79.74,9.5 19.4,24.63 15.14,60.33 -9.5,79.73" /><path
               id="path232"
               style="fill:#034ec9;fill-opacity:1;fill-rule:nonzero;stroke:none"
               d="m 2287.89,8003.88 c -24.64,19.4 -60.33,15.15 -79.73,-9.49 -19.4,-24.64 -15.15,-60.34 9.49,-79.73 24.63,-19.4 60.33,-15.15 79.73,9.49 19.4,24.64 15.15,60.33 -9.49,79.73" /><path
               id="path234"
               style="fill:#034ec9;fill-opacity:1;fill-rule:nonzero;stroke:none"
               d="m 2428.38,8182.34 c -24.64,19.4 -60.34,15.14 -79.73,-9.5 -19.4,-24.64 -15.15,-60.33 9.49,-79.73 24.63,-19.4 60.33,-15.15 79.73,9.49 19.4,24.64 15.15,60.34 -9.49,79.74" /><path
               id="path236"
               style="fill:#034ec9;fill-opacity:1;fill-rule:nonzero;stroke:none"
               d="m 2568.87,8360.79 c -24.64,19.4 -60.34,15.15 -79.74,-9.49 -19.4,-24.64 -15.15,-60.34 9.49,-79.74 24.64,-19.39 60.34,-15.15 79.74,9.49 19.4,24.64 15.15,60.34 -9.49,79.74" /><path
               id="path238"
               style="fill:#034ec9;fill-opacity:1;fill-rule:nonzero;stroke:none"
               d="m 2259.05,7593.01 c -24.64,19.4 -60.34,15.15 -79.74,-9.49 -19.4,-24.64 -15.14,-60.34 9.49,-79.73 24.64,-19.4 60.34,-15.15 79.74,9.49 19.4,24.63 15.15,60.33 -9.49,79.73" /><path
               id="path240"
               style="fill:#034ec9;fill-opacity:1;fill-rule:nonzero;stroke:none"
               d="m 2399.54,7771.46 c -24.64,19.4 -60.34,15.15 -79.74,-9.49 -19.39,-24.63 -15.15,-60.33 9.49,-79.74 24.64,-19.39 60.34,-15.14 79.74,9.5 19.4,24.64 15.14,60.34 -9.49,79.73" /><path
               id="path242"
               style="fill:#034ec9;fill-opacity:1;fill-rule:nonzero;stroke:none"
               d="m 2540.02,7949.92 c -24.64,19.4 -60.33,15.14 -79.73,-9.5 -19.4,-24.63 -15.15,-60.33 9.49,-79.73 24.63,-19.4 60.33,-15.15 79.74,9.49 19.4,24.64 15.14,60.34 -9.5,79.74" /><path
               id="path244"
               style="fill:#034ec9;fill-opacity:1;fill-rule:nonzero;stroke:none"
               d="m 2680.51,8128.37 c -24.64,19.4 -60.33,15.15 -79.74,-9.49 -19.4,-24.64 -15.14,-60.34 9.5,-79.74 24.63,-19.39 60.33,-15.14 79.73,9.49 19.4,24.64 15.15,60.34 -9.49,79.74" /><path
               id="path246"
               style="fill:#034ec9;fill-opacity:1;fill-rule:nonzero;stroke:none"
               d="m 2821,8306.82 c -24.64,19.4 -60.34,15.15 -79.74,-9.49 -19.4,-24.64 -15.14,-60.34 9.49,-79.74 24.64,-19.39 60.34,-15.14 79.74,9.5 19.4,24.64 15.15,60.33 -9.49,79.73" /><path
               id="path248"
               style="fill:#034ec9;fill-opacity:1;fill-rule:nonzero;stroke:none"
               d="m 2961.49,8485.27 c -24.64,19.41 -60.34,15.15 -79.74,-9.49 -19.4,-24.64 -15.15,-60.33 9.49,-79.73 24.64,-19.4 60.34,-15.15 79.74,9.49 19.4,24.64 15.15,60.34 -9.49,79.73" /><path
               id="path250"
               style="fill:#034ec9;fill-opacity:1;fill-rule:nonzero;stroke:none"
               d="m 2507.74,7541.75 c -24.63,19.4 -60.33,15.15 -79.73,-9.49 -19.4,-24.64 -15.15,-60.34 9.49,-79.74 24.64,-19.39 60.34,-15.14 79.74,9.5 19.4,24.63 15.14,60.33 -9.5,79.73" /><path
               id="path252"
               style="fill:#034ec9;fill-opacity:1;fill-rule:nonzero;stroke:none"
               d="m 2648.23,7720.2 c -24.64,19.4 -60.33,15.15 -79.73,-9.49 -19.4,-24.64 -15.15,-60.33 9.49,-79.73 24.63,-19.4 60.34,-15.15 79.73,9.48 19.4,24.65 15.15,60.34 -9.49,79.74" /><path
               id="path254"
               style="fill:#034ec9;fill-opacity:1;fill-rule:nonzero;stroke:none"
               d="m 2788.72,7898.66 c -24.64,19.39 -60.34,15.14 -79.74,-9.5 -19.4,-24.64 -15.14,-60.33 9.5,-79.73 24.63,-19.39 60.33,-15.15 79.73,9.49 19.4,24.64 15.15,60.33 -9.49,79.74" /><path
               id="path256"
               style="fill:#034ec9;fill-opacity:1;fill-rule:nonzero;stroke:none"
               d="m 2929.21,8077.11 c -24.64,19.4 -60.34,15.14 -79.74,-9.49 -19.4,-24.64 -15.15,-60.34 9.49,-79.74 24.64,-19.4 60.34,-15.15 79.74,9.49 19.4,24.64 15.15,60.34 -9.49,79.74" /><path
               id="path258"
               style="fill:#034ec9;fill-opacity:1;fill-rule:nonzero;stroke:none"
               d="m 3069.69,8255.56 c -24.63,19.4 -60.33,15.15 -79.73,-9.49 -19.4,-24.64 -15.15,-60.34 9.49,-79.74 24.64,-19.39 60.34,-15.14 79.74,9.49 19.4,24.64 15.14,60.34 -9.5,79.74" /><path
               id="path260"
               style="fill:#034ec9;fill-opacity:1;fill-rule:nonzero;stroke:none"
               d="m 3210.18,8434.02 c -24.64,19.39 -60.33,15.14 -79.73,-9.5 -19.4,-24.64 -15.15,-60.34 9.49,-79.73 24.64,-19.4 60.34,-15.15 79.74,9.49 19.39,24.64 15.14,60.33 -9.5,79.74" /><path
               id="path262"
               style="fill:#034ec9;fill-opacity:1;fill-rule:nonzero;stroke:none"
               d="m 2619.39,7309.33 c -24.64,19.4 -60.34,15.15 -79.74,-9.49 -19.4,-24.64 -15.14,-60.34 9.5,-79.74 24.63,-19.39 60.33,-15.14 79.73,9.49 19.4,24.64 15.15,60.34 -9.49,79.74" /><path
               id="path264"
               style="fill:#034ec9;fill-opacity:1;fill-rule:nonzero;stroke:none"
               d="m 2759.88,7487.79 c -24.64,19.39 -60.34,15.14 -79.74,-9.5 -19.4,-24.64 -15.15,-60.34 9.49,-79.74 24.64,-19.39 60.34,-15.14 79.74,9.5 19.4,24.64 15.15,60.33 -9.49,79.74" /><path
               id="path266"
               style="fill:#034ec9;fill-opacity:1;fill-rule:nonzero;stroke:none"
               d="m 2900.36,7666.24 c -24.63,19.4 -60.33,15.14 -79.73,-9.49 -19.4,-24.64 -15.15,-60.34 9.49,-79.74 24.64,-19.4 60.34,-15.15 79.74,9.49 19.4,24.64 15.14,60.34 -9.5,79.74" /><path
               id="path268"
               style="fill:#034ec9;fill-opacity:1;fill-rule:nonzero;stroke:none"
               d="m 3040.85,7844.69 c -24.64,19.4 -60.33,15.15 -79.73,-9.49 -19.4,-24.64 -15.15,-60.34 9.49,-79.74 24.63,-19.39 60.33,-15.14 79.73,9.49 19.4,24.64 15.15,60.34 -9.49,79.74" /><path
               id="path270"
               style="fill:#034ec9;fill-opacity:1;fill-rule:nonzero;stroke:none"
               d="m 3181.34,8023.14 c -24.64,19.4 -60.34,15.15 -79.74,-9.49 -19.39,-24.63 -15.14,-60.34 9.5,-79.74 24.63,-19.39 60.33,-15.14 79.73,9.5 19.4,24.63 15.15,60.33 -9.49,79.73" /><path
               id="path272"
               style="fill:#034ec9;fill-opacity:1;fill-rule:nonzero;stroke:none"
               d="m 3321.83,8201.59 c -24.64,19.41 -60.34,15.15 -79.74,-9.49 -19.4,-24.64 -15.15,-60.33 9.49,-79.73 24.64,-19.4 60.34,-15.15 79.74,9.49 19.4,24.64 15.14,60.34 -9.49,79.73" /><path
               id="path274"
               style="fill:#034ec9;fill-opacity:1;fill-rule:nonzero;stroke:none"
               d="m 3462.31,8380.05 c -24.64,19.4 -60.33,15.15 -79.73,-9.5 -19.4,-24.63 -15.15,-60.33 9.49,-79.73 24.64,-19.39 60.34,-15.15 79.74,9.49 19.4,24.64 15.14,60.34 -9.5,79.74" /><path
               id="path276"
               style="fill:#034ec9;fill-opacity:1;fill-rule:nonzero;stroke:none"
               d="m 2868.09,7258.07 c -24.65,19.4 -60.34,15.15 -79.74,-9.49 -19.4,-24.64 -15.15,-60.34 9.49,-79.74 24.64,-19.39 60.34,-15.15 79.74,9.49 19.4,24.64 15.14,60.34 -9.49,79.74" /><path
               id="path278"
               style="fill:#034ec9;fill-opacity:1;fill-rule:nonzero;stroke:none"
               d="m 3008.57,7436.52 c -24.64,19.4 -60.34,15.15 -79.73,-9.49 -19.4,-24.64 -15.15,-60.34 9.49,-79.74 24.63,-19.39 60.33,-15.14 79.73,9.5 19.4,24.63 15.15,60.33 -9.49,79.73" /><path
               id="path280"
               style="fill:#034ec9;fill-opacity:1;fill-rule:nonzero;stroke:none"
               d="m 3149.06,7614.98 c -24.64,19.4 -60.34,15.14 -79.74,-9.5 -19.4,-24.64 -15.14,-60.33 9.5,-79.73 24.63,-19.4 60.33,-15.15 79.73,9.49 19.4,24.64 15.15,60.33 -9.49,79.74" /><path
               id="path282"
               style="fill:#034ec9;fill-opacity:1;fill-rule:nonzero;stroke:none"
               d="m 3289.55,7793.43 c -24.64,19.4 -60.34,15.14 -79.74,-9.49 -19.4,-24.64 -15.14,-60.34 9.49,-79.74 24.64,-19.4 60.34,-15.15 79.74,9.49 19.4,24.64 15.15,60.34 -9.49,79.74" /><path
               id="path284"
               style="fill:#034ec9;fill-opacity:1;fill-rule:nonzero;stroke:none"
               d="m 3430.03,7971.88 c -24.63,19.4 -60.33,15.15 -79.73,-9.49 -19.4,-24.64 -15.15,-60.34 9.49,-79.74 24.64,-19.39 60.34,-15.15 79.74,9.49 19.4,24.65 15.15,60.34 -9.5,79.74" /><path
               id="path286"
               style="fill:#034ec9;fill-opacity:1;fill-rule:nonzero;stroke:none"
               d="m 3570.52,8150.33 c -24.64,19.4 -60.33,15.15 -79.73,-9.49 -19.4,-24.64 -15.15,-60.34 9.49,-79.73 24.63,-19.4 60.34,-15.15 79.73,9.49 19.4,24.63 15.15,60.33 -9.49,79.73" /><path
               id="path288"
               style="fill:#034ec9;fill-opacity:1;fill-rule:nonzero;stroke:none"
               d="m 3711.01,8328.79 c -24.64,19.4 -60.34,15.14 -79.74,-9.5 -19.39,-24.63 -15.14,-60.33 9.5,-79.73 24.63,-19.4 60.33,-15.15 79.73,9.49 19.4,24.64 15.15,60.34 -9.49,79.74" /><path
               id="path290"
               style="fill:#034ec9;fill-opacity:1;fill-rule:nonzero;stroke:none"
               d="m 3851.5,8507.24 c -24.64,19.4 -60.34,15.15 -79.74,-9.49 -19.4,-24.64 -15.14,-60.34 9.49,-79.74 24.64,-19.39 60.34,-15.15 79.74,9.49 19.4,24.64 15.15,60.34 -9.49,79.74" /><path
               id="path292"
               style="fill:#034ec9;fill-opacity:1;fill-rule:nonzero;stroke:none"
               d="m 2979.73,7025.65 c -24.64,19.4 -60.34,15.15 -79.74,-9.49 -19.4,-24.64 -15.14,-60.34 9.49,-79.74 24.64,-19.39 60.34,-15.15 79.74,9.49 19.4,24.64 15.15,60.34 -9.49,79.74" /><path
               id="path294"
               style="fill:#034ec9;fill-opacity:1;fill-rule:nonzero;stroke:none"
               d="m 3120.22,7204.1 c -24.64,19.4 -60.34,15.15 -79.74,-9.49 -19.4,-24.64 -15.15,-60.34 9.49,-79.74 24.64,-19.39 60.34,-15.14 79.74,9.5 19.4,24.64 15.15,60.33 -9.49,79.73" /><path
               id="path296"
               style="fill:#034ec9;fill-opacity:1;fill-rule:nonzero;stroke:none"
               d="m 3260.71,7382.56 c -24.65,19.4 -60.34,15.14 -79.74,-9.5 -19.4,-24.64 -15.15,-60.33 9.49,-79.73 24.64,-19.4 60.34,-15.15 79.74,9.49 19.4,24.64 15.14,60.34 -9.49,79.74" /><path
               id="path298"
               style="fill:#034ec9;fill-opacity:1;fill-rule:nonzero;stroke:none"
               d="m 3401.19,7561.01 c -24.64,19.4 -60.34,15.15 -79.73,-9.49 -19.4,-24.64 -15.15,-60.34 9.49,-79.74 24.63,-19.39 60.33,-15.15 79.73,9.49 19.4,24.64 15.15,60.34 -9.49,79.74" /><path
               id="path300"
               style="fill:#034ec9;fill-opacity:1;fill-rule:nonzero;stroke:none"
               d="m 3541.68,7739.46 c -24.64,19.4 -60.34,15.15 -79.74,-9.49 -19.4,-24.64 -15.14,-60.34 9.5,-79.74 24.63,-19.39 60.33,-15.14 79.73,9.5 19.4,24.63 15.15,60.33 -9.49,79.73" /><path
               id="path302"
               style="fill:#034ec9;fill-opacity:1;fill-rule:nonzero;stroke:none"
               d="m 3682.17,7917.91 c -24.64,19.4 -60.34,15.15 -79.74,-9.49 -19.39,-24.63 -15.14,-60.33 9.49,-79.73 24.64,-19.4 60.34,-15.15 79.74,9.49 19.4,24.64 15.15,60.34 -9.49,79.73" /><path
               id="path304"
               style="fill:#034ec9;fill-opacity:1;fill-rule:nonzero;stroke:none"
               d="m 3822.65,8096.37 c -24.63,19.4 -60.33,15.15 -79.73,-9.49 -19.4,-24.64 -15.15,-60.34 9.49,-79.74 24.64,-19.39 60.34,-15.15 79.74,9.49 19.4,24.64 15.14,60.34 -9.5,79.74" /><path
               id="path306"
               style="fill:#034ec9;fill-opacity:1;fill-rule:nonzero;stroke:none"
               d="m 3963.14,8274.82 c -24.64,19.4 -60.33,15.15 -79.73,-9.49 -19.4,-24.64 -15.15,-60.34 9.49,-79.74 24.63,-19.39 60.33,-15.14 79.73,9.49 19.4,24.64 15.15,60.34 -9.49,79.74" /><path
               id="path308"
               style="fill:#034ec9;fill-opacity:1;fill-rule:nonzero;stroke:none"
               d="m 4103.63,8453.27 c -24.64,19.4 -60.34,15.15 -79.74,-9.49 -19.4,-24.64 -15.14,-60.33 9.5,-79.74 24.63,-19.39 60.33,-15.14 79.73,9.5 19.4,24.64 15.15,60.34 -9.49,79.73" /><path
               id="path310"
               style="fill:#034ec9;fill-opacity:1;fill-rule:nonzero;stroke:none"
               d="m 3228.43,6974.39 c -24.64,19.4 -60.34,15.15 -79.74,-9.49 -19.4,-24.64 -15.15,-60.34 9.49,-79.74 24.64,-19.39 60.34,-15.15 79.74,9.49 19.4,24.64 15.14,60.34 -9.49,79.74" /><path
               id="path312"
               style="fill:#034ec9;fill-opacity:1;fill-rule:nonzero;stroke:none"
               d="m 3368.91,7152.84 c -24.64,19.4 -60.33,15.15 -79.73,-9.49 -19.4,-24.64 -15.15,-60.34 9.49,-79.74 24.64,-19.39 60.34,-15.14 79.74,9.5 19.4,24.63 15.14,60.33 -9.5,79.73" /><path
               id="path314"
               style="fill:#034ec9;fill-opacity:1;fill-rule:nonzero;stroke:none"
               d="m 3509.4,7331.29 c -24.64,19.4 -60.34,15.15 -79.73,-9.49 -19.41,-24.64 -15.15,-60.33 9.49,-79.73 24.63,-19.4 60.33,-15.15 79.73,9.49 19.4,24.64 15.15,60.33 -9.49,79.73" /><path
               id="path316"
               style="fill:#034ec9;fill-opacity:1;fill-rule:nonzero;stroke:none"
               d="m 3649.89,7509.75 c -24.64,19.4 -60.34,15.14 -79.74,-9.5 -19.4,-24.63 -15.15,-60.33 9.49,-79.73 24.64,-19.4 60.34,-15.15 79.74,9.49 19.4,24.64 15.15,60.34 -9.49,79.74" /><path
               id="path318"
               style="fill:#034ec9;fill-opacity:1;fill-rule:nonzero;stroke:none"
               d="m 3790.38,7688.2 c -24.64,19.4 -60.34,15.15 -79.74,-9.49 -19.4,-24.64 -15.15,-60.34 9.49,-79.74 24.64,-19.39 60.34,-15.15 79.74,9.49 19.4,24.65 15.14,60.34 -9.49,79.74" /><path
               id="path320"
               style="fill:#034ec9;fill-opacity:1;fill-rule:nonzero;stroke:none"
               d="m 3930.86,7866.65 c -24.64,19.4 -60.33,15.15 -79.73,-9.49 -19.4,-24.64 -15.15,-60.34 9.49,-79.73 24.63,-19.4 60.33,-15.15 79.73,9.49 19.41,24.63 15.15,60.33 -9.49,79.73" /><path
               id="path322"
               style="fill:#034ec9;fill-opacity:1;fill-rule:nonzero;stroke:none"
               d="m 4071.35,8045.11 c -24.64,19.39 -60.33,15.14 -79.74,-9.5 -19.4,-24.63 -15.14,-60.33 9.5,-79.73 24.63,-19.4 60.33,-15.15 79.73,9.49 19.4,24.64 15.15,60.34 -9.49,79.74" /><path
               id="path324"
               style="fill:#034ec9;fill-opacity:1;fill-rule:nonzero;stroke:none"
               d="m 4211.84,8223.56 c -24.64,19.4 -60.34,15.15 -79.74,-9.49 -19.4,-24.64 -15.14,-60.34 9.49,-79.74 24.64,-19.39 60.34,-15.15 79.74,9.49 19.4,24.64 15.15,60.34 -9.49,79.74" /><path
               id="path326"
               style="fill:#034ec9;fill-opacity:1;fill-rule:nonzero;stroke:none"
               d="m 4352.33,8402.01 c -24.64,19.4 -60.34,15.15 -79.74,-9.49 -19.4,-24.64 -15.15,-60.34 9.49,-79.74 24.64,-19.39 60.34,-15.14 79.74,9.49 19.4,24.64 15.15,60.34 -9.49,79.74" /><path
               id="path328"
               style="fill:#034ec9;fill-opacity:1;fill-rule:nonzero;stroke:none"
               d="m 3340.07,6741.97 c -24.64,19.4 -60.34,15.15 -79.74,-9.49 -19.39,-24.64 -15.14,-60.34 9.5,-79.74 24.63,-19.39 60.33,-15.15 79.73,9.49 19.4,24.64 15.15,60.34 -9.49,79.74" /><path
               id="path330"
               style="fill:#034ec9;fill-opacity:1;fill-rule:nonzero;stroke:none"
               d="m 3480.56,6920.42 c -24.64,19.4 -60.34,15.15 -79.74,-9.49 -19.4,-24.64 -15.15,-60.34 9.49,-79.74 24.64,-19.39 60.34,-15.14 79.74,9.5 19.4,24.63 15.15,60.33 -9.49,79.73" /><path
               id="path332"
               style="fill:#034ec9;fill-opacity:1;fill-rule:nonzero;stroke:none"
               d="m 3621.04,7098.87 c -24.63,19.4 -60.33,15.15 -79.73,-9.49 -19.4,-24.64 -15.15,-60.33 9.49,-79.73 24.64,-19.4 60.34,-15.15 79.74,9.49 19.4,24.64 15.14,60.33 -9.5,79.73" /><path
               id="path334"
               style="fill:#034ec9;fill-opacity:1;fill-rule:nonzero;stroke:none"
               d="m 3761.53,7277.33 c -24.64,19.4 -60.33,15.15 -79.73,-9.49 -19.4,-24.64 -15.15,-60.34 9.49,-79.74 24.63,-19.39 60.33,-15.15 79.73,9.49 19.4,24.64 15.15,60.34 -9.49,79.74" /><path
               id="path336"
               style="fill:#034ec9;fill-opacity:1;fill-rule:nonzero;stroke:none"
               d="m 3902.02,7455.78 c -24.64,19.4 -60.34,15.15 -79.73,-9.49 -19.4,-24.64 -15.15,-60.34 9.49,-79.74 24.63,-19.39 60.33,-15.15 79.73,9.49 19.4,24.64 15.15,60.34 -9.49,79.74" /><path
               id="path338"
               style="fill:#034ec9;fill-opacity:1;fill-rule:nonzero;stroke:none"
               d="m 4042.51,7634.23 c -24.64,19.4 -60.34,15.15 -79.74,-9.49 -19.4,-24.64 -15.15,-60.33 9.49,-79.74 24.64,-19.39 60.34,-15.14 79.74,9.5 19.4,24.64 15.15,60.34 -9.49,79.73" /><path
               id="path340"
               style="fill:#034ec9;fill-opacity:1;fill-rule:nonzero;stroke:none"
               d="m 4183,7812.69 c -24.65,19.4 -60.34,15.14 -79.74,-9.49 -19.4,-24.65 -15.15,-60.34 9.49,-79.74 24.64,-19.39 60.34,-15.15 79.74,9.49 19.4,24.64 15.14,60.34 -9.49,79.74" /><path
               id="path342"
               style="fill:#034ec9;fill-opacity:1;fill-rule:nonzero;stroke:none"
               d="m 4323.48,7991.14 c -24.64,19.4 -60.33,15.15 -79.73,-9.49 -19.4,-24.64 -15.15,-60.34 9.49,-79.74 24.63,-19.39 60.33,-15.14 79.73,9.5 19.4,24.63 15.15,60.33 -9.49,79.73" /><path
               id="path344"
               style="fill:#034ec9;fill-opacity:1;fill-rule:nonzero;stroke:none"
               d="m 3588.76,6690.71 c -24.63,19.4 -60.33,15.14 -79.73,-9.49 -19.4,-24.64 -15.15,-60.34 9.49,-79.74 24.64,-19.4 60.34,-15.15 79.74,9.49 19.4,24.64 15.14,60.34 -9.5,79.74" /><path
               id="path346"
               style="fill:#034ec9;fill-opacity:1;fill-rule:nonzero;stroke:none"
               d="m 3729.25,6869.16 c -24.64,19.4 -60.33,15.15 -79.73,-9.49 -19.4,-24.64 -15.15,-60.34 9.49,-79.74 24.64,-19.39 60.34,-15.14 79.74,9.49 19.39,24.64 15.14,60.34 -9.5,79.74" /><path
               id="path348"
               style="fill:#034ec9;fill-opacity:1;fill-rule:nonzero;stroke:none"
               d="m 3869.74,7047.61 c -24.64,19.4 -60.34,15.15 -79.74,-9.49 -19.39,-24.64 -15.14,-60.34 9.5,-79.74 24.63,-19.39 60.33,-15.14 79.73,9.5 19.4,24.64 15.15,60.33 -9.49,79.73" /><path
               id="path350"
               style="fill:#034ec9;fill-opacity:1;fill-rule:nonzero;stroke:none"
               d="m 4010.23,7226.07 c -24.64,19.4 -60.34,15.14 -79.74,-9.5 -19.4,-24.64 -15.14,-60.33 9.5,-79.73 24.63,-19.4 60.33,-15.15 79.73,9.49 19.4,24.64 15.15,60.34 -9.49,79.74" /><path
               id="path352"
               style="fill:#034ec9;fill-opacity:1;fill-rule:nonzero;stroke:none"
               d="m 4150.72,7404.52 c -24.64,19.4 -60.34,15.15 -79.74,-9.49 -19.4,-24.64 -15.15,-60.34 9.49,-79.74 24.64,-19.39 60.34,-15.15 79.74,9.49 19.4,24.64 15.14,60.34 -9.49,79.74" /><path
               id="path354"
               style="fill:#034ec9;fill-opacity:1;fill-rule:nonzero;stroke:none"
               d="m 4291.2,7582.97 c -24.64,19.4 -60.33,15.15 -79.73,-9.49 -19.4,-24.64 -15.15,-60.34 9.49,-79.73 24.64,-19.4 60.34,-15.15 79.74,9.49 19.4,24.64 15.14,60.33 -9.5,79.73" /><path
               id="path356"
               style="fill:#034ec9;fill-opacity:1;fill-rule:nonzero;stroke:none"
               d="m 1476.82,7340.48 c -24.64,19.4 -60.34,15.15 -79.74,-9.49 -19.4,-24.64 -15.15,-60.34 9.49,-79.74 24.64,-19.39 60.34,-15.15 79.74,9.49 19.4,24.64 15.15,60.34 -9.49,79.74" /><path
               id="path358"
               style="fill:#034ec9;fill-opacity:1;fill-rule:nonzero;stroke:none"
               d="m 1617.3,7518.93 c -24.64,19.41 -60.33,15.15 -79.73,-9.49 -19.4,-24.64 -15.15,-60.33 9.49,-79.74 24.64,-19.39 60.34,-15.14 79.74,9.5 19.4,24.64 15.14,60.34 -9.5,79.73" /><path
               id="path360"
               style="fill:#034ec9;fill-opacity:1;fill-rule:nonzero;stroke:none"
               d="m 1757.79,7697.39 c -24.64,19.4 -60.33,15.15 -79.73,-9.5 -19.41,-24.64 -15.15,-60.33 9.49,-79.73 24.63,-19.4 60.33,-15.15 79.73,9.49 19.4,24.64 15.15,60.34 -9.49,79.74" /><path
               id="path362"
               style="fill:#034ec9;fill-opacity:1;fill-rule:nonzero;stroke:none"
               d="m 1444.54,6932.31 c -24.64,19.4 -60.34,15.15 -79.74,-9.49 -19.4,-24.64 -15.14,-60.33 9.49,-79.74 24.64,-19.39 60.34,-15.14 79.74,9.5 19.4,24.64 15.15,60.33 -9.49,79.73" /><path
               id="path364"
               style="fill:#034ec9;fill-opacity:1;fill-rule:nonzero;stroke:none"
               d="m 1585.02,7110.77 c -24.63,19.4 -60.33,15.14 -79.73,-9.5 -19.4,-24.64 -15.15,-60.33 9.49,-79.73 24.64,-19.4 60.34,-15.15 79.74,9.49 19.4,24.64 15.15,60.34 -9.5,79.74" /><path
               id="path366"
               style="fill:#034ec9;fill-opacity:1;fill-rule:nonzero;stroke:none"
               d="m 1725.51,7289.22 c -24.64,19.4 -60.33,15.15 -79.73,-9.49 -19.4,-24.64 -15.15,-60.34 9.49,-79.74 24.63,-19.39 60.34,-15.15 79.73,9.49 19.4,24.64 15.15,60.34 -9.49,79.74" /><path
               id="path368"
               style="fill:#034ec9;fill-opacity:1;fill-rule:nonzero;stroke:none"
               d="m 1866,7467.67 c -24.64,19.4 -60.34,15.15 -79.74,-9.49 -19.39,-24.64 -15.14,-60.34 9.5,-79.74 24.63,-19.39 60.33,-15.14 79.73,9.5 19.4,24.63 15.15,60.33 -9.49,79.73" /><path
               id="path370"
               style="fill:#034ec9;fill-opacity:1;fill-rule:nonzero;stroke:none"
               d="m 2006.49,7646.12 c -24.64,19.41 -60.34,15.15 -79.74,-9.49 -19.4,-24.64 -15.14,-60.33 9.5,-79.73 24.63,-19.4 60.33,-15.15 79.73,9.49 19.4,24.64 15.15,60.34 -9.49,79.73" /><path
               id="path372"
               style="fill:#034ec9;fill-opacity:1;fill-rule:nonzero;stroke:none"
               d="m 1415.69,6521.44 c -24.64,19.4 -60.33,15.15 -79.73,-9.49 -19.4,-24.64 -15.15,-60.34 9.49,-79.74 24.64,-19.39 60.34,-15.14 79.74,9.5 19.39,24.63 15.14,60.33 -9.5,79.73" /><path
               id="path374"
               style="fill:#034ec9;fill-opacity:1;fill-rule:nonzero;stroke:none"
               d="m 1556.18,6699.89 c -24.64,19.4 -60.34,15.15 -79.73,-9.49 -19.4,-24.64 -15.15,-60.33 9.49,-79.73 24.63,-19.4 60.33,-15.15 79.73,9.49 19.4,24.64 15.15,60.33 -9.49,79.73" /><path
               id="path376"
               style="fill:#034ec9;fill-opacity:1;fill-rule:nonzero;stroke:none"
               d="m 1696.67,6878.35 c -24.64,19.4 -60.34,15.14 -79.74,-9.5 -19.4,-24.64 -15.14,-60.33 9.5,-79.73 24.63,-19.4 60.33,-15.15 79.73,9.49 19.4,24.64 15.15,60.34 -9.49,79.74" /><path
               id="path378"
               style="fill:#034ec9;fill-opacity:1;fill-rule:nonzero;stroke:none"
               d="m 1837.16,7056.8 c -24.64,19.4 -60.34,15.15 -79.74,-9.49 -19.4,-24.64 -15.15,-60.34 9.49,-79.74 24.64,-19.39 60.34,-15.15 79.74,9.49 19.4,24.64 15.14,60.34 -9.49,79.74" /><path
               id="path380"
               style="fill:#034ec9;fill-opacity:1;fill-rule:nonzero;stroke:none"
               d="m 1977.64,7235.25 c -24.63,19.4 -60.33,15.15 -79.73,-9.49 -19.4,-24.64 -15.15,-60.34 9.49,-79.74 24.64,-19.39 60.34,-15.14 79.74,9.5 19.4,24.64 15.14,60.33 -9.5,79.73" /><path
               id="path382"
               style="fill:#034ec9;fill-opacity:1;fill-rule:nonzero;stroke:none"
               d="m 2118.13,7413.71 c -24.64,19.4 -60.33,15.14 -79.73,-9.5 -19.4,-24.64 -15.15,-60.33 9.49,-79.73 24.63,-19.4 60.34,-15.15 79.73,9.49 19.4,24.64 15.15,60.34 -9.49,79.74" /><path
               id="path384"
               style="fill:#034ec9;fill-opacity:1;fill-rule:nonzero;stroke:none"
               d="m 1523.9,6291.73 c -24.64,19.4 -60.33,15.14 -79.73,-9.5 -19.4,-24.63 -15.15,-60.33 9.49,-79.73 24.63,-19.39 60.33,-15.15 79.73,9.49 19.41,24.64 15.15,60.34 -9.49,79.74" /><path
               id="path386"
               style="fill:#034ec9;fill-opacity:1;fill-rule:nonzero;stroke:none"
               d="m 1664.39,6470.18 c -24.64,19.4 -60.33,15.15 -79.73,-9.49 -19.41,-24.64 -15.15,-60.34 9.49,-79.74 24.63,-19.39 60.33,-15.15 79.73,9.49 19.4,24.64 15.15,60.34 -9.49,79.74" /><path
               id="path388"
               style="fill:#034ec9;fill-opacity:1;fill-rule:nonzero;stroke:none"
               d="m 1804.88,6648.63 c -24.64,19.4 -60.34,15.15 -79.74,-9.49 -19.4,-24.64 -15.14,-60.34 9.49,-79.74 24.64,-19.39 60.34,-15.14 79.74,9.5 19.4,24.64 15.15,60.33 -9.49,79.73" /><path
               id="path390"
               style="fill:#034ec9;fill-opacity:1;fill-rule:nonzero;stroke:none"
               d="m 1945.37,6827.09 c -24.64,19.4 -60.34,15.14 -79.74,-9.5 -19.4,-24.64 -15.15,-60.33 9.49,-79.73 24.64,-19.4 60.34,-15.15 79.74,9.49 19.4,24.64 15.14,60.34 -9.49,79.74" /><path
               id="path392"
               style="fill:#034ec9;fill-opacity:1;fill-rule:nonzero;stroke:none"
               d="m 2085.85,7005.54 c -24.64,19.4 -60.33,15.15 -79.73,-9.49 -19.4,-24.64 -15.15,-60.34 9.49,-79.74 24.63,-19.39 60.33,-15.15 79.73,9.49 19.4,24.64 15.15,60.34 -9.49,79.74" /><path
               id="path394"
               style="fill:#034ec9;fill-opacity:1;fill-rule:nonzero;stroke:none"
               d="m 2226.34,7183.99 c -24.64,19.4 -60.34,15.15 -79.74,-9.49 -19.4,-24.64 -15.14,-60.34 9.5,-79.74 24.63,-19.39 60.33,-15.14 79.73,9.5 19.4,24.64 15.15,60.33 -9.49,79.73" /><path
               id="path396"
               style="fill:#034ec9;fill-opacity:1;fill-rule:nonzero;stroke:none"
               d="m 2366.83,7362.44 c -24.64,19.4 -60.34,15.15 -79.74,-9.49 -19.4,-24.64 -15.14,-60.33 9.49,-79.73 24.64,-19.4 60.34,-15.15 79.74,9.49 19.4,24.64 15.15,60.33 -9.49,79.73" /><path
               id="path398"
               style="fill:#034ec9;fill-opacity:1;fill-rule:nonzero;stroke:none"
               d="m 1635.55,6059.31 c -24.64,19.4 -60.34,15.15 -79.74,-9.49 -19.4,-24.64 -15.15,-60.34 9.49,-79.74 24.64,-19.39 60.34,-15.15 79.74,9.49 19.4,24.64 15.15,60.34 -9.49,79.74" /><path
               id="path400"
               style="fill:#034ec9;fill-opacity:1;fill-rule:nonzero;stroke:none"
               d="m 1776.04,6237.76 c -24.64,19.4 -60.34,15.15 -79.74,-9.49 -19.4,-24.64 -15.15,-60.34 9.49,-79.74 24.64,-19.39 60.34,-15.14 79.74,9.49 19.4,24.64 15.14,60.34 -9.49,79.74" /><path
               id="path402"
               style="fill:#034ec9;fill-opacity:1;fill-rule:nonzero;stroke:none"
               d="m 1916.52,6416.21 c -24.64,19.4 -60.33,15.15 -79.73,-9.49 -19.4,-24.63 -15.15,-60.33 9.49,-79.74 24.63,-19.39 60.33,-15.14 79.73,9.5 19.41,24.64 15.15,60.33 -9.49,79.73" /><path
               id="path404"
               style="fill:#034ec9;fill-opacity:1;fill-rule:nonzero;stroke:none"
               d="m 2057.01,6594.67 c -24.64,19.4 -60.34,15.14 -79.74,-9.5 -19.39,-24.63 -15.14,-60.33 9.5,-79.73 24.63,-19.4 60.33,-15.15 79.73,9.49 19.4,24.64 15.15,60.34 -9.49,79.74" /><path
               id="path406"
               style="fill:#034ec9;fill-opacity:1;fill-rule:nonzero;stroke:none"
               d="m 2197.5,6773.12 c -24.64,19.4 -60.34,15.15 -79.74,-9.49 -19.4,-24.64 -15.15,-60.34 9.49,-79.74 24.64,-19.39 60.34,-15.15 79.74,9.49 19.4,24.64 15.15,60.34 -9.49,79.74" /><path
               id="path408"
               style="fill:#034ec9;fill-opacity:1;fill-rule:nonzero;stroke:none"
               d="m 2337.98,6951.57 c -24.64,19.4 -60.33,15.15 -79.73,-9.49 -19.4,-24.64 -15.15,-60.34 9.49,-79.74 24.64,-19.39 60.34,-15.14 79.74,9.5 19.4,24.64 15.14,60.33 -9.5,79.73" /><path
               id="path410"
               style="fill:#034ec9;fill-opacity:1;fill-rule:nonzero;stroke:none"
               d="m 2478.47,7130.02 c -24.64,19.4 -60.34,15.15 -79.73,-9.49 -19.4,-24.64 -15.15,-60.33 9.49,-79.73 24.63,-19.4 60.33,-15.15 79.73,9.49 19.4,24.64 15.15,60.33 -9.49,79.73" /><path
               id="path412"
               style="fill:#034ec9;fill-opacity:1;fill-rule:nonzero;stroke:none"
               d="m 2024.73,6186.5 c -24.64,19.4 -60.34,15.15 -79.73,-9.49 -19.4,-24.64 -15.15,-60.34 9.49,-79.74 24.63,-19.39 60.33,-15.15 79.73,9.49 19.4,24.64 15.15,60.34 -9.49,79.74" /><path
               id="path414"
               style="fill:#034ec9;fill-opacity:1;fill-rule:nonzero;stroke:none"
               d="m 2165.22,6364.95 c -24.64,19.4 -60.34,15.15 -79.74,-9.49 -19.4,-24.64 -15.15,-60.34 9.49,-79.74 24.64,-19.39 60.34,-15.14 79.74,9.5 19.4,24.64 15.15,60.33 -9.49,79.73" /><path
               id="path416"
               style="fill:#034ec9;fill-opacity:1;fill-rule:nonzero;stroke:none"
               d="m 2305.71,6543.41 c -24.64,19.4 -60.34,15.14 -79.74,-9.5 -19.4,-24.64 -15.15,-60.33 9.49,-79.73 24.64,-19.4 60.34,-15.15 79.74,9.49 19.4,24.64 15.14,60.33 -9.49,79.74" /><path
               id="path418"
               style="fill:#034ec9;fill-opacity:1;fill-rule:nonzero;stroke:none"
               d="m 2446.19,6721.86 c -24.63,19.4 -60.33,15.14 -79.73,-9.49 -19.4,-24.64 -15.15,-60.34 9.49,-79.74 24.64,-19.4 60.34,-15.15 79.74,9.49 19.4,24.64 15.14,60.34 -9.5,79.74" /><path
               id="path420"
               style="fill:#034ec9;fill-opacity:1;fill-rule:nonzero;stroke:none"
               d="m 2586.68,6900.31 c -24.64,19.4 -60.33,15.15 -79.73,-9.49 -19.41,-24.64 -15.15,-60.34 9.49,-79.74 24.63,-19.39 60.33,-15.15 79.73,9.49 19.4,24.64 15.15,60.34 -9.49,79.74" /><path
               id="path422"
               style="fill:#034ec9;fill-opacity:1;fill-rule:nonzero;stroke:none"
               d="m 2727.17,7078.76 c -24.64,19.4 -60.34,15.15 -79.74,-9.49 -19.4,-24.64 -15.14,-60.34 9.49,-79.74 24.64,-19.39 60.34,-15.14 79.74,9.5 19.4,24.64 15.15,60.33 -9.49,79.73" /><path
               id="path424"
               style="fill:#034ec9;fill-opacity:1;fill-rule:nonzero;stroke:none"
               d="m 2276.86,6132.53 c -24.64,19.4 -60.33,15.15 -79.73,-9.49 -19.4,-24.64 -15.15,-60.34 9.49,-79.73 24.63,-19.4 60.34,-15.15 79.73,9.49 19.4,24.64 15.15,60.33 -9.49,79.73" /><path
               id="path426"
               style="fill:#034ec9;fill-opacity:1;fill-rule:nonzero;stroke:none"
               d="m 2417.35,6310.99 c -24.64,19.4 -60.34,15.14 -79.74,-9.5 -19.39,-24.64 -15.14,-60.33 9.5,-79.73 24.63,-19.4 60.33,-15.15 79.73,9.49 19.4,24.64 15.15,60.34 -9.49,79.74" /><path
               id="path428"
               style="fill:#034ec9;fill-opacity:1;fill-rule:nonzero;stroke:none"
               d="m 2557.84,6489.44 c -24.64,19.4 -60.34,15.15 -79.74,-9.49 -19.39,-24.64 -15.15,-60.34 9.5,-79.74 24.63,-19.39 60.33,-15.15 79.73,9.49 19.4,24.64 15.15,60.34 -9.49,79.74" /><path
               id="path430"
               style="fill:#034ec9;fill-opacity:1;fill-rule:nonzero;stroke:none"
               d="m 2698.33,6667.89 c -24.64,19.4 -60.34,15.15 -79.74,-9.49 -19.4,-24.64 -15.15,-60.34 9.49,-79.74 24.64,-19.39 60.34,-15.14 79.74,9.5 19.4,24.64 15.14,60.33 -9.49,79.73" /><path
               id="path432"
               style="fill:#034ec9;fill-opacity:1;fill-rule:nonzero;stroke:none"
               d="m 2838.81,6846.34 c -24.64,19.4 -60.33,15.15 -79.73,-9.49 -19.4,-24.64 -15.15,-60.33 9.49,-79.73 24.63,-19.4 60.33,-15.15 79.74,9.49 19.4,24.64 15.14,60.33 -9.5,79.73" /><path
               id="path434"
               style="fill:#034ec9;fill-opacity:1;fill-rule:nonzero;stroke:none"
               d="m 2525.56,6081.27 c -24.64,19.4 -60.34,15.15 -79.74,-9.49 -19.4,-24.64 -15.14,-60.34 9.49,-79.74 24.64,-19.39 60.34,-15.14 79.74,9.5 19.4,24.63 15.15,60.33 -9.49,79.73" /><path
               id="path436"
               style="fill:#034ec9;fill-opacity:1;fill-rule:nonzero;stroke:none"
               d="m 2666.05,6259.73 c -24.64,19.39 -60.34,15.14 -79.74,-9.5 -19.4,-24.64 -15.15,-60.33 9.49,-79.73 24.64,-19.4 60.34,-15.15 79.74,9.49 19.4,24.64 15.15,60.34 -9.49,79.74" /><path
               id="path438"
               style="fill:#034ec9;fill-opacity:1;fill-rule:nonzero;stroke:none"
               d="m 2806.53,6438.18 c -24.64,19.4 -60.33,15.15 -79.73,-9.49 -19.4,-24.64 -15.15,-60.34 9.49,-79.74 24.64,-19.4 60.34,-15.15 79.74,9.49 19.39,24.64 15.14,60.34 -9.5,79.74" /><path
               id="path440"
               style="fill:#034ec9;fill-opacity:1;fill-rule:nonzero;stroke:none"
               d="m 2947.02,6616.63 c -24.64,19.4 -60.34,15.15 -79.73,-9.49 -19.4,-24.64 -15.15,-60.34 9.49,-79.74 24.63,-19.39 60.33,-15.15 79.73,9.49 19.4,24.64 15.15,60.34 -9.49,79.74" /><path
               id="path442"
               style="fill:#034ec9;fill-opacity:1;fill-rule:nonzero;stroke:none"
               d="m 3087.51,6795.08 c -24.64,19.4 -60.34,15.15 -79.74,-9.49 -19.4,-24.64 -15.14,-60.34 9.5,-79.74 24.63,-19.39 60.33,-15.14 79.73,9.5 19.4,24.64 15.15,60.33 -9.49,79.73" /><path
               id="path444"
               style="fill:#034ec9;fill-opacity:1;fill-rule:nonzero;stroke:none"
               d="m 2918.18,6205.76 c -24.64,19.4 -60.34,15.15 -79.74,-9.49 -19.4,-24.64 -15.14,-60.34 9.49,-79.74 24.64,-19.39 60.34,-15.15 79.74,9.49 19.4,24.64 15.15,60.34 -9.49,79.74" /><path
               id="path446"
               style="fill:#034ec9;fill-opacity:1;fill-rule:nonzero;stroke:none"
               d="m 3058.66,6384.21 c -24.63,19.4 -60.33,15.15 -79.73,-9.49 -19.4,-24.64 -15.15,-60.34 9.49,-79.74 24.64,-19.39 60.34,-15.14 79.74,9.49 19.4,24.64 15.15,60.34 -9.5,79.74" /><path
               id="path448"
               style="fill:#034ec9;fill-opacity:1;fill-rule:nonzero;stroke:none"
               d="m 3199.15,6562.66 c -24.64,19.4 -60.33,15.15 -79.73,-9.49 -19.4,-24.63 -15.15,-60.33 9.49,-79.73 24.63,-19.4 60.34,-15.15 79.74,9.49 19.39,24.64 15.14,60.33 -9.5,79.73" /><path
               id="path450"
               style="fill:#034ec9;fill-opacity:1;fill-rule:nonzero;stroke:none"
               d="m 3166.88,6154.5 c -24.65,19.4 -60.34,15.14 -79.74,-9.5 -19.4,-24.64 -15.15,-60.33 9.49,-79.73 24.63,-19.4 60.34,-15.15 79.73,9.49 19.41,24.64 15.15,60.34 -9.48,79.74" /><path
               id="path452"
               style="fill:#034ec9;fill-opacity:1;fill-rule:nonzero;stroke:none"
               d="m 3307.36,6332.95 c -24.64,19.4 -60.33,15.15 -79.73,-9.49 -19.4,-24.64 -15.15,-60.34 9.49,-79.74 24.63,-19.39 60.33,-15.15 79.73,9.49 19.4,24.64 15.15,60.34 -9.49,79.74" /><path
               id="path454"
               style="fill:#034ec9;fill-opacity:1;fill-rule:nonzero;stroke:none"
               d="m 3447.85,6511.4 c -24.64,19.4 -60.34,15.15 -79.74,-9.49 -19.4,-24.64 -15.14,-60.34 9.49,-79.74 24.64,-19.39 60.34,-15.14 79.74,9.5 19.4,24.64 15.15,60.33 -9.49,79.73" /></g></g></g><g
         id="g456"><g
           clip-path="url(#clipPath462)"
           id="g458"><g
             clip-path="url(#clipPath468)"
             id="g464"><g
               clip-path="url(#clipPath474)"
               id="g470"><path
                 id="path476"
                 style="fill:#034ec9;fill-opacity:1;fill-rule:nonzero;stroke:none"
                 d="m 5524.34,3471.87 h 207.512 v 173.66 H 5524.34 Z" /></g></g></g></g><g
         id="g478"><g
           clip-path="url(#clipPath484)"
           id="g480"><g
             clip-path="url(#clipPath490)"
             id="g486"><path
               id="path492"
               style="fill:#034ec9;fill-opacity:1;fill-rule:nonzero;stroke:none"
               d="m 5471.81,3684.33 c -54.84,68.38 -98.48,143.94 -130.32,223.79 16.82,7.44 34.72,11.06 52.53,11.06 40.08,0 79.67,-18.39 105.16,-53.09 42.41,-57.73 30.09,-139.13 -27.37,-181.76" /><path
               id="path494"
               style="fill:#034ec9;fill-opacity:1;fill-rule:nonzero;stroke:none"
               d="m 5309.49,4004.02 c -13.65,50.32 -22.83,101.81 -27.42,153.82 5.81,-5.42 11.2,-11.46 16.07,-18.1 29.95,-40.76 32.61,-93.34 11.35,-135.72" /><path
               id="path496"
               style="fill:#034ec9;fill-opacity:1;fill-rule:nonzero;stroke:none"
               d="m 5969.58,3449.28 c -40.09,0 -79.67,18.4 -105.17,53.1 -42.53,57.89 -30.03,139.6 27.86,182.13 23.19,17.03 50.18,25.24 76.96,25.24 40.09,0 79.67,-18.4 105.17,-53.1 42.53,-57.89 30.03,-139.6 -27.86,-182.13 -23.19,-17.04 -50.18,-25.24 -76.96,-25.24" /><path
               id="path498"
               style="fill:#034ec9;fill-opacity:1;fill-rule:nonzero;stroke:none"
               d="m 5768.53,3722.94 c -40.08,0 -79.66,18.39 -105.16,53.09 -42.53,57.9 -30.03,139.6 27.86,182.13 23.19,17.04 50.18,25.24 76.96,25.24 40.09,0 79.67,-18.39 105.17,-53.09 42.53,-57.9 30.03,-139.6 -27.86,-182.13 -23.19,-17.04 -50.19,-25.24 -76.97,-25.24" /><path
               id="path500"
               style="fill:#034ec9;fill-opacity:1;fill-rule:nonzero;stroke:none"
               d="m 5567.49,3996.59 c -40.08,0.01 -79.67,18.4 -105.16,53.1 -42.53,57.89 -30.02,139.59 27.87,182.12 23.19,17.04 50.19,25.24 76.97,25.24 40.07,0 79.65,-18.39 105.15,-53.09 42.53,-57.89 30.03,-139.6 -27.86,-182.13 -23.19,-17.03 -50.19,-25.24 -76.97,-25.24" /><path
               id="path502"
               style="fill:#034ec9;fill-opacity:1;fill-rule:nonzero;stroke:none"
               d="m 5366.45,4270.25 c -30.76,0 -61.23,10.83 -85.26,31.56 5.72,75.17 21.18,150.24 46.8,223.2 12.47,3.82 25.33,5.7 38.14,5.7 40.07,0 79.65,-18.39 105.15,-53.09 42.52,-57.89 30.02,-139.6 -27.86,-182.13 -23.19,-17.03 -50.19,-25.24 -76.97,-25.24" /><path
               id="path504"
               style="fill:#034ec9;fill-opacity:1;fill-rule:nonzero;stroke:none"
               d="m 5946.94,4064.68 c -40.08,0.01 -79.66,18.4 -105.16,53.1 -42.53,57.88 -30.03,139.6 27.87,182.13 23.18,17.03 50.17,25.23 76.95,25.23 40.08,0 79.67,-18.4 105.17,-53.1 42.53,-57.9 30.03,-139.58 -27.86,-182.11 -23.19,-17.04 -50.19,-25.25 -76.97,-25.25" /><path
               id="path506"
               style="fill:#034ec9;fill-opacity:1;fill-rule:nonzero;stroke:none"
               d="m 5745.91,4338.33 c -40.08,0.01 -79.67,18.4 -105.17,53.1 -42.53,57.89 -30.03,139.6 27.86,182.13 23.19,17.03 50.18,25.24 76.96,25.24 40.08,0 79.67,-18.4 105.17,-53.11 42.53,-57.89 30.03,-139.59 -27.86,-182.12 -23.18,-17.03 -50.18,-25.24 -76.96,-25.24" /><path
               id="path508"
               style="fill:#034ec9;fill-opacity:1;fill-rule:nonzero;stroke:none"
               d="m 5544.87,4611.99 c -40.09,0 -79.67,18.39 -105.17,53.1 -10.18,13.87 -17.22,29.1 -21.22,44.84 38.98,60.59 84.12,114.74 134.14,162.27 37.26,-2.31 73.29,-20.49 97.07,-52.85 42.52,-57.89 30.03,-139.59 -27.86,-182.12 -23.18,-17.04 -50.18,-25.24 -76.96,-25.24" /><path
               id="path510"
               style="fill:#034ec9;fill-opacity:1;fill-rule:nonzero;stroke:none"
               d="m 5919.04,4676.21 c -40.08,0 -79.67,18.39 -105.16,53.09 -42.53,57.9 -30.02,139.59 27.87,182.13 23.18,17.03 50.18,25.23 76.95,25.23 40.08,0 79.66,-18.39 105.16,-53.09 42.53,-57.9 30.04,-139.59 -27.85,-182.12 -23.19,-17.04 -50.19,-25.24 -76.97,-25.24" /><path
               id="path512"
               style="fill:#034ec9;fill-opacity:1;fill-rule:nonzero;stroke:none"
               d="m 5718,4949.87 c -18.68,0 -37.26,3.99 -54.35,11.77 57.18,38.82 118.38,70.47 182.2,94.65 -5.83,-31.43 -23.15,-60.81 -50.88,-81.19 -23.19,-17.03 -50.19,-25.24 -76.97,-25.23" /></g></g></g><g
         id="g514"><g
           clip-path="url(#clipPath520)"
           id="g516"><path
             id="path522"
             style="fill:none;stroke:#ee4023;stroke-width:70.8660965;stroke-linecap:round;stroke-linejoin:miter;stroke-miterlimit:10;stroke-dasharray:none;stroke-opacity:1"
             d="m 341.785,7936.44 430.465,250" /><path
             id="path524"
             style="fill:none;stroke:#034ec9;stroke-width:70.8660965;stroke-linecap:round;stroke-linejoin:miter;stroke-miterlimit:10;stroke-dasharray:none;stroke-opacity:1"
             d="m 839.551,6515.69 -11.969,497.66" /><path
             id="path526"
             style="fill:none;stroke:#034ec9;stroke-width:70.8660965;stroke-linecap:round;stroke-linejoin:miter;stroke-miterlimit:10;stroke-dasharray:none;stroke-opacity:1"
             d="m 4877.73,7697.18 400.94,295.05" /><path
             id="path528"
             style="fill:none;stroke:#ee4023;stroke-width:70.8660965;stroke-linecap:round;stroke-linejoin:miter;stroke-miterlimit:10;stroke-dasharray:none;stroke-opacity:1"
             d="m 5148.3,5495.11 -469.2,-166.3" /><path
             id="path530"
             style="fill:none;stroke:#034ec9;stroke-width:70.8660965;stroke-linecap:round;stroke-linejoin:miter;stroke-miterlimit:10;stroke-dasharray:none;stroke-opacity:1"
             d="m 5542.67,6336.61 -464.47,179.1" /><path
             id="path532"
             style="fill:none;stroke:#ee4023;stroke-width:70.8660965;stroke-linecap:round;stroke-linejoin:miter;stroke-miterlimit:10;stroke-dasharray:none;stroke-opacity:1"
             d="m 6320.59,7198.85 -490.63,-84.14" /><path
             id="path534"
             style="fill:none;stroke:#ee4023;stroke-width:70.8660965;stroke-linecap:round;stroke-linejoin:miter;stroke-miterlimit:10;stroke-dasharray:none;stroke-opacity:1"
             d="m 99.5977,7140.24 -483.5507,117.1" /><path
             id="path536"
             style="fill:none;stroke:#ee4023;stroke-width:70.8660965;stroke-linecap:round;stroke-linejoin:miter;stroke-miterlimit:10;stroke-dasharray:none;stroke-opacity:1"
             d="m 1313.22,5301.32 311.04,387.57" /><path
             id="path538"
             style="fill:none;stroke:#ee4023;stroke-width:70.8660965;stroke-linecap:round;stroke-linejoin:miter;stroke-miterlimit:10;stroke-dasharray:none;stroke-opacity:1"
             d="m 2789.46,5002.34 -370.43,331.28" /><path
             id="path540"
             style="fill:none;stroke:#034ec9;stroke-width:70.8660965;stroke-linecap:round;stroke-linejoin:miter;stroke-miterlimit:10;stroke-dasharray:none;stroke-opacity:1"
             d="m 2102.31,4304.08 -133.06,-478.8" /><path
             id="path542"
             style="fill:none;stroke:#ee4023;stroke-width:70.8660965;stroke-linecap:round;stroke-linejoin:miter;stroke-miterlimit:10;stroke-dasharray:none;stroke-opacity:1"
             d="M 979.203,3599.42 565.301,3874.45" /><path
             id="path544"
             style="fill:none;stroke:#034ec9;stroke-width:70.8660965;stroke-linecap:round;stroke-linejoin:miter;stroke-miterlimit:10;stroke-dasharray:none;stroke-opacity:1"
             d="m 2194.97,1689.26 113.52,-483.82" /><path
             id="path546"
             style="fill:none;stroke:#ee4023;stroke-width:70.8660965;stroke-linecap:round;stroke-linejoin:miter;stroke-miterlimit:10;stroke-dasharray:none;stroke-opacity:1"
             d="M 2985.47,3015.74 2691.43,2615.11" /><path
             id="path548"
             style="fill:none;stroke:#034ec9;stroke-width:70.8660965;stroke-linecap:round;stroke-linejoin:miter;stroke-miterlimit:10;stroke-dasharray:none;stroke-opacity:1"
             d="m 6114.4,2510.48 -486.24,102.67" /><path
             id="path550"
             style="fill:none;stroke:#034ec9;stroke-width:70.8660965;stroke-linecap:round;stroke-linejoin:miter;stroke-miterlimit:10;stroke-dasharray:none;stroke-opacity:1"
             d="M 4856.31,781.711 4501.89,432.961" /><path
             id="path552"
             style="fill:none;stroke:#ee4023;stroke-width:70.8660965;stroke-linecap:round;stroke-linejoin:miter;stroke-miterlimit:10;stroke-dasharray:none;stroke-opacity:1"
             d="M 5624.35,-312.688 5377.18,118.77" /><path
             id="path554"
             style="fill:none;stroke:#ee4023;stroke-width:70.8660965;stroke-linecap:round;stroke-linejoin:miter;stroke-miterlimit:10;stroke-dasharray:none;stroke-opacity:1"
             d="M 6320.59,1438.23 5881.17,1205.52" /><path
             id="path556"
             style="fill:none;stroke:#ee4023;stroke-width:70.8660965;stroke-linecap:round;stroke-linejoin:miter;stroke-miterlimit:10;stroke-dasharray:none;stroke-opacity:1"
             d="M 1091.25,763.27 867.164,319.402" /><path
             id="path558"
             style="fill:none;stroke:#ee4023;stroke-width:70.8660965;stroke-linecap:round;stroke-linejoin:miter;stroke-miterlimit:10;stroke-dasharray:none;stroke-opacity:1"
             d="m 2035.78,191.52 318.39,-383.04" /><path
             id="path560"
             style="fill:none;stroke:#ee4023;stroke-width:70.8660965;stroke-linecap:round;stroke-linejoin:miter;stroke-miterlimit:10;stroke-dasharray:none;stroke-opacity:1"
             d="m 4842.9,3626.31 -462.15,182.5" /></g></g><g
         id="g562"><g
           clip-path="url(#clipPath568)"
           id="g564"><path
             id="path570"
             style="fill:#ee4023;fill-opacity:1;fill-rule:nonzero;stroke:none"
             d="m 2745.63,507 c -86.57,-138.699 -44.3,-321.301 94.4,-407.8594 138.69,-86.5586 321.3,-44.3008 407.86,94.3984 86.56,138.703 44.29,321.313 -94.4,407.863 -138.7,86.559 -321.3,44.297 -407.86,-94.402" /><path
             id="path572"
             style="fill:none;stroke:#ee4023;stroke-width:123.68699646;stroke-linecap:butt;stroke-linejoin:miter;stroke-miterlimit:10;stroke-dasharray:none;stroke-opacity:1"
             d="m 2745.63,507 c -86.57,-138.699 -44.3,-321.301 94.4,-407.8594 138.69,-86.5586 321.3,-44.3008 407.86,94.3984 86.56,138.703 44.29,321.313 -94.4,407.863 -138.7,86.559 -321.3,44.297 -407.86,-94.402 z" /><path
             id="path574"
             style="fill:#ee4023;fill-opacity:1;fill-rule:nonzero;stroke:none"
             d="m 4302.72,366.102 c -86.56,-138.7 -44.3,-321.3012 94.4,-407.8598 138.7,-86.5622 321.3,-44.3008 407.86,94.3984 86.56,138.6994 44.3,321.3004 -94.4,407.8594 -138.7,86.559 -321.3,44.301 -407.86,-94.398" /><path
             id="path576"
             style="fill:none;stroke:#ee4023;stroke-width:123.68699646;stroke-linecap:butt;stroke-linejoin:miter;stroke-miterlimit:10;stroke-dasharray:none;stroke-opacity:1"
             d="m 4302.72,366.102 c -86.56,-138.7 -44.3,-321.3012 94.4,-407.8598 138.7,-86.5622 321.3,-44.3008 407.86,94.3984 86.56,138.6994 44.3,321.3004 -94.4,407.8594 -138.7,86.559 -321.3,44.301 -407.86,-94.398 z" /><path
             id="path578"
             style="fill:#ee4023;fill-opacity:1;fill-rule:nonzero;stroke:none"
             d="m 3513.45,858.68 c -86.56,-138.7 -44.3,-321.297 94.4,-407.86 138.7,-86.558 321.3,-44.3 407.86,94.403 86.56,138.699 44.29,321.297 -94.4,407.859 -138.7,86.558 -321.3,44.301 -407.86,-94.402" /><path
             id="path580"
             style="fill:none;stroke:#ee4023;stroke-width:123.68699646;stroke-linecap:butt;stroke-linejoin:miter;stroke-miterlimit:10;stroke-dasharray:none;stroke-opacity:1"
             d="m 3513.45,858.68 c -86.56,-138.7 -44.3,-321.297 94.4,-407.86 138.7,-86.558 321.3,-44.3 407.86,94.403 86.56,138.699 44.29,321.297 -94.4,407.859 -138.7,86.558 -321.3,44.301 -407.86,-94.402 z" /><path
             id="path582"
             style="fill:#ee4023;fill-opacity:1;fill-rule:nonzero;stroke:none"
             d="m 2724.17,1351.26 c -86.56,-138.7 -44.29,-321.31 94.41,-407.869 138.69,-86.551 321.3,-44.289 407.86,94.409 86.56,138.7 44.29,321.3 -94.4,407.86 -138.7,86.56 -321.31,44.29 -407.87,-94.4" /><path
             id="path584"
             style="fill:none;stroke:#ee4023;stroke-width:123.68699646;stroke-linecap:butt;stroke-linejoin:miter;stroke-miterlimit:10;stroke-dasharray:none;stroke-opacity:1"
             d="m 2724.17,1351.26 c -86.56,-138.7 -44.29,-321.31 94.41,-407.869 138.69,-86.551 321.3,-44.289 407.86,94.409 86.56,138.7 44.29,321.3 -94.4,407.86 -138.7,86.56 -321.31,44.29 -407.87,-94.4 z" /><path
             id="path586"
             style="fill:#ee4023;fill-opacity:1;fill-rule:nonzero;stroke:none"
             d="m 4238.37,2898.87 c -86.56,-138.7 -44.3,-321.31 94.4,-407.87 138.7,-86.56 321.3,-44.29 407.86,94.41 86.56,138.7 44.3,321.3 -94.4,407.86 -138.69,86.56 -321.3,44.29 -407.86,-94.4" /><path
             id="path588"
             style="fill:none;stroke:#ee4023;stroke-width:123.68699646;stroke-linecap:butt;stroke-linejoin:miter;stroke-miterlimit:10;stroke-dasharray:none;stroke-opacity:1"
             d="m 4238.37,2898.87 c -86.56,-138.7 -44.3,-321.31 94.4,-407.87 138.7,-86.56 321.3,-44.29 407.86,94.41 86.56,138.7 44.3,321.3 -94.4,407.86 -138.69,86.56 -321.3,44.29 -407.86,-94.4 z" /><path
             id="path590"
             style="fill:#ee4023;fill-opacity:1;fill-rule:nonzero;stroke:none"
             d="m 4281.27,1210.36 c -86.56,-138.7 -44.29,-321.309 94.4,-407.868 138.7,-86.562 321.3,-44.293 407.86,94.41 86.56,138.688 44.3,321.298 -94.4,407.858 -138.7,86.56 -321.3,44.29 -407.86,-94.4" /><path
             id="path592"
             style="fill:none;stroke:#ee4023;stroke-width:123.68699646;stroke-linecap:butt;stroke-linejoin:miter;stroke-miterlimit:10;stroke-dasharray:none;stroke-opacity:1"
             d="m 4281.27,1210.36 c -86.56,-138.7 -44.29,-321.309 94.4,-407.868 138.7,-86.562 321.3,-44.293 407.86,94.41 86.56,138.688 44.3,321.298 -94.4,407.858 -138.7,86.56 -321.3,44.29 -407.86,-94.4 z" /><path
             id="path594"
             style="fill:#ee4023;fill-opacity:1;fill-rule:nonzero;stroke:none"
             d="m 3492,1702.94 c -86.56,-138.7 -44.3,-321.31 94.4,-407.87 138.7,-86.56 321.3,-44.29 407.86,94.41 86.56,138.69 44.29,321.3 -94.4,407.86 -138.7,86.56 -321.3,44.29 -407.86,-94.4" /><path
             id="path596"
             style="fill:none;stroke:#ee4023;stroke-width:123.68699646;stroke-linecap:butt;stroke-linejoin:miter;stroke-miterlimit:10;stroke-dasharray:none;stroke-opacity:1"
             d="m 3492,1702.94 c -86.56,-138.7 -44.3,-321.31 94.4,-407.87 138.7,-86.56 321.3,-44.29 407.86,94.41 86.56,138.69 44.29,321.3 -94.4,407.86 -138.7,86.56 -321.3,44.29 -407.86,-94.4 z" /><path
             id="path598"
             style="fill:#ee4023;fill-opacity:1;fill-rule:nonzero;stroke:none"
             d="m 2702.72,2195.51 c -86.55,-138.69 -44.29,-321.3 94.41,-407.86 138.69,-86.56 321.3,-44.29 407.86,94.4 86.56,138.7 44.29,321.31 -94.4,407.87 -138.7,86.56 -321.31,44.29 -407.87,-94.41" /><path
             id="path600"
             style="fill:none;stroke:#ee4023;stroke-width:123.68699646;stroke-linecap:butt;stroke-linejoin:miter;stroke-miterlimit:10;stroke-dasharray:none;stroke-opacity:1"
             d="m 2702.72,2195.51 c -86.55,-138.69 -44.29,-321.3 94.41,-407.86 138.69,-86.56 321.3,-44.29 407.86,94.4 86.56,138.7 44.29,321.31 -94.4,407.87 -138.7,86.56 -321.31,44.29 -407.87,-94.41 z" /><path
             id="path602"
             style="fill:#ee4023;fill-opacity:1;fill-rule:nonzero;stroke:none"
             d="m 4259.82,2054.61 c -86.56,-138.7 -44.3,-321.3 94.4,-407.86 138.7,-86.56 321.3,-44.3 407.86,94.4 86.56,138.7 44.3,321.3 -94.4,407.86 -138.7,86.56 -321.3,44.3 -407.86,-94.4" /><path
             id="path604"
             style="fill:none;stroke:#ee4023;stroke-width:123.68699646;stroke-linecap:butt;stroke-linejoin:miter;stroke-miterlimit:10;stroke-dasharray:none;stroke-opacity:1"
             d="m 4259.82,2054.61 c -86.56,-138.7 -44.3,-321.3 94.4,-407.86 138.7,-86.56 321.3,-44.3 407.86,94.4 86.56,138.7 44.3,321.3 -94.4,407.86 -138.7,86.56 -321.3,44.3 -407.86,-94.4 z" /><path
             id="path606"
             style="fill:#ee4023;fill-opacity:1;fill-rule:nonzero;stroke:none"
             d="m 3470.55,2547.19 c -86.56,-138.7 -44.3,-321.3 94.4,-407.86 138.7,-86.56 321.3,-44.3 407.86,94.4 86.56,138.7 44.3,321.31 -94.4,407.86 -138.7,86.56 -321.3,44.3 -407.86,-94.4" /><path
             id="path608"
             style="fill:none;stroke:#ee4023;stroke-width:123.68699646;stroke-linecap:butt;stroke-linejoin:miter;stroke-miterlimit:10;stroke-dasharray:none;stroke-opacity:1"
             d="m 3470.55,2547.19 c -86.56,-138.7 -44.3,-321.3 94.4,-407.86 138.7,-86.56 321.3,-44.3 407.86,94.4 86.56,138.7 44.3,321.31 -94.4,407.86 -138.7,86.56 -321.3,44.3 -407.86,-94.4 z" /></g></g></g></g></svg>